SplineFontDB: 3.2
FontName: Nahidmono
FullName: Nahidmono
FamilyName: Nahidmono
Weight: Regular
Copyright: Copyright (c) 2003 by Bitstream, Inc. All Rights Reserved.\nDejaVu changes are in public domain\nChanges by Saber Rastikerdar are in public domain.\nNon-Arabic(Latin) glyphs and data in extended version are imported from Roboto font under the Apache License, Version 2.0.\nChanges by Erfan Kheyrollahi are SIL OFL v1.1
Version: 0.4.0
ItalicAngle: 0
UnderlinePosition: -500
UnderlineWidth: 100
Ascent: 1638
Descent: 410
InvalidEm: 0
LayerCount: 2
Layer: 0 1 "Back" 1
Layer: 1 1 "Fore" 0
PreferredKerning: 4
XUID: [1021 502 1027637223 5872633]
UniqueID: 4142467
UseUniqueID: 1
FSType: 0
OS2Version: 1
OS2_WeightWidthSlopeOnly: 0
OS2_UseTypoMetrics: 1
CreationTime: 1431850356
ModificationTime: 1706864827
PfmFamily: 49
TTFWeight: 400
TTFWidth: 5
LineGap: 0
VLineGap: 0
Panose: 2 11 6 9 3 8 4 2 2 4
OS2TypoAscent: 2100
OS2TypoAOffset: 0
OS2TypoDescent: -1100
OS2TypoDOffset: 0
OS2TypoLinegap: 0
OS2WinAscent: 2100
OS2WinAOffset: 0
OS2WinDescent: 1100
OS2WinDOffset: 0
HheadAscent: 2100
HheadAOffset: 0
HheadDescent: -1100
HheadDOffset: 0
OS2SubXSize: 1331
OS2SubYSize: 1433
OS2SubXOff: 0
OS2SubYOff: 286
OS2SupXSize: 1331
OS2SupYSize: 1433
OS2SupXOff: 0
OS2SupYOff: 983
OS2StrikeYSize: 102
OS2StrikeYPos: 530
OS2CapHeight: 1638
OS2XHeight: 1082
OS2Vendor: '    '
OS2CodePages: 00000041.20080000
OS2UnicodeRanges: 80002003.80000000.00000008.00000000
Lookup: 1 9 0 "'fina' Terminal Forms in Arabic lookup 9" { "'fina' Terminal Forms in Arabic lookup 9 subtable"  } ['fina' ('arab' <'KUR ' 'SND ' 'URD ' 'dflt' > ) ]
Lookup: 1 9 0 "'medi' Medial Forms in Arabic lookup 11" { "'medi' Medial Forms in Arabic lookup 11 subtable"  } ['medi' ('arab' <'KUR ' 'SND ' 'URD ' 'dflt' > ) ]
Lookup: 1 9 0 "'init' Initial Forms in Arabic lookup 13" { "'init' Initial Forms in Arabic lookup 13 subtable"  } ['init' ('arab' <'KUR ' 'SND ' 'URD ' 'dflt' > ) ]

StartChar: exclam
Encoding: 33 33 1
GlifName: exclam
Width: 1600
VWidth: 2762
GlyphClass: 2
Flags: W
LayerCount: 2
Fore
SplineSet
625.091796875 138.493164062 m 0,0,1
 625.091796875 193.540039062 625.091796875 193.540039062 664.162109375 232.609375 c 128,-1,2
 703.231445312 271.6796875 703.231445312 271.6796875 758.278320312 271.6796875 c 0,3,4
 785.84375 271.6796875 785.84375 271.6796875 809.336914062 261.927734375 c 128,-1,5
 832.830078125 252.174804688 832.830078125 252.174804688 852.395507812 232.609375 c 128,-1,6
 871.959960938 213.043945312 871.959960938 213.043945312 881.711914062 189.55078125 c 128,-1,7
 891.463867188 166.057617188 891.463867188 166.057617188 891.463867188 138.493164062 c 0,8,9
 891.463867188 83.4462890625 891.463867188 83.4462890625 852.395507812 44.376953125 c 128,-1,10
 813.326171875 5.306640625 813.326171875 5.306640625 758.278320312 5.306640625 c 0,11,12
 710.078125 5.306640625 710.078125 5.306640625 674.208984375 35.189453125 c 0,13,14
 667.4375 40.830078125 667.4375 40.830078125 661.592773438 46.9150390625 c 128,-1,15
 655.748046875 53 655.748046875 53 650.828125 59.5302734375 c 128,-1,16
 645.909179688 66.0595703125 645.909179688 66.0595703125 641.912109375 73.033203125 c 128,-1,17
 637.915039062 80.005859375 637.915039062 80.005859375 634.83203125 87.4326171875 c 0,18,19
 629.962890625 99.1630859375 629.962890625 99.1630859375 627.52734375 111.921875 c 128,-1,20
 625.091796875 124.681640625 625.091796875 124.681640625 625.091796875 138.493164062 c 0,0,1
653.216796875 1402.07128906 m 1,21,-1
 866.559570312 1402.07128906 l 1,22,-1
 842.146484375 499.32421875 l 1,23,-1
 678.84765625 499.32421875 l 1,24,-1
 653.216796875 1402.07128906 l 1,21,-1
EndSplineSet
Validated: 1
EndChar

StartChar: period
Encoding: 46 46 2
GlifName: period
Width: 1600
VWidth: 2762
GlyphClass: 2
Flags: W
LayerCount: 2
Fore
SplineSet
655.091796875 138.493164062 m 0,0,1
 655.091796875 193.540039062 655.091796875 193.540039062 694.162109375 232.609375 c 128,-1,2
 733.231445312 271.6796875 733.231445312 271.6796875 788.278320312 271.6796875 c 0,3,4
 815.84375 271.6796875 815.84375 271.6796875 839.336914062 261.927734375 c 128,-1,5
 862.830078125 252.174804688 862.830078125 252.174804688 882.395507812 232.609375 c 128,-1,6
 901.959960938 213.043945312 901.959960938 213.043945312 911.711914062 189.55078125 c 128,-1,7
 921.463867188 166.057617188 921.463867188 166.057617188 921.463867188 138.493164062 c 0,8,9
 921.463867188 83.4462890625 921.463867188 83.4462890625 882.395507812 44.376953125 c 128,-1,10
 843.326171875 5.306640625 843.326171875 5.306640625 788.278320312 5.306640625 c 0,11,12
 740.078125 5.306640625 740.078125 5.306640625 704.208984375 35.189453125 c 0,13,14
 697.4375 40.830078125 697.4375 40.830078125 691.592773438 46.9150390625 c 128,-1,15
 685.748046875 53 685.748046875 53 680.828125 59.5302734375 c 128,-1,16
 675.909179688 66.0595703125 675.909179688 66.0595703125 671.912109375 73.033203125 c 128,-1,17
 667.915039062 80.005859375 667.915039062 80.005859375 664.83203125 87.4326171875 c 0,18,19
 659.962890625 99.1630859375 659.962890625 99.1630859375 657.52734375 111.921875 c 128,-1,20
 655.091796875 124.681640625 655.091796875 124.681640625 655.091796875 138.493164062 c 0,0,1
EndSplineSet
Validated: 1
EndChar

StartChar: colon
Encoding: 58 58 3
GlifName: colon
Width: 1600
VWidth: 2762
GlyphClass: 2
Flags: W
LayerCount: 2
Fore
SplineSet
655.091796875 1008.49316406 m 0,0,1
 655.091796875 1063.54003906 655.091796875 1063.54003906 694.162109375 1102.609375 c 128,-1,2
 733.231445312 1141.6796875 733.231445312 1141.6796875 788.278320312 1141.6796875 c 128,-1,3
 843.326171875 1141.6796875 843.326171875 1141.6796875 882.395507812 1102.609375 c 0,4,5
 895.44140625 1089.56347656 895.44140625 1089.56347656 904.119140625 1074.77832031 c 128,-1,6
 912.797851562 1059.99414062 912.797851562 1059.99414062 917.130859375 1043.43359375 c 128,-1,7
 921.463867188 1026.87304688 921.463867188 1026.87304688 921.463867188 1008.49316406 c 0,8,9
 921.463867188 953.446289062 921.463867188 953.446289062 882.395507812 914.376953125 c 0,10,11
 862.830078125 894.811523438 862.830078125 894.811523438 839.336914062 885.05859375 c 128,-1,12
 815.84375 875.306640625 815.84375 875.306640625 788.278320312 875.306640625 c 0,13,14
 740.078125 875.306640625 740.078125 875.306640625 704.208984375 905.189453125 c 0,15,16
 677.166992188 927.716796875 677.166992188 927.716796875 664.83203125 957.432617188 c 0,17,18
 659.962890625 969.163085938 659.962890625 969.163085938 657.52734375 981.921875 c 128,-1,19
 655.091796875 994.681640625 655.091796875 994.681640625 655.091796875 1008.49316406 c 0,0,1
655.091796875 138.493164062 m 0,20,21
 655.091796875 193.540039062 655.091796875 193.540039062 694.162109375 232.609375 c 128,-1,22
 733.231445312 271.6796875 733.231445312 271.6796875 788.278320312 271.6796875 c 0,23,24
 815.84375 271.6796875 815.84375 271.6796875 839.336914062 261.927734375 c 128,-1,25
 862.830078125 252.174804688 862.830078125 252.174804688 882.395507812 232.609375 c 128,-1,26
 901.959960938 213.043945312 901.959960938 213.043945312 911.711914062 189.55078125 c 128,-1,27
 921.463867188 166.057617188 921.463867188 166.057617188 921.463867188 138.493164062 c 0,28,29
 921.463867188 83.4462890625 921.463867188 83.4462890625 882.395507812 44.376953125 c 128,-1,30
 843.326171875 5.306640625 843.326171875 5.306640625 788.278320312 5.306640625 c 0,31,32
 740.078125 5.306640625 740.078125 5.306640625 704.208984375 35.189453125 c 0,33,34
 697.4375 40.830078125 697.4375 40.830078125 691.592773438 46.9150390625 c 128,-1,35
 685.748046875 53 685.748046875 53 680.828125 59.5302734375 c 128,-1,36
 675.909179688 66.0595703125 675.909179688 66.0595703125 671.912109375 73.033203125 c 128,-1,37
 667.915039062 80.005859375 667.915039062 80.005859375 664.83203125 87.4326171875 c 0,38,39
 659.962890625 99.1630859375 659.962890625 99.1630859375 657.52734375 111.921875 c 128,-1,40
 655.091796875 124.681640625 655.091796875 124.681640625 655.091796875 138.493164062 c 0,20,21
EndSplineSet
Validated: 1
EndChar

StartChar: afii57388
Encoding: 1548 1548 5
GlifName: afii57388
Width: 1600
VWidth: 2770
GlyphClass: 2
Flags: W
LayerCount: 2
Fore
SplineSet
657.4609375 287.60546875 m 0,0,1
 706.610351562 530.870117188 706.610351562 530.870117188 902.274414062 680.014648438 c 1,2,-1
 947.084960938 652.140625 l 1,3,4
 789.938476562 509.219726562 789.938476562 509.219726562 773.995117188 287.342773438 c 2,5,-1
 773.838867188 285.169921875 l 1,6,-1
 776.017578125 285.19921875 l 2,7,8
 907.782226562 286.983398438 907.782226562 286.983398438 940.838867188 222.024414062 c 0,9,10
 959.98828125 183.552734375 959.98828125 183.552734375 959.086914062 146.030273438 c 0,11,12
 955.0703125 9.9375 955.0703125 9.9375 815.991210938 8.9072265625 c 0,13,14
 787.9140625 8.7900390625 787.9140625 8.7900390625 764.4765625 13.4365234375 c 0,15,16
 645.720703125 36.984375 645.720703125 36.984375 645.842773438 184 c 0,17,18
 645.880859375 229.80859375 645.880859375 229.80859375 657.4609375 287.60546875 c 0,0,1
EndSplineSet
Validated: 33
EndChar

StartChar: uni0615
Encoding: 1557 1557 6
GlifName: uni0615
Width: 1600
VWidth: 2712
GlyphClass: 4
Flags: W
AnchorPoint: "Anchor-10" 658.199 1622.46 mark 0
AnchorPoint: "Anchor-9" 658.199 1622.46 mark 0
AnchorPoint: "Anchor-1" 672.366 2445.86 basemark 0
AnchorPoint: "Anchor-1" 658.199 1622.46 mark 0
LayerCount: 2
Fore
SplineSet
541.2421875 1786.00390625 m 1,0,-1
 677.703125 1786.00390625 l 2,1,2
 782.301757812 1786.00390625 782.301757812 1786.00390625 846.846679688 1820.74121094 c 0,3,4
 911.943359375 1855.77441406 911.943359375 1855.77441406 914.579101562 1910.29980469 c 128,-1,5
 917.220703125 1964.95214844 917.220703125 1964.95214844 883.403320312 1983.27148438 c 0,6,7
 828.697265625 2013.80371094 828.697265625 2013.80371094 742.877929688 1965.12109375 c 128,-1,8
 657.05859375 1916.43847656 657.05859375 1916.43847656 539.772460938 1789.36035156 c 2,9,-1
 536.674804688 1786.00390625 l 1,10,-1
 541.2421875 1786.00390625 l 1,0,-1
989.1328125 1926.79882812 m 0,11,12
 989.000976562 1714.07421875 989.000976562 1714.07421875 668.384765625 1714.07421875 c 2,13,-1
 356.936523438 1714.07421875 l 1,14,-1
 356.936523438 1786.00390625 l 1,15,-1
 462.987304688 1786.00390625 l 1,16,-1
 464.987304688 1786.00390625 l 1,17,-1
 464.987304688 1788.00390625 l 1,18,-1
 464.987304688 2318.125 l 1,19,-1
 538.229492188 2317.20898438 l 1,20,-1
 537.275390625 1891.90722656 l 1,21,-1
 537.263671875 1886.58789062 l 1,22,-1
 540.77734375 1890.58105469 l 2,23,24
 747.583007812 2125.63476562 747.583007812 2125.63476562 911.680664062 2062.82324219 c 0,25,26
 989.001953125 2033.6171875 989.001953125 2033.6171875 989.1328125 1926.79882812 c 0,11,12
EndSplineSet
Validated: 33
EndChar

StartChar: uni061B
Encoding: 1563 1563 7
GlifName: uni061B_
Width: 1600
VWidth: 2770
GlyphClass: 2
Flags: W
LayerCount: 2
Fore
SplineSet
617.4609375 757.60546875 m 0,0,1
 666.610351562 1000.87011719 666.610351562 1000.87011719 862.274414062 1150.01464844 c 1,2,-1
 907.084960938 1122.140625 l 1,3,4
 749.938476562 979.219726562 749.938476562 979.219726562 733.995117188 757.342773438 c 2,5,-1
 733.838867188 755.169921875 l 1,6,-1
 736.017578125 755.19921875 l 2,7,8
 867.782226562 756.983398438 867.782226562 756.983398438 900.838867188 692.024414062 c 0,9,10
 919.98828125 653.552734375 919.98828125 653.552734375 919.086914062 616.030273438 c 0,11,12
 915.0703125 479.9375 915.0703125 479.9375 775.991210938 478.907226562 c 0,13,14
 747.9140625 478.790039062 747.9140625 478.790039062 724.4765625 483.436523438 c 0,15,16
 605.720703125 506.984375 605.720703125 506.984375 605.842773438 654 c 0,17,18
 605.880859375 699.80859375 605.880859375 699.80859375 617.4609375 757.60546875 c 0,0,1
634.091796875 138.493164062 m 0,19,20
 634 194 634 194 673.162109375 232.609375 c 0,21,22
 712 272 712 272 767.278320312 271.6796875 c 0,23,24
 795 272 795 272 818.336914062 261.927734375 c 0,25,26
 842 252 842 252 861.395507812 232.609375 c 0,27,28
 900 194 900 194 900.463867188 138.493164062 c 0,29,30
 900 83 900 83 861.395507812 44.376953125 c 0,31,32
 822 5 822 5 767.278320312 5.306640625 c 0,33,34
 719 5 719 5 683.208984375 35.189453125 c 0,35,36
 674 43 674 43 666.798828125 51.0224609375 c 0,37,38
 659 59 659 59 653.6796875 68.4326171875 c 0,39,40
 648 78 648 78 643.83203125 87.4326171875 c 0,41,42
 639 99 639 99 636.52734375 111.921875 c 128,-1,43
 634 125 634 125 634.091796875 138.493164062 c 0,19,20
EndSplineSet
Validated: 33
EndChar

StartChar: uni061F
Encoding: 1567 1567 8
GlifName: uni061F_
Width: 1600
VWidth: 2762
GlyphClass: 2
Flags: W
LayerCount: 2
Fore
SplineSet
720.091796875 138.493164062 m 0,0,1
 720.091796875 193.540039062 720.091796875 193.540039062 759.162109375 232.609375 c 128,-1,2
 798.231445312 271.6796875 798.231445312 271.6796875 853.278320312 271.6796875 c 128,-1,3
 908.326171875 271.6796875 908.326171875 271.6796875 947.395507812 232.609375 c 128,-1,4
 986.463867188 193.540039062 986.463867188 193.540039062 986.463867188 138.493164062 c 128,-1,5
 986.463867188 83.4462890625 986.463867188 83.4462890625 947.395507812 44.376953125 c 128,-1,6
 908.326171875 5.306640625 908.326171875 5.306640625 853.278320312 5.306640625 c 0,7,8
 805.078125 5.306640625 805.078125 5.306640625 769.208984375 35.189453125 c 0,9,10
 760.181640625 42.7099609375 760.181640625 42.7099609375 752.798828125 51.0224609375 c 128,-1,11
 745.416015625 59.3349609375 745.416015625 59.3349609375 739.6796875 68.4326171875 c 128,-1,12
 733.943359375 77.529296875 733.943359375 77.529296875 729.83203125 87.4326171875 c 0,13,14
 724.962890625 99.1630859375 724.962890625 99.1630859375 722.52734375 111.921875 c 128,-1,15
 720.091796875 124.681640625 720.091796875 124.681640625 720.091796875 138.493164062 c 0,0,1
754.145507812 496.333007812 m 1,16,17
 741.00390625 583.614257812 741.00390625 583.614257812 636.930664062 678.607421875 c 0,18,19
 413 883 413 883 416 1045.95898438 c 0,20,21
 419 1181 419 1181 498.495117188 1269.671875 c 0,22,23
 615 1401 615 1401 808.94140625 1400.51660156 c 0,24,25
 1174 1399 1174 1399 1174 1014 c 2,26,-1
 1174 1006.25 l 1,27,-1
 1017.79980469 1006.24804688 l 1,28,-1
 1017.79980469 1012.86328125 l 2,29,30
 1018 1211 1018 1211 817.602539062 1210.89453125 c 0,31,32
 705 1211 705 1211 649.944335938 1155 c 0,33,34
 601 1105 601 1105 601.328125 1036 c 0,35,36
 602 926 602 926 788.134765625 759.353515625 c 0,37,38
 942.192382812 615.208007812 942.192382812 615.208007812 952.827148438 496.333007812 c 1,39,-1
 754.145507812 496.333007812 l 1,16,17
EndSplineSet
Validated: 33
EndChar

StartChar: uni0621
Encoding: 1569 1569 9
GlifName: uni0621
Width: 1600
VWidth: 2950
GlyphClass: 2
Flags: W
AnchorPoint: "Anchor-7" 485.326 -105.646 basechar 0
AnchorPoint: "Anchor-10" 479.848 1242.06 basechar 0
LayerCount: 2
Fore
SplineSet
119.76953125 13.236328125 m 1,0,-1
 119.76953125 186.692382812 l 1,1,2
 247.40625 267.34765625 247.40625 267.34765625 358.892578125 302.67578125 c 2,3,-1
 363.474609375 304.127929688 l 1,4,-1
 359.21484375 306.354492188 l 2,5,6
 128.00390625 427.209960938 128.00390625 427.209960938 128.553710938 617.31640625 c 0,7,8
 128.997070312 740.26171875 128.997070312 740.26171875 211.850585938 837.80859375 c 0,9,10
 309.91796875 951.999023438 309.91796875 951.999023438 488.575195312 951.806640625 c 0,11,12
 643.256835938 951.998046875 643.256835938 951.998046875 761.5078125 851.813476562 c 1,13,-1
 706.408203125 727.330078125 l 1,14,15
 656.328125 753.91796875 656.328125 753.91796875 605.202148438 767.068359375 c 128,-1,16
 554.077148438 780.21875 554.077148438 780.21875 500.329101562 780.4375 c 0,17,18
 397.100585938 780.217773438 397.100585938 780.217773438 345.057617188 739.364257812 c 128,-1,19
 293.013671875 698.510742188 293.013671875 698.510742188 293.028320312 617.267578125 c 0,20,21
 293 490.7265625 293 490.7265625 516.926757812 386.237304688 c 2,22,-1
 517.5234375 385.958984375 l 1,23,-1
 798.5 442.704101562 l 1,24,-1
 798.5 274.477539062 l 1,25,26
 538.005859375 243.217773438 538.005859375 243.217773438 119.76953125 13.236328125 c 1,0,-1
EndSplineSet
Validated: 33
EndChar

StartChar: uni0627
Encoding: 1575 1575 15
GlifName: uni0627
Width: 1600
VWidth: 2950
GlyphClass: 2
Flags: W
AnchorPoint: "Anchor-10" 768.871 1525.46 basechar 0
AnchorPoint: "Anchor-7" 765.587 -210.365 basechar 0
LayerCount: 2
Fore
SplineSet
686.890625 1396.15039062 m 1,0,-1
 852.205078125 1396.15039062 l 1,1,-1
 852.205078125 0.751953125 l 1,2,-1
 686.890625 0.751953125 l 1,3,-1
 686.890625 1396.15039062 l 1,0,-1
EndSplineSet
Validated: 1
Substitution2: "'fina' Terminal Forms in Arabic lookup 9 subtable" uniFE8E
EndChar

StartChar: uni062D
Encoding: 1581 1581 21
GlifName: uni062D_
Width: 1600
VWidth: 2950
GlyphClass: 2
Flags: W
AnchorPoint: "Anchor-10" 791.478 1214.07 basechar 0
AnchorPoint: "Anchor-7" 766.833 -828.619 basechar 0
LayerCount: 2
Fore
SplineSet
944 535 m 1,0,1
 655 652 655 652 579 652 c 0,2,3
 484 652 484 652 357.9296875 503.7109375 c 1,4,-1
 232.118164062 610.26171875 l 1,5,6
 384 830 384 830 565 830 c 0,7,8
 655 830 655 830 972 702 c 0,9,10
 1199 610 1199 610 1349 601 c 1,11,-1
 1333.06445312 426.818359375 l 1,12,13
 1158 416 1158 416 1042.25 389.517578125 c 0,14,15
 433 247 433 247 433.249023438 -121.301757812 c 0,16,17
 433 -472 433 -472 966.381835938 -471.783203125 c 0,18,19
 1157 -472 1157 -472 1336.30664062 -387.446289062 c 1,20,-1
 1336.00195312 -570.739257812 l 1,21,22
 1184 -643 1184 -643 951.529296875 -643.249023438 c 0,23,24
 465 -643 465 -643 319.65234375 -367.3046875 c 0,25,26
 267 -267 267 -267 266.987304688 -136.852539062 c 0,27,28
 267 385 267 385 944 535 c 1,0,1
EndSplineSet
Validated: 33
Substitution2: "'fina' Terminal Forms in Arabic lookup 9 subtable" uniFEA2
Substitution2: "'medi' Medial Forms in Arabic lookup 11 subtable" uniFEA4
Substitution2: "'init' Initial Forms in Arabic lookup 13 subtable" uniFEA3
EndChar

StartChar: uni062F
Encoding: 1583 1583 23
GlifName: uni062F_
Width: 1600
VWidth: 2950
GlyphClass: 2
Flags: W
AnchorPoint: "Anchor-10" 702.137 1259.03 basechar 0
AnchorPoint: "Anchor-7" 757.24 -241.316 basechar 0
LayerCount: 2
Fore
SplineSet
432.982421875 204.750976562 m 1,0,1
 553 180 553 180 661.662109375 180.107421875 c 0,2,3
 1004 180 1004 180 1003.95410156 350.380859375 c 0,4,5
 1004 545 1004 545 635.498046875 776.791015625 c 1,6,-1
 706.952148438 939.935546875 l 1,7,8
 1177 656 1177 656 1176.47949219 352.899414062 c 0,9,10
 1176 3 1176 3 674.806640625 2.259765625 c 0,11,12
 539 2 539 2 432.982421875 25.462890625 c 1,13,-1
 432.982421875 204.750976562 l 1,0,1
EndSplineSet
Validated: 33
Substitution2: "'fina' Terminal Forms in Arabic lookup 9 subtable" uniFEAA
EndChar

StartChar: uni0631
Encoding: 1585 1585 25
GlifName: uni0631
Width: 1600
VWidth: 2186
GlyphClass: 2
Flags: W
AnchorPoint: "Anchor-10" 821.256 944.2 basechar 0
AnchorPoint: "Anchor-7" 582.969 -675.998 basechar 0
LayerCount: 2
Fore
SplineSet
875.469726562 159.633789062 m 0,0,1
 875.469726562 308.18359375 875.469726562 308.18359375 783.275390625 441.0234375 c 1,2,-1
 929.998046875 518.564453125 l 1,3,4
 1040.61816406 354.22265625 1040.61816406 354.22265625 1040.61816406 161.043945312 c 0,5,6
 1040.61816406 -398.5859375 1040.61816406 -398.5859375 360.046875 -465.592773438 c 1,7,-1
 330.650390625 -302.475585938 l 1,8,9
 875.469726562 -257.638671875 875.469726562 -257.638671875 875.469726562 159.633789062 c 0,0,1
EndSplineSet
Validated: 1
PairPos2: "'kern' Horizontal Kerning lookup 15-2" uniFBFE dx=60 dy=0 dh=60 dv=0 dx=0 dy=0 dh=0 dv=0
PairPos2: "'kern' Horizontal Kerning lookup 15-1" uniFEE7 dx=-178 dy=0 dh=-178 dv=0 dx=0 dy=0 dh=0 dv=0
PairPos2: "'kern' Horizontal Kerning lookup 15-2" uniFB90 dx=-226 dy=0 dh=-226 dv=0 dx=0 dy=0 dh=0 dv=0
PairPos2: "'kern' Horizontal Kerning lookup 15-2" uniFB8E dx=-226 dy=0 dh=-226 dv=0 dx=0 dy=0 dh=0 dv=0
PairPos2: "'kern' Horizontal Kerning lookup 15-2" uni06A9 dx=-226 dy=0 dh=-226 dv=0 dx=0 dy=0 dh=0 dv=0
PairPos2: "'kern' Horizontal Kerning lookup 15-2" uni064A dx=-60 dy=0 dh=-60 dv=0 dx=0 dy=0 dh=0 dv=0
PairPos2: "'kern' Horizontal Kerning lookup 15-2" afii57414 dx=-60 dy=0 dh=-60 dv=0 dx=0 dy=0 dh=0 dv=0
PairPos2: "'kern' Horizontal Kerning lookup 15-2" uni0649 dx=-60 dy=0 dh=-60 dv=0 dx=0 dy=0 dh=0 dv=0
PairPos2: "'kern' Horizontal Kerning lookup 15-2" uniFEEB dx=-178 dy=0 dh=-178 dv=0 dx=0 dy=0 dh=0 dv=0
PairPos2: "'kern' Horizontal Kerning lookup 15-2" uni0647 dx=-178 dy=0 dh=-178 dv=0 dx=0 dy=0 dh=0 dv=0
PairPos2: "'kern' Horizontal Kerning lookup 15-2" uni0646 dx=-60 dy=0 dh=-60 dv=0 dx=0 dy=0 dh=0 dv=0
PairPos2: "'kern' Horizontal Kerning lookup 15-2" uniFEE3 dx=-178 dy=0 dh=-178 dv=0 dx=0 dy=0 dh=0 dv=0
PairPos2: "'kern' Horizontal Kerning lookup 15-2" uni0645 dx=-178 dy=0 dh=-178 dv=0 dx=0 dy=0 dh=0 dv=0
PairPos2: "'kern' Horizontal Kerning lookup 15-2" uniFEFB dx=-143 dy=0 dh=-143 dv=0 dx=0 dy=0 dh=0 dv=0
PairPos2: "'kern' Horizontal Kerning lookup 15-2" uniFEDF dx=-143 dy=0 dh=-143 dv=0 dx=0 dy=0 dh=0 dv=0
PairPos2: "'kern' Horizontal Kerning lookup 15-2" uni0644 dx=-60 dy=0 dh=-60 dv=0 dx=0 dy=0 dh=0 dv=0
PairPos2: "'kern' Horizontal Kerning lookup 15-2" uniFEDB dx=-226 dy=0 dh=-226 dv=0 dx=0 dy=0 dh=0 dv=0
PairPos2: "'kern' Horizontal Kerning lookup 15-2" uni0643 dx=-143 dy=0 dh=-143 dv=0 dx=0 dy=0 dh=0 dv=0
PairPos2: "'kern' Horizontal Kerning lookup 15-2" uniFED7 dx=-178 dy=0 dh=-178 dv=0 dx=0 dy=0 dh=0 dv=0
PairPos2: "'kern' Horizontal Kerning lookup 15-2" uni0642 dx=-60 dy=0 dh=-60 dv=0 dx=0 dy=0 dh=0 dv=0
PairPos2: "'kern' Horizontal Kerning lookup 15-2" uniFED3 dx=-178 dy=0 dh=-178 dv=0 dx=0 dy=0 dh=0 dv=0
PairPos2: "'kern' Horizontal Kerning lookup 15-2" uni0641 dx=-178 dy=0 dh=-178 dv=0 dx=0 dy=0 dh=0 dv=0
PairPos2: "'kern' Horizontal Kerning lookup 15-2" uniFECF dx=-178 dy=0 dh=-178 dv=0 dx=0 dy=0 dh=0 dv=0
PairPos2: "'kern' Horizontal Kerning lookup 15-2" uniFECB dx=-178 dy=0 dh=-178 dv=0 dx=0 dy=0 dh=0 dv=0
PairPos2: "'kern' Horizontal Kerning lookup 15-2" uniFEC7 dx=-178 dy=0 dh=-178 dv=0 dx=0 dy=0 dh=0 dv=0
PairPos2: "'kern' Horizontal Kerning lookup 15-2" uni0638 dx=-178 dy=0 dh=-178 dv=0 dx=0 dy=0 dh=0 dv=0
PairPos2: "'kern' Horizontal Kerning lookup 15-2" uniFEC3 dx=-178 dy=0 dh=-178 dv=0 dx=0 dy=0 dh=0 dv=0
PairPos2: "'kern' Horizontal Kerning lookup 15-2" uni0637 dx=-178 dy=0 dh=-178 dv=0 dx=0 dy=0 dh=0 dv=0
PairPos2: "'kern' Horizontal Kerning lookup 15-2" uniFEBF dx=-178 dy=0 dh=-178 dv=0 dx=0 dy=0 dh=0 dv=0
PairPos2: "'kern' Horizontal Kerning lookup 15-2" uni0636 dx=-178 dy=0 dh=-178 dv=0 dx=0 dy=0 dh=0 dv=0
PairPos2: "'kern' Horizontal Kerning lookup 15-2" uniFEBB dx=-178 dy=0 dh=-178 dv=0 dx=0 dy=0 dh=0 dv=0
PairPos2: "'kern' Horizontal Kerning lookup 15-2" uni0635 dx=-178 dy=0 dh=-178 dv=0 dx=0 dy=0 dh=0 dv=0
PairPos2: "'kern' Horizontal Kerning lookup 15-2" uniFEB7 dx=-178 dy=0 dh=-178 dv=0 dx=0 dy=0 dh=0 dv=0
PairPos2: "'kern' Horizontal Kerning lookup 15-2" uni0634 dx=-178 dy=0 dh=-178 dv=0 dx=0 dy=0 dh=0 dv=0
PairPos2: "'kern' Horizontal Kerning lookup 15-2" uniFEB3 dx=-178 dy=0 dh=-178 dv=0 dx=0 dy=0 dh=0 dv=0
PairPos2: "'kern' Horizontal Kerning lookup 15-2" uni0633 dx=-178 dy=0 dh=-178 dv=0 dx=0 dy=0 dh=0 dv=0
PairPos2: "'kern' Horizontal Kerning lookup 15-2" uni0630 dx=-178 dy=0 dh=-178 dv=0 dx=0 dy=0 dh=0 dv=0
PairPos2: "'kern' Horizontal Kerning lookup 15-2" uni062F dx=-178 dy=0 dh=-178 dv=0 dx=0 dy=0 dh=0 dv=0
PairPos2: "'kern' Horizontal Kerning lookup 15-2" uniFEA7 dx=-178 dy=0 dh=-178 dv=0 dx=0 dy=0 dh=0 dv=0
PairPos2: "'kern' Horizontal Kerning lookup 15-2" uniFEA3 dx=-178 dy=0 dh=-178 dv=0 dx=0 dy=0 dh=0 dv=0
PairPos2: "'kern' Horizontal Kerning lookup 15-2" uniFE9F dx=-178 dy=0 dh=-178 dv=0 dx=0 dy=0 dh=0 dv=0
PairPos2: "'kern' Horizontal Kerning lookup 15-2" uniFE9B dx=-178 dy=0 dh=-178 dv=0 dx=0 dy=0 dh=0 dv=0
PairPos2: "'kern' Horizontal Kerning lookup 15-2" uni062B dx=-178 dy=0 dh=-178 dv=0 dx=0 dy=0 dh=0 dv=0
PairPos2: "'kern' Horizontal Kerning lookup 15-2" uniFE97 dx=-178 dy=0 dh=-178 dv=0 dx=0 dy=0 dh=0 dv=0
PairPos2: "'kern' Horizontal Kerning lookup 15-2" uni062A dx=-178 dy=0 dh=-178 dv=0 dx=0 dy=0 dh=0 dv=0
PairPos2: "'kern' Horizontal Kerning lookup 15-2" uni0629 dx=-178 dy=0 dh=-178 dv=0 dx=0 dy=0 dh=0 dv=0
PairPos2: "'kern' Horizontal Kerning lookup 15-2" uni0628 dx=-178 dy=0 dh=-178 dv=0 dx=0 dy=0 dh=0 dv=0
PairPos2: "'kern' Horizontal Kerning lookup 15-2" uni0627 dx=-143 dy=0 dh=-143 dv=0 dx=0 dy=0 dh=0 dv=0
PairPos2: "'kern' Horizontal Kerning lookup 15-2" uni0623 dx=-143 dy=0 dh=-143 dv=0 dx=0 dy=0 dh=0 dv=0
PairPos2: "'kern' Horizontal Kerning lookup 15-2" uni0622 dx=-143 dy=0 dh=-143 dv=0 dx=0 dy=0 dh=0 dv=0
PairPos2: "'kern' Horizontal Kerning lookup 15-2" uni0621 dx=-178 dy=0 dh=-178 dv=0 dx=0 dy=0 dh=0 dv=0
PairPos2: "'kern' Horizontal Kerning lookup 15-2" uniFB94 dx=-226 dy=0 dh=-226 dv=0 dx=0 dy=0 dh=0 dv=0
PairPos2: "'kern' Horizontal Kerning lookup 15-2" uniFB92 dx=-226 dy=0 dh=-226 dv=0 dx=0 dy=0 dh=0 dv=0
PairPos2: "'kern' Horizontal Kerning lookup 15-2" uni06AF dx=-226 dy=0 dh=-226 dv=0 dx=0 dy=0 dh=0 dv=0
PairPos2: "'kern' Horizontal Kerning lookup 15-2" afii57506 dx=-178 dy=0 dh=-178 dv=0 dx=0 dy=0 dh=0 dv=0
PairPos2: "'kern' Horizontal Kerning lookup 15-2" afii57440 dx=-178 dy=0 dh=-178 dv=0 dx=0 dy=0 dh=0 dv=0
PairPos2: "'kern' Horizontal Kerning lookup 15-2" uniFE8B dx=-178 dy=0 dh=-178 dv=0 dx=0 dy=0 dh=0 dv=0
Substitution2: "'fina' Terminal Forms in Arabic lookup 9 subtable" uniFEAE
EndChar

StartChar: uni0633
Encoding: 1587 1587 27
GlifName: uni0633
Width: 1600
VWidth: 2950
GlyphClass: 2
Flags: W
AnchorPoint: "Anchor-10" 950.53 1055.1 basechar 0
AnchorPoint: "Anchor-7" 31.902 -704.086 basechar 0
LayerCount: 2
Fore
SplineSet
60.99609375 -467.998046875 m 0,0,1
 -60 -468 -60 -468 -199.00390625 -396.170898438 c 0,2,3
 -456 -263 -456 -263 -455.247070312 99.041015625 c 0,4,5
 -455 257 -455 257 -389.54296875 446.122070312 c 1,6,-1
 -231.09765625 400.791992188 l 1,7,8
 -285 233 -285 233 -284.731445312 100.861328125 c 0,9,10
 -285 -296 -285 -296 74.3984375 -296.201171875 c 0,11,12
 426 -296 426 -296 427.60546875 165.9453125 c 0,13,14
 428 296 428 296 369.19921875 466.825195312 c 1,15,-1
 535.96875 507.435546875 l 1,16,-1
 566.848632812 376.262695312 l 2,17,18
 613 180 613 180 713.500976562 179.9921875 c 0,19,20
 942.147241162 180.000005034 942.147241162 180.000005034 960.8125 380.504882812 c 2,21,-1
 975.696289062 540.388671875 l 1,22,-1
 1096.74707031 540.388671875 l 1,23,-1
 1111.63085938 380.442382812 l 2,24,25
 1130 182 1130 182 1214.91992188 180.418945312 c 8,26,27
 1373 179 1373 179 1371.52050781 420.115234375 c 0,28,29
 1371 526 1371 526 1343.828125 646.545898438 c 1,30,-1
 1506.90820312 676.541992188 l 1,31,32
 1533 540 1533 540 1533.13085938 423.862304688 c 0,33,34
 1532 1 1532 1 1220.16210938 0.912109375 c 16,35,36
 1102 1 1102 1 1036.60449219 133.032226562 c 1,37,38
 942 0 942 0 711.807617188 -0.0810546875 c 0,39,40
 660 -0 660 -0 588.264648438 58.376953125 c 1,41,42
 573 -124 573 -124 484 -251.666992188 c 0,43,44
 331 -468 331 -468 60.99609375 -467.998046875 c 0,0,1
EndSplineSet
Validated: 33
Substitution2: "'fina' Terminal Forms in Arabic lookup 9 subtable" uniFEB2
Substitution2: "'medi' Medial Forms in Arabic lookup 11 subtable" uniFEB4
Substitution2: "'init' Initial Forms in Arabic lookup 13 subtable" uniFEB3
EndChar

StartChar: uni0635
Encoding: 1589 1589 29
GlifName: uni0635
Width: 1600
VWidth: 2950
GlyphClass: 2
Flags: W
AnchorPoint: "Anchor-7" 181.902 -704.086 basechar 0
AnchorPoint: "Anchor-10" 1342.53 1210.1 basechar 0
LayerCount: 2
Fore
SplineSet
209.99609375 -467.998046875 m 0,0,1
 40 -468 40 -468 -99.00390625 -396.170898438 c 0,2,3
 -356 -263 -356 -263 -355.247070312 99.041015625 c 0,4,5
 -355 257 -355 257 -289.54296875 446.122070312 c 1,6,-1
 -131.09765625 400.791992188 l 1,7,8
 -185 233 -185 233 -184.731445312 100.861328125 c 0,9,10
 -184 -294 -184 -294 224.3984375 -296.201171875 c 24,11,12
 526 -298 526 -298 527.60546875 164.9453125 c 0,13,14
 528 295 528 295 469.19921875 465.825195312 c 1,15,-1
 635.96875 506.435546875 l 1,16,-1
 666.848632812 375.262695312 l 2,17,18
 705 213 705 213 755.069335938 209.352539062 c 1,19,20
 917 722 917 722 1142.76953125 721.423828125 c 0,21,22
 1389 721 1389 721 1452.79882812 627.892578125 c 0,23,24
 1553 485 1553 485 1552.59667969 425.791015625 c 0,25,26
 1552 0 1552 0 1093.15136719 0 c 2,27,-1
 1042.34082031 0 l 2,28,29
 804 0 804 0 687.264648438 58.376953125 c 1,30,31
 672 -124 672 -124 583 -251.666992188 c 0,32,33
 432 -468 432 -468 209.99609375 -467.998046875 c 0,0,1
1074 503 m 0,34,35
 1018 453 1018 453 941.002929688 180.416992188 c 1,36,-1
 1098.75585938 180.534179688 l 2,37,38
 1372.99807667 180.737901799 1372.99807667 180.737901799 1374.66113281 407.368164062 c 0,39,40
 1375 447 1375 447 1316 499 c 0,41,42
 1191.01492537 607.47761194 1191.01492537 607.47761194 1074 503 c 0,34,35
EndSplineSet
Validated: 33
Substitution2: "'fina' Terminal Forms in Arabic lookup 9 subtable" uniFEBA
Substitution2: "'medi' Medial Forms in Arabic lookup 11 subtable" uniFEBC
Substitution2: "'init' Initial Forms in Arabic lookup 13 subtable" uniFEBB
EndChar

StartChar: uni0637
Encoding: 1591 1591 31
GlifName: uni0637
Width: 1600
VWidth: 2950
GlyphClass: 2
Flags: W
AnchorPoint: "Anchor-10" 481.36 1544.58 basechar 0
AnchorPoint: "Anchor-7" 641.602 -238.453 basechar 0
LayerCount: 2
Fore
SplineSet
566.946289062 520.520507812 m 1,0,1
 767 771 767 771 987.846679688 771.423828125 c 0,2,3
 1202 771 1202 771 1307.87597656 617.892578125 c 0,4,5
 1368 531 1368 531 1367.67382812 415.791015625 c 0,6,7
 1367 0 1367 0 658.228515625 0 c 2,8,-1
 103.302734375 0 l 1,9,-1
 103.302734375 180.22265625 l 1,10,-1
 321.827148438 180.376953125 l 1,11,-1
 323.5546875 180.377929688 l 1,12,-1
 324.70703125 180.37890625 l 1,13,-1
 400.927734375 298.1328125 l 1,14,-1
 401.6328125 299.315429688 l 1,15,-1
 401.6328125 1396.87402344 l 1,16,-1
 566.946289062 1396.87402344 l 1,17,-1
 566.946289062 520.520507812 l 1,0,1
326.107421875 182.795898438 m 1,18,-1
 326.107421875 182.795898438 l 1,18,-1
663.833007812 180.534179688 m 2,19,20
 1188.99841055 180.534179688 1188.99841055 180.534179688 1189.73828125 397.368164062 c 0,21,22
 1190 483 1190 483 1132 536 c 128,-1,23
 1074 589 1074 589 987.399414062 588.573242188 c 0,24,25
 766 589 766 589 506.114257812 180.534179688 c 1,26,-1
 663.833007812 180.534179688 l 2,19,20
EndSplineSet
Validated: 33
Substitution2: "'fina' Terminal Forms in Arabic lookup 9 subtable" uniFEC2
Substitution2: "'medi' Medial Forms in Arabic lookup 11 subtable" uniFEC4
Substitution2: "'init' Initial Forms in Arabic lookup 13 subtable" uniFEC3
EndChar

StartChar: uni0639
Encoding: 1593 1593 33
GlifName: uni0639
Width: 1600
VWidth: 2950
GlyphClass: 2
Flags: W
AnchorPoint: "Anchor-10" 877.478 1324.07 basechar 0
AnchorPoint: "Anchor-7" 776.833 -828.619 basechar 0
LayerCount: 2
Fore
SplineSet
649.1328125 405.220703125 m 1,0,1
 521 553 521 553 520.999023438 694.995117188 c 1,2,3
 520.999023438 837.196289062 520.999023438 837.196289062 627.4296875 949.09765625 c 128,-1,4
 733.860351562 1060.99902344 733.860351562 1060.99902344 908.106445312 1060.99902344 c 128,-1,5
 1082.35546875 1060.99804688 1082.35546875 1060.99804688 1232.21386719 939.09765625 c 1,6,-1
 1167.42773438 793.243164062 l 1,7,8
 1028.47070312 881.583007812 1028.47070312 881.583007812 925.83984375 881.583007812 c 0,9,10
 797.623046875 881.583007812 797.623046875 881.583007812 737.158203125 782.436523438 c 0,11,12
 706.985351562 733.54296875 706.985351562 733.54296875 706.985351562 681.625976562 c 0,13,14
 706.985351562 635.56640625 706.985351562 635.56640625 730.733398438 587.126953125 c 0,15,16
 753.333007812 541.862304688 753.333007812 541.862304688 817.16015625 459.822265625 c 1,17,18
 986.459960938 489.526367188 986.459960938 489.526367188 1136.73925781 489.526367188 c 0,19,20
 1216.94921875 489.526367188 1216.94921875 489.526367188 1291.74023438 481.064453125 c 1,21,-1
 1291.74023438 309.766601562 l 1,22,23
 1227.25 312.184570312 1227.25 312.184570312 1167.42382812 312.184570312 c 0,24,25
 432.998046875 312.184570312 432.998046875 312.184570312 433.249023438 -111.301757812 c 0,26,27
 432.999023438 -471.645507812 432.999023438 -471.645507812 967.3515625 -471.784179688 c 0,28,29
 1157.26269531 -471.784179688 1157.26269531 -471.784179688 1336.30664062 -387.446289062 c 1,30,-1
 1336.00195312 -570.739257812 l 1,31,32
 1184.37695312 -643.001953125 1184.37695312 -643.001953125 951.529296875 -643.249023438 c 0,33,34
 414.071289062 -642.912109375 414.071289062 -642.912109375 296.609375 -312.837890625 c 0,35,36
 266.987304688 -229.596679688 266.987304688 -229.596679688 266.987304688 -126.852539062 c 0,37,38
 266.987304688 248.717773438 266.987304688 248.717773438 649.1328125 405.220703125 c 1,0,1
EndSplineSet
Validated: 33
Substitution2: "'fina' Terminal Forms in Arabic lookup 9 subtable" uniFECA
Substitution2: "'medi' Medial Forms in Arabic lookup 11 subtable" uniFECC
Substitution2: "'init' Initial Forms in Arabic lookup 13 subtable" uniFECB
EndChar

StartChar: afii57440
Encoding: 1600 1600 35
GlifName: afii57440
Width: 1600
VWidth: 2950
GlyphClass: 2
Flags: W
AnchorPoint: "Anchor-10" 713.774 918.11 basechar 0
AnchorPoint: "Anchor-7" 721.7 -188.739 basechar 0
LayerCount: 2
Fore
SplineSet
1632.77148438 86.3203125 m 6,0,1
 1632.77148438 0 1632.77148438 0 1614.69140625 0 c 6,2,-1
 -6.9384765625 0 l 2,3,4
 -62.7783203125 0 -62.7783203125 0 -62.7783203125 86.3134765625 c 2,5,-1
 -62.7783203125 105.198242188 l 2,6,7
 -62.9999971059 179.999023438 -62.9999971059 179.999023438 -6.9384765625 179.999023438 c 2,8,-1
 1614.64453125 179.999023438 l 6,9,10
 1632.77148438 179.999987842 1632.77148438 179.999987842 1632.77148438 105.174804688 c 6,11,-1
 1632.77148438 86.3203125 l 6,0,1
EndSplineSet
EndChar

StartChar: uni0643
Encoding: 1603 1603 38
GlifName: uni0643
Width: 1600
VWidth: 2950
GlyphClass: 2
Flags: W
AnchorPoint: "Anchor-7" 750.268 -238.468 basechar 0
AnchorPoint: "Anchor-10" 864.671 1448.06 basechar 0
LayerCount: 2
Fore
SplineSet
1012.13378906 0 m 2,0,1
 1012.13378906 0 1012.13378906 0 843.061523438 0 c 2,2,3
 106 0 106 0 106.16015625 463.875 c 0,4,5
 106 563 106 563 133.489257812 685 c 1,6,-1
 289.356445312 655 l 1,7,8
 271 569 271 569 271.424804688 482.515625 c 0,9,10
 273.001759192 180.663264639 273.001759192 180.663264639 843.061523438 179.993164062 c 18,11,-1
 1025 179.779296875 l 2,12,13
 1376 179 1376 179 1368.82910156 449.983398438 c 1,14,-1
 1368.82910156 1396.56640625 l 1,15,-1
 1537.70996094 1396.56640625 l 1,16,-1
 1537.70996094 452.336914062 l 2,17,18
 1538 0 1538 0 1012.13378906 0 c 2,0,1
649.720703125 611.796875 m 1,19,20
 742 602 742 602 810.09765625 601.272460938 c 0,21,22
 922 601 922 601 970.83203125 623.0625 c 0,23,24
 984 629 984 629 994.674804688 635.883789062 c 0,25,26
 1005 643 1005 643 1011.92578125 651.921875 c 128,-1,27
 1019 661 1019 661 1022.50683594 671.1875 c 0,28,29
 1026 682 1026 682 1026.30761719 693.626953125 c 0,30,31
 1026 716 1026 716 1018.61523438 733.365234375 c 0,32,33
 1011 751 1011 751 995.103515625 764.049804688 c 0,34,35
 980 778 980 778 956.668945312 786.34375 c 0,36,37
 934 795 934 795 902.94140625 799.435546875 c 0,38,39
 691 832 691 832 694.490234375 1010.44921875 c 0,40,41
 699 1214 699 1214 1083.17089844 1243.40429688 c 1,42,-1
 1083.17089844 1118.81738281 l 1,43,44
 954 1107 954 1107 888.60546875 1077.80566406 c 0,45,46
 824 1049 824 1049 823.700195312 1002.45507812 c 0,47,48
 824 926 824 926 964.171875 904.786132812 c 0,49,50
 1060 890 1060 890 1107.68066406 838.440429688 c 0,51,52
 1155 787 1155 787 1154.92480469 698.138671875 c 0,53,54
 1155 578 1155 578 1037 514 c 0,55,56
 962 473 962 473 827.55859375 473.094726562 c 0,57,58
 749 473 749 473 649.720703125 488.088867188 c 1,59,-1
 649.720703125 611.796875 l 1,19,20
EndSplineSet
Validated: 33
Substitution2: "'fina' Terminal Forms in Arabic lookup 9 subtable" uniFEDA
Substitution2: "'medi' Medial Forms in Arabic lookup 11 subtable" uniFEDC
Substitution2: "'init' Initial Forms in Arabic lookup 13 subtable" uniFEDB
EndChar

StartChar: uni0644
Encoding: 1604 1604 39
GlifName: uni0644
Width: 1600
VWidth: 2950
GlyphClass: 2
Flags: W
AnchorPoint: "Anchor-7" 677.902 -658.086 basechar 0
AnchorPoint: "Anchor-10" 645.908 1003.66 basechar 0
LayerCount: 2
Fore
SplineSet
708.229492188 -246.216796875 m 0,0,1
 1095.55830859 -246.99910789 1095.55830859 -246.99910789 1096.60449219 147.798828125 c 2,2,-1
 1099.91210938 1395.99316406 l 1,3,-1
 1265.88476562 1395.99316406 l 1,4,-1
 1265.18554688 167.32421875 l 2,5,6
 1265 -420 1265 -420 707.329101562 -416.724609375 c 24,7,8
 444 -415 444 -415 305 -327.9921875 c 0,9,10
 103 -201 103 -201 103.752929688 99.041015625 c 0,11,12
 104 257 104 257 169.45703125 446.122070312 c 1,13,-1
 328.90234375 400.791992188 l 1,14,15
 275 233 275 233 275.268554688 100.861328125 c 0,16,17
 275 -246 275 -246 708.229492188 -246.216796875 c 0,0,1
EndSplineSet
Validated: 33
Substitution2: "'fina' Terminal Forms in Arabic lookup 9 subtable" uniFEDE
Substitution2: "'medi' Medial Forms in Arabic lookup 11 subtable" uniFEE0
Substitution2: "'init' Initial Forms in Arabic lookup 13 subtable" uniFEDF
EndChar

StartChar: uni0645
Encoding: 1605 1605 40
GlifName: uni0645
Width: 1600
VWidth: 2620
GlyphClass: 2
Flags: W
AnchorPoint: "Anchor-7" 948.983 -292.909 basechar 0
AnchorPoint: "Anchor-10" 921.239 1132.48 basechar 0
LayerCount: 2
Fore
SplineSet
629.346679688 147.747070312 m 0,0,1
 477 146 477 146 477.751953125 -290.002929688 c 0,2,3
 478 -485 478 -485 491.634765625 -644.813476562 c 1,4,-1
 322.107421875 -644.813476562 l 1,5,6
 311 -473 311 -473 310.9765625 -316 c 0,7,8
 311 10 311 10 389.782226562 166.091796875 c 0,9,10
 470.0390625 324.077148438 470.0390625 324.077148438 598.060546875 346.029296875 c 2,11,-1
 599.381835938 346.255859375 l 1,12,-1
 599.673828125 347.564453125 l 2,13,14
 633 496 633 496 696.586914062 579.44921875 c 0,15,16
 796 709 796 709 957.333007812 709.532226562 c 0,17,18
 1125 710 1125 710 1230.86230469 576.84765625 c 0,19,20
 1313 474 1313 474 1312.47460938 309.612304688 c 0,21,22
 1312 162 1312 162 1220 72 c 0,23,24
 1140 -7 1140 -7 1006.20703125 -7.2431640625 c 0,25,26
 851 -7 851 -7 745.3515625 82.3974609375 c 0,27,28
 668 148 668 148 629.346679688 147.747070312 c 0,0,1
990.724609375 166.75 m 0,29,30
 1092 167 1092 167 1131.7421875 238.0625 c 0,31,32
 1149 269 1149 269 1149.86425781 306.965820312 c 0,33,34
 1151 356 1151 356 1131.57421875 405.76171875 c 0,35,36
 1105 474 1105 474 1052.02734375 505.3359375 c 0,37,38
 1012 529 1012 529 960.611328125 529.158203125 c 0,39,40
 795.862304688 529 795.862304688 529 767.557617188 310.28515625 c 2,41,-1
 767.4609375 309.538085938 l 1,42,-1
 767.880859375 308.913085938 l 2,43,44
 863 167 863 167 990.724609375 166.75 c 0,29,30
EndSplineSet
Validated: 33
Substitution2: "'init' Initial Forms in Arabic lookup 13 subtable" uniFEE3
Substitution2: "'medi' Medial Forms in Arabic lookup 11 subtable" uniFEE4
Substitution2: "'fina' Terminal Forms in Arabic lookup 9 subtable" uniFEE2
EndChar

StartChar: uni0647
Encoding: 1607 1607 42
GlifName: uni0647
Width: 1600
VWidth: 2950
GlyphClass: 2
Flags: W
AnchorPoint: "Anchor-10" 728.775 1227.01 basechar 0
AnchorPoint: "Anchor-7" 760.63 -242.576 basechar 0
LayerCount: 2
Fore
SplineSet
770.549804688 643.671875 m 2,0,1
 580.000976562 476.908203125 580.000976562 476.908203125 579.884765625 348.98828125 c 0,2,3
 580.000976562 181 580.000976562 181 785.345703125 180.9921875 c 0,4,5
 993.006835938 181 993.006835938 181 992.423828125 350.155273438 c 0,6,7
 991.99609375 468.96484375 991.99609375 468.96484375 773.115234375 643.729492188 c 2,8,-1
 771.80859375 644.7734375 l 1,9,-1
 770.549804688 643.671875 l 2,0,1
703 927 m 1,10,11
 1159 603 1159 603 1158.79199219 344.375 c 0,12,13
 1159 184 1159 184 1043 87 c 0,14,15
 943.6953125 4.41015625 943.6953125 4.41015625 786.047851562 4.1943359375 c 0,16,17
 644 4 644 4 549 69 c 0,18,19
 415 160 415 160 413.368164062 343.791992188 c 0,20,21
 412 532 412 532 635.002929688 758.74609375 c 1,22,-1
 633.083007812 760.141601562 l 1,23,-1
 603.448242188 781.692382812 l 1,24,-1
 703 927 l 1,10,11
EndSplineSet
Validated: 33
Substitution2: "'fina' Terminal Forms in Arabic lookup 9 subtable" uniFEEA
Substitution2: "'medi' Medial Forms in Arabic lookup 11 subtable" uniFEEC
Substitution2: "'init' Initial Forms in Arabic lookup 13 subtable" uniFEEB
EndChar

StartChar: uni0648
Encoding: 1608 1608 43
GlifName: uni0648
Width: 1600
VWidth: 2142
GlyphClass: 2
Flags: W
AnchorPoint: "Anchor-7" 692.969 -675.998 basechar 0
AnchorPoint: "Anchor-10" 769.256 1142.2 basechar 0
LayerCount: 2
Fore
SplineSet
1067.07617188 531.661132812 m 0,0,1
 1123 416 1123 416 1138.40429688 263 c 0,2,3
 1144 207 1144 207 1144.06542969 155 c 0,4,5
 1144 -79 1144 -79 1027 -222.810546875 c 0,6,7
 861 -427 861 -427 467.046875 -465.592773438 c 1,8,-1
 437.650390625 -302.475585938 l 1,9,10
 877 -268 877 -268 958.123046875 0 c 1,11,-1
 900.192382812 0.8115234375 l 2,12,13
 470 7 470 7 470.004882812 332.353515625 c 0,14,15
 470 486 470 486 556.5625 595.634765625 c 0,16,17
 644 705 644 705 788.104492188 705.077148438 c 0,18,19
 983 705 983 705 1067.07617188 531.661132812 c 0,0,1
972.625976562 182.731445312 m 2,20,21
 950.534179688 525 950.534179688 525 787.401367188 525.124023438 c 0,22,23
 714 525 714 525 672.392578125 469.725585938 c 0,24,25
 633 416 633 416 633.159179688 344.564453125 c 0,26,27
 633 184.185546875 633 184.185546875 898.935546875 181.36328125 c 2,28,-1
 970.611328125 180.602539062 l 1,29,-1
 972.764648438 180.583007812 l 1,30,-1
 972.625976562 182.731445312 l 2,20,21
EndSplineSet
Validated: 33
Substitution2: "'fina' Terminal Forms in Arabic lookup 9 subtable" uniFEEE
EndChar

StartChar: uni0649
Encoding: 1609 1609 44
GlifName: uni0649
Width: 1600
VWidth: 2950
GlyphClass: 2
Flags: MW
AnchorPoint: "Anchor-10" 676.6 1048.22 basechar 0
AnchorPoint: "Anchor-7" 740.902 -632.086 basechar 0
LayerCount: 2
Fore
SplineSet
802.405273438 -227.203125 m 0,0,1
 1039 -226 1039 -226 1157 -133 c 0,2,3
 1244 -65 1244 -65 1252.55175781 31.4140625 c 1,4,5
 1253.99902344 95.9580078125 1253.99902344 95.9580078125 1162.59667969 97.0146484375 c 2,6,-1
 1082.03417969 97.9462890625 l 2,7,8
 845 101 845 101 842 316.024414062 c 0,9,10
 839 560 839 560 1028.10351562 685.374023438 c 0,11,12
 1166 777 1166 777 1405.37304688 781.505859375 c 1,13,-1
 1405.07714844 592.713867188 l 1,14,15
 1146 590 1146 590 1052.43652344 459.66796875 c 0,16,17
 1012 404 1012 404 1013.30371094 329.970703125 c 0,18,19
 1013.99902344 280.075195312 1013.99902344 280.075195312 1075.99804688 280.037109375 c 2,20,-1
 1137 280 l 2,21,22
 1424 280 1424 280 1422.64941406 68 c 0,23,24
 1422 -101 1422 -101 1310 -220 c 0,25,26
 1145 -397 1145 -397 795.326171875 -397.724609375 c 0,27,28
 575 -398 575 -398 429 -312.764648438 c 0,29,30
 201 -179 201 -179 201.752929688 149.041015625 c 0,31,32
 202 352 202 352 268.5546875 547.330078125 c 1,33,-1
 427 502 l 1,34,35
 373 322 373 322 373.268554688 150.861328125 c 0,36,37
 373 -230 373 -230 802.405273438 -227.203125 c 0,0,1
EndSplineSet
Validated: 33
Substitution2: "'fina' Terminal Forms in Arabic lookup 9 subtable" uniFEF0
Substitution2: "'medi' Medial Forms in Arabic lookup 11 subtable" uniFBE9
Substitution2: "'init' Initial Forms in Arabic lookup 13 subtable" uniFBE8
EndChar

StartChar: uni064B
Encoding: 1611 1611 46
GlifName: uni064B_
Width: 1600
VWidth: 2314
GlyphClass: 4
Flags: W
AnchorPoint: "Anchor-10" 593.551 1111.65 mark 0
AnchorPoint: "Anchor-9" 593.551 1111.65 mark 0
AnchorPoint: "Anchor-1" 553.285 1664.25 basemark 0
AnchorPoint: "Anchor-1" 593.551 1111.65 mark 0
LayerCount: 2
Fore
SplineSet
328.700195312 1077.37988281 m 1,0,-1
 328.700195312 1176.63476562 l 1,1,-1
 780.099609375 1361.29882812 l 1,2,-1
 780.099609375 1262.04296875 l 1,3,-1
 328.700195312 1077.37988281 l 1,0,-1
328.700195312 1329.37988281 m 1,4,-1
 328.700195312 1428.63476562 l 1,5,-1
 780.099609375 1613.29882812 l 1,6,-1
 780.099609375 1514.04296875 l 1,7,-1
 328.700195312 1329.37988281 l 1,4,-1
EndSplineSet
Validated: 1
EndChar

StartChar: uni064C
Encoding: 1612 1612 47
GlifName: uni064C_
Width: 1600
VWidth: 2314
GlyphClass: 4
Flags: W
AnchorPoint: "Anchor-10" 672.906 1228.67 mark 0
AnchorPoint: "Anchor-9" 672.906 1228.67 mark 0
AnchorPoint: "Anchor-1" 571.739 1913.46 basemark 0
AnchorPoint: "Anchor-1" 672.906 1228.67 mark 0
LayerCount: 2
Fore
SplineSet
586.173828125 1716.4921875 m 0,0,1
 566.006835938 1692.74316406 566.006835938 1692.74316406 565.713867188 1662.09765625 c 0,2,3
 566 1604.08984375 566 1604.08984375 632.806640625 1576.00195312 c 1,4,-1
 707.20703125 1550.91699219 l 1,5,-1
 708.70703125 1550.46875 l 1,6,-1
 709.501953125 1551.81738281 l 2,7,8
 713.423828125 1558.46875 713.423828125 1558.46875 716.788085938 1565.15917969 c 128,-1,9
 720.151367188 1571.84960938 720.151367188 1571.84960938 722.95703125 1578.58105469 c 128,-1,10
 725.762695312 1585.3125 725.762695312 1585.3125 728.008789062 1592.08007812 c 128,-1,11
 730.25390625 1598.84765625 730.25390625 1598.84765625 731.940429688 1605.65527344 c 128,-1,12
 733.625976562 1612.46191406 733.625976562 1612.46191406 734.750976562 1619.30371094 c 128,-1,13
 735.875976562 1626.14550781 735.875976562 1626.14550781 736.438476562 1633.02636719 c 128,-1,14
 737.001953125 1639.90722656 737.001953125 1639.90722656 737.001953125 1646.8203125 c 0,15,16
 737 1747.01757812 737 1747.01757812 654.286132812 1746.29394531 c 0,17,18
 611.065429688 1745.99316406 611.065429688 1745.99316406 586.173828125 1716.4921875 c 0,0,1
316.834960938 1510.47949219 m 1,19,20
 319 1397 319 1397 353.145507812 1340.97363281 c 0,21,22
 388 1284 388 1284 452.557617188 1285.27539062 c 0,23,24
 489 1286 489 1286 526.092773438 1304.51953125 c 128,-1,25
 563 1323 563 1323 601.911132812 1360.67773438 c 0,26,27
 624 1383 624 1383 645.416015625 1413.41210938 c 0,28,29
 667.06062069 1445.08871762 667.06062069 1445.08871762 686.413085938 1483.27929688 c 2,30,-1
 687.588867188 1485.59960938 l 1,31,-1
 685.043945312 1486.13964844 l 1,32,-1
 655.4609375 1492.41796875 l 2,33,34
 642 1495 642 1495 624.004882812 1500.30371094 c 0,35,36
 609 1505 609 1505 596.099609375 1509.64355469 c 0,37,38
 583 1515 583 1515 571.752929688 1520.41894531 c 0,39,40
 560 1526 560 1526 550.936523438 1532.62402344 c 0,41,42
 541 1539 541 1539 533.661132812 1546.23730469 c 0,43,44
 526 1553 526 1553 519.903320312 1561.25292969 c 0,45,46
 504 1582 504 1582 495.96484375 1605.43066406 c 0,47,48
 488 1628 488 1628 488 1653.09960938 c 0,49,50
 488 1704 488 1704 504.84765625 1736.78417969 c 0,51,52
 527 1779 527 1779 562.822265625 1800.0859375 c 0,53,54
 599 1821 599 1821 650.19140625 1821.4140625 c 0,55,56
 721 1822 721 1822 763.80078125 1780.84375 c 0,57,58
 811 1735 811 1735 811.390625 1648.359375 c 0,59,60
 811.994958365 1608.33391134 811.994958365 1608.33391134 789.83203125 1539.734375 c 2,61,-1
 789.032226562 1537.25878906 l 1,62,-1
 791.630859375 1537.12207031 l 1,63,-1
 821.76171875 1535.54003906 l 2,64,65
 851 1534 851 1534 878.497070312 1533.55273438 c 1,66,-1
 878.497070312 1459.05859375 l 1,67,68
 840.619192712 1459.98485828 840.619192712 1459.98485828 830.08203125 1460.99804688 c 2,69,-1
 753.91015625 1468.32226562 l 1,70,-1
 752.432617188 1468.46386719 l 1,71,-1
 751.869140625 1467.09082031 l 2,72,73
 737 1430 737 1430 716.833984375 1397.07910156 c 0,74,75
 697 1364 697 1364 668.5 1341 c 128,-1,76
 640 1318 640 1318 610.720703125 1292.63769531 c 0,77,78
 540 1230 540 1230 535.689941406 1228.37646484 c 0,79,80
 496 1211 496 1211 453.668945312 1210.96386719 c 0,81,82
 362 1210 362 1210 315.0625 1285.16308594 c 0,83,84
 268 1360 268 1360 265.181640625 1510.47949219 c 1,85,-1
 316.834960938 1510.47949219 l 1,19,20
EndSplineSet
Validated: 33
EndChar

StartChar: uni064D
Encoding: 1613 1613 48
GlifName: uni064D_
Width: 1600
VWidth: 2314
GlyphClass: 4
Flags: W
AnchorPoint: "Anchor-7" 532.278 35.7109 mark 0
AnchorPoint: "Anchor-6" 532.278 35.7109 mark 0
AnchorPoint: "Anchor-0" 592.022 -449.025 basemark 0
AnchorPoint: "Anchor-0" 532.278 35.7109 mark 0
LayerCount: 2
Fore
SplineSet
334.099609375 -485.020507812 m 1,0,-1
 334.099609375 -385.765625 l 1,1,-1
 785.5 -201.1015625 l 1,2,-1
 785.5 -300.357421875 l 1,3,-1
 334.099609375 -485.020507812 l 1,0,-1
334.099609375 -233.020507812 m 1,4,-1
 334.099609375 -133.765625 l 1,5,-1
 785.5 50.8984375 l 1,6,-1
 785.5 -48.357421875 l 1,7,-1
 334.099609375 -233.020507812 l 1,4,-1
EndSplineSet
Validated: 1
EndChar

StartChar: uni064E
Encoding: 1614 1614 49
GlifName: uni064E_
Width: 1600
VWidth: 2314
GlyphClass: 4
Flags: W
AnchorPoint: "Anchor-10" 557.66 1370.63 mark 0
AnchorPoint: "Anchor-9" 557.66 1370.63 mark 0
AnchorPoint: "Anchor-1" 541.396 1689.77 basemark 0
AnchorPoint: "Anchor-1" 557.66 1370.63 mark 0
LayerCount: 2
Fore
SplineSet
298.099609375 1350.07910156 m 1,0,-1
 298.099609375 1449.33496094 l 1,1,-1
 749.5 1633.99902344 l 1,2,-1
 749.5 1534.74316406 l 1,3,-1
 298.099609375 1350.07910156 l 1,0,-1
EndSplineSet
Validated: 1
EndChar

StartChar: uni064F
Encoding: 1615 1615 50
GlifName: uni064F_
Width: 1600
VWidth: 2314
GlyphClass: 4
Flags: W
AnchorPoint: "Anchor-10" 601.295 1307.37 mark 0
AnchorPoint: "Anchor-9" 601.295 1307.37 mark 0
AnchorPoint: "Anchor-1" 580.134 1918.4 basemark 0
AnchorPoint: "Anchor-1" 601.295 1307.37 mark 0
LayerCount: 2
Fore
SplineSet
820.65234375 1474.00292969 m 1,0,1
 805.640625 1474.02832031 805.640625 1474.02832031 792.26953125 1474.34667969 c 128,-1,2
 778.897460938 1474.66503906 778.897460938 1474.66503906 766.923828125 1475.28710938 c 128,-1,3
 754.94921875 1475.90820312 754.94921875 1475.90820312 744.35546875 1476.828125 c 128,-1,4
 733.76171875 1477.74707031 733.76171875 1477.74707031 724.2578125 1478.98339844 c 2,5,-1
 692.940429688 1483.05664062 l 1,6,-1
 691.748046875 1483.21191406 l 1,7,-1
 691.051757812 1482.23144531 l 2,8,9
 657.923828125 1435.59277344 657.923828125 1435.59277344 618.232421875 1399.84179688 c 128,-1,10
 578.540039062 1364.09082031 578.540039062 1364.09082031 532.23828125 1339.19335938 c 128,-1,11
 485.936523438 1314.29492188 485.936523438 1314.29492188 433.052734375 1300.20605469 c 128,-1,12
 380.16796875 1286.11816406 380.16796875 1286.11816406 320.57421875 1282.78125 c 1,13,-1
 320.57421875 1357.01269531 l 1,14,15
 509.623046875 1365.83203125 509.623046875 1365.83203125 607.5390625 1504.34667969 c 2,16,-1
 609.319335938 1506.86425781 l 1,17,-1
 606.294921875 1507.46289062 l 2,18,19
 563.690429688 1515.90234375 563.690429688 1515.90234375 517.501953125 1541.19042969 c 0,20,21
 432.002929688 1589.16894531 432.002929688 1589.16894531 432.25 1673.52929688 c 0,22,23
 432.435546875 1689.49902344 432.435546875 1689.49902344 434.75 1704.10644531 c 128,-1,24
 437.064453125 1718.71484375 437.064453125 1718.71484375 441.505859375 1731.95800781 c 128,-1,25
 445.947265625 1745.20214844 445.947265625 1745.20214844 452.50390625 1757.08984375 c 128,-1,26
 459.059570312 1768.9765625 459.059570312 1768.9765625 467.739257812 1779.53320312 c 0,27,28
 512.938476562 1834 512.938476562 1834 592.971679688 1833.95996094 c 0,29,30
 623.173828125 1833.97949219 623.173828125 1833.97949219 649.268554688 1825.10546875 c 128,-1,31
 675.36328125 1816.23144531 675.36328125 1816.23144531 697.45703125 1798.44238281 c 0,32,33
 729.323242188 1772.78222656 729.323242188 1772.78222656 743.864257812 1734.50097656 c 0,34,35
 748.924804688 1720.59570312 748.924804688 1720.59570312 751.34765625 1705.32421875 c 128,-1,36
 753.770507812 1690.05371094 753.770507812 1690.05371094 753.545898438 1673.41894531 c 0,37,38
 753.366210938 1654.13867188 753.366210938 1654.13867188 750.466796875 1634.56542969 c 128,-1,39
 747.567382812 1614.99121094 747.567382812 1614.99121094 741.940429688 1595.09863281 c 128,-1,40
 736.313476562 1575.20703125 736.313476562 1575.20703125 727.959960938 1555.01269531 c 2,41,-1
 726.918945312 1552.49707031 l 1,42,-1
 729.629882812 1552.25585938 l 1,43,-1
 749.439453125 1550.49316406 l 2,44,45
 787.512695312 1547.12402344 787.512695312 1547.12402344 820.65234375 1548.20898438 c 1,46,-1
 820.65234375 1474.00292969 l 1,0,1
651.768554688 1566.984375 m 1,47,-1
 657.93359375 1581.20117188 l 2,48,49
 678.998046875 1629.58007812 678.998046875 1629.58007812 679.158203125 1671.72460938 c 0,50,51
 678.99609375 1713.95117188 678.99609375 1713.95117188 653.373046875 1734.9140625 c 0,52,53
 627.756835938 1756.98828125 627.756835938 1756.98828125 596.96484375 1757.47167969 c 0,54,55
 581.719726562 1757.65039062 581.719726562 1757.65039062 568.712890625 1754.11914062 c 128,-1,56
 555.705078125 1750.58789062 555.705078125 1750.58789062 544.954101562 1743.32519531 c 128,-1,57
 534.202148438 1736.06347656 534.202148438 1736.06347656 525.802734375 1725.10351562 c 0,58,59
 517.1171875 1713.34960938 517.1171875 1713.34960938 512.637695312 1699.58691406 c 128,-1,60
 508.159179688 1685.82421875 508.159179688 1685.82421875 507.868164062 1670.04296875 c 0,61,62
 508.00390625 1621.71679688 508.00390625 1621.71679688 574.896484375 1590.97558594 c 0,63,64
 598.305664062 1580.1171875 598.305664062 1580.1171875 649.395507812 1565.85351562 c 2,65,-1
 651.075195312 1565.38476562 l 1,66,-1
 651.768554688 1566.984375 l 1,47,-1
EndSplineSet
Validated: 33
EndChar

StartChar: uni0650
Encoding: 1616 1616 51
GlifName: uni0650
Width: 1600
VWidth: 2314
GlyphClass: 4
Flags: W
AnchorPoint: "Anchor-7" 563.144 -60.8242 mark 0
AnchorPoint: "Anchor-6" 563.144 -60.8242 mark 0
AnchorPoint: "Anchor-0" 602.091 -318.624 basemark 0
AnchorPoint: "Anchor-0" 563.144 -60.8242 mark 0
LayerCount: 2
Fore
SplineSet
344.900390625 -344.620117188 m 1,0,-1
 344.900390625 -245.365234375 l 1,1,-1
 796.299804688 -60.701171875 l 1,2,-1
 796.299804688 -159.95703125 l 1,3,-1
 344.900390625 -344.620117188 l 1,0,-1
EndSplineSet
Validated: 1
EndChar

StartChar: uni0651
Encoding: 1617 1617 52
GlifName: uni0651
Width: 1600
VWidth: 2391
GlyphClass: 4
Flags: W
AnchorPoint: "Anchor-10" 598.801 1461.71 mark 0
AnchorPoint: "Anchor-9" 598.801 1461.71 mark 0
AnchorPoint: "Anchor-1" 570.087 1847.1 basemark 0
AnchorPoint: "Anchor-1" 598.801 1461.71 mark 0
LayerCount: 2
Fore
SplineSet
582.95703125 1543.67480469 m 1,0,1
 558 1438 558 1438 431.990234375 1437.88964844 c 0,2,3
 300 1438 300 1438 296.302734375 1604.53027344 c 0,4,5
 295 1663 295 1663 308.534179688 1711.47167969 c 1,6,-1
 382.998046875 1699.09179688 l 1,7,8
 348 1532 348 1532 443.645507812 1531.90234375 c 0,9,10
 528 1531 528 1531 531.948242188 1647.13964844 c 0,11,12
 534 1697 534 1697 533.119140625 1764.46289062 c 1,13,-1
 606.504882812 1764.46289062 l 1,14,15
 608 1724 608 1724 608.623046875 1683.89648438 c 0,16,17
 608 1590 608 1590 676.705078125 1590.25195312 c 0,18,19
 779 1591 779 1591 733.483398438 1809.26269531 c 1,20,-1
 817.732421875 1822.60742188 l 1,21,22
 835 1762 835 1762 834.52734375 1703.04589844 c 0,23,24
 835 1503 835 1503 690.3828125 1501.66601562 c 0,25,26
 618 1501 618 1501 582.95703125 1543.67480469 c 1,0,1
EndSplineSet
Validated: 33
EndChar

StartChar: uni0652
Encoding: 1618 1618 53
GlifName: uni0652
Width: 1600
VWidth: 2314
GlyphClass: 4
Flags: W
AnchorPoint: "Anchor-10" 603.219 1220.43 mark 0
AnchorPoint: "Anchor-9" 603.219 1220.43 mark 0
AnchorPoint: "Anchor-1" 577.537 1797.66 basemark 0
AnchorPoint: "Anchor-1" 603.219 1220.43 mark 0
LayerCount: 2
Fore
SplineSet
400.139648438 1459.671875 m 0,0,1
 400.139648438 1540.74414062 400.139648438 1540.74414062 456.252929688 1596.85839844 c 128,-1,2
 512.3671875 1652.97167969 512.3671875 1652.97167969 593.439453125 1652.97167969 c 128,-1,3
 674.510742188 1652.97167969 674.510742188 1652.97167969 730.625 1596.85839844 c 0,4,5
 758.708007812 1568.77441406 758.708007812 1568.77441406 772.723632812 1534.51464844 c 128,-1,6
 786.739257812 1500.25488281 786.739257812 1500.25488281 786.739257812 1459.671875 c 0,7,8
 786.739257812 1378.60058594 786.739257812 1378.60058594 730.625 1322.48632812 c 0,9,10
 716.58203125 1308.44335938 716.58203125 1308.44335938 701.00390625 1297.92285156 c 128,-1,11
 685.426757812 1287.40234375 685.426757812 1287.40234375 668.28515625 1280.38964844 c 128,-1,12
 651.14453125 1273.37695312 651.14453125 1273.37695312 632.439453125 1269.87402344 c 128,-1,13
 613.734375 1266.37207031 613.734375 1266.37207031 593.439453125 1266.37207031 c 0,14,15
 552.856445312 1266.37207031 552.856445312 1266.37207031 518.596679688 1280.38769531 c 128,-1,16
 484.336914062 1294.40332031 484.336914062 1294.40332031 456.252929688 1322.48632812 c 128,-1,17
 428.169921875 1350.5703125 428.169921875 1350.5703125 414.155273438 1384.83007812 c 128,-1,18
 400.139648438 1419.08984375 400.139648438 1419.08984375 400.139648438 1459.671875 c 0,0,1
482.5390625 1458.77246094 m 0,19,20
 482.194335938 1411.0703125 482.194335938 1411.0703125 515.525390625 1378.15820312 c 0,21,22
 548.165039062 1345.09863281 548.165039062 1345.09863281 596.13671875 1345.171875 c 0,23,24
 643.421875 1345.09863281 643.421875 1345.09863281 676.758789062 1378.1640625 c 0,25,26
 709.39453125 1411.07128906 709.39453125 1411.07128906 709.739257812 1458.77246094 c 0,27,28
 709.39453125 1506.32714844 709.39453125 1506.32714844 676.752929688 1539.38574219 c 0,29,30
 665.65625 1550.34375 665.65625 1550.34375 652.982421875 1557.66796875 c 128,-1,31
 640.30859375 1564.99316406 640.30859375 1564.99316406 626.090820312 1568.66992188 c 128,-1,32
 611.873046875 1572.34765625 611.873046875 1572.34765625 596.13671875 1572.37207031 c 0,33,34
 548.166015625 1572.29882812 548.166015625 1572.29882812 515.53125 1539.39160156 c 0,35,36
 482.194335938 1506.32714844 482.194335938 1506.32714844 482.5390625 1458.77246094 c 0,19,20
EndSplineSet
Validated: 33
EndChar

StartChar: uni0653
Encoding: 1619 1619 54
GlifName: uni0653
Width: 1600
VWidth: 2671
GlyphClass: 4
Flags: W
AnchorPoint: "Anchor-10" 461.017 1537.11 mark 0
AnchorPoint: "Anchor-9" 461.017 1537.11 mark 0
AnchorPoint: "Anchor-1" 461.017 1973.25 basemark 0
AnchorPoint: "Anchor-1" 461.017 1537.11 mark 0
LayerCount: 2
Fore
SplineSet
400.62109375 1636.78613281 m 2,0,1
 344.918945312 1644.45214844 344.918945312 1644.45214844 293.795898438 1620.92773438 c 128,-1,2
 242.672851562 1597.40332031 242.672851562 1597.40332031 196.974609375 1543.62792969 c 1,3,-1
 98.2705078125 1647.49316406 l 1,4,5
 216.145507812 1815.12792969 216.145507812 1815.12792969 383.438476562 1788.18359375 c 2,6,-1
 532.178710938 1764.22753906 l 2,7,8
 629.478515625 1748.05957031 629.478515625 1748.05957031 751.0859375 1809.03808594 c 1,9,-1
 815.078125 1676.03417969 l 1,10,11
 751.182617188 1636.5390625 751.182617188 1636.5390625 682.859375 1621.94335938 c 128,-1,12
 614.53515625 1607.34667969 614.53515625 1607.34667969 541.141601562 1617.44726562 c 2,13,-1
 400.62109375 1636.78613281 l 2,0,1
EndSplineSet
Validated: 33
EndChar

StartChar: uni0657
Encoding: 1623 1623 57
GlifName: uni0657
Width: 1600
VWidth: 2314
GlyphClass: 4
Flags: W
AnchorPoint: "Anchor-10" 573.285 1348.55 mark 0
AnchorPoint: "Anchor-9" 573.285 1348.55 mark 0
AnchorPoint: "Anchor-1" 573.285 2087.85 basemark 0
AnchorPoint: "Anchor-1" 573.285 1348.55 mark 0
LayerCount: 2
Fore
SplineSet
266.529296875 1800.60253906 m 1,0,1
 325.3125 1798.8515625 325.3125 1798.8515625 394.318359375 1791.61230469 c 2,2,-1
 395.48828125 1791.49023438 l 1,3,-1
 396.1640625 1792.45214844 l 1,4,-1
 397.380859375 1794.18457031 l 2,5,6
 545.303710938 2004.95117188 545.303710938 2004.95117188 782.673828125 2028.51074219 c 1,7,-1
 782.673828125 1954.29394531 l 1,8,9
 598.282226562 1924.04882812 598.282226562 1924.04882812 484.698242188 1777.41601562 c 2,10,-1
 482.904296875 1775.10058594 l 1,11,-1
 485.713867188 1774.2734375 l 2,12,13
 547.100585938 1756.1796875 547.100585938 1756.1796875 589.91796875 1724.87207031 c 0,14,15
 656 1675.00390625 656 1675.00390625 655.9765625 1596.87011719 c 0,16,17
 656 1527.81152344 656 1527.81152344 611.818359375 1482.31933594 c 0,18,19
 569.149414062 1438 569.149414062 1438 501.358398438 1438.01367188 c 0,20,21
 464.551757812 1438.00683594 464.551757812 1438.00683594 433.017578125 1450.88671875 c 128,-1,22
 401.484375 1463.76757812 401.484375 1463.76757812 375.107421875 1489.57910156 c 0,23,24
 333.99609375 1530.83105469 333.99609375 1530.83105469 333.635742188 1601.27636719 c 0,25,26
 333.997070312 1644.68945312 333.997070312 1644.68945312 357.283203125 1719.83300781 c 2,27,-1
 358.016601562 1722.19824219 l 1,28,-1
 355.549804688 1722.41699219 l 2,29,30
 342.495117188 1723.57324219 342.495117188 1723.57324219 327.922851562 1724.40820312 c 128,-1,31
 313.350585938 1725.24316406 313.350585938 1725.24316406 297.953125 1725.73046875 c 128,-1,32
 282.555664062 1726.21777344 282.555664062 1726.21777344 266.529296875 1726.36035156 c 1,33,-1
 266.529296875 1800.60253906 l 1,0,1
501.374023438 1512.40234375 m 0,34,35
 543.026367188 1513.01464844 543.026367188 1513.01464844 563.370117188 1540.83984375 c 0,36,37
 571.200195312 1552.12890625 571.200195312 1552.12890625 575.176757812 1565.56933594 c 128,-1,38
 579.153320312 1579.00976562 579.153320312 1579.00976562 579.313476562 1594.62890625 c 0,39,40
 579.267578125 1603.33398438 579.267578125 1603.33398438 577.587890625 1611.49023438 c 128,-1,41
 575.907226562 1619.64648438 575.907226562 1619.64648438 572.611328125 1627.21777344 c 128,-1,42
 569.31640625 1634.7890625 569.31640625 1634.7890625 564.405273438 1641.80859375 c 128,-1,43
 559.495117188 1648.828125 559.495117188 1648.828125 552.997070312 1655.26757812 c 128,-1,44
 546.499023438 1661.70703125 546.499023438 1661.70703125 538.405273438 1667.59082031 c 128,-1,45
 530.311523438 1673.47558594 530.311523438 1673.47558594 520.657226562 1678.78417969 c 128,-1,46
 511.00390625 1684.09277344 511.00390625 1684.09277344 499.7734375 1688.84472656 c 0,47,48
 493.54296875 1691.45703125 493.54296875 1691.45703125 487.321289062 1693.82519531 c 128,-1,49
 481.099609375 1696.19238281 481.099609375 1696.19238281 474.88671875 1698.31542969 c 128,-1,50
 468.672851562 1700.43847656 468.672851562 1700.43847656 462.46875 1702.31640625 c 128,-1,51
 456.264648438 1704.19433594 456.264648438 1704.19433594 450.069335938 1705.82617188 c 128,-1,52
 443.873046875 1707.45898438 443.873046875 1707.45898438 437.686523438 1708.84570312 c 2,53,-1
 436.0625 1709.20996094 l 1,54,-1
 435.409179688 1707.67871094 l 2,55,56
 408 1643.40820312 408 1643.40820312 408.0234375 1602.96679688 c 0,57,58
 408.01171875 1592.30078125 408.01171875 1592.30078125 409.741210938 1582.96679688 c 128,-1,59
 411.470703125 1573.6328125 411.470703125 1573.6328125 414.956054688 1565.64648438 c 128,-1,60
 418.448242188 1557.62890625 418.448242188 1557.62890625 423.635742188 1550.62304688 c 128,-1,61
 428.82421875 1543.6171875 428.82421875 1543.6171875 435.665039062 1537.66210938 c 128,-1,62
 442.504882812 1531.70605469 442.504882812 1531.70605469 450.99609375 1526.78710938 c 0,63,64
 463.706054688 1519.40625 463.706054688 1519.40625 476.307617188 1515.80175781 c 128,-1,65
 488.91015625 1512.19628906 488.91015625 1512.19628906 501.374023438 1512.40234375 c 0,34,35
EndSplineSet
Validated: 33
EndChar

StartChar: uni065A
Encoding: 1626 1626 58
GlifName: uni065A_
Width: 1600
VWidth: 2314
GlyphClass: 4
Flags: W
AnchorPoint: "Anchor-10" 573.285 1348.55 mark 0
AnchorPoint: "Anchor-9" 573.285 1348.55 mark 0
AnchorPoint: "Anchor-1" 571.012 1860.38 basemark 0
AnchorPoint: "Anchor-1" 573.285 1348.55 mark 0
LayerCount: 2
Fore
SplineSet
503.500976562 1444.42578125 m 1,0,-1
 312.05078125 1764.49023438 l 1,1,-1
 411.852539062 1764.49023438 l 1,2,-1
 571.62109375 1524.83007812 l 1,3,-1
 573.28515625 1522.33398438 l 1,4,-1
 574.94921875 1524.83007812 l 1,5,-1
 734.71875 1764.49023438 l 1,6,-1
 834.521484375 1764.49023438 l 1,7,-1
 643.068359375 1444.42578125 l 1,8,-1
 503.500976562 1444.42578125 l 1,0,-1
EndSplineSet
Validated: 1
EndChar

StartChar: afii57392
Encoding: 1632 1632 59
GlifName: afii57392
Width: 1600
VWidth: 2952
GlyphClass: 2
Flags: W
LayerCount: 2
Fore
SplineSet
659.290039062 543.262695312 m 128,-1,1
 659.290039062 483.686523438 659.290039062 483.686523438 700.400390625 442.579101562 c 0,2,3
 720.923828125 422.0546875 720.923828125 422.0546875 746.515625 411.638671875 c 128,-1,4
 772.106445312 401.22265625 772.106445312 401.22265625 802.592773438 400.966796875 c 0,5,6
 862.68359375 401.48046875 862.68359375 401.48046875 903.782226562 442.579101562 c 0,7,8
 924.297851562 463.094726562 924.297851562 463.094726562 934.594726562 488.3203125 c 128,-1,9
 944.890625 513.545898438 944.890625 513.545898438 944.890625 543.262695312 c 128,-1,10
 944.890625 572.98046875 944.890625 572.98046875 934.594726562 598.20703125 c 128,-1,11
 924.298828125 623.432617188 924.298828125 623.432617188 903.782226562 643.94921875 c 0,12,13
 862.68359375 685.046875 862.68359375 685.046875 801.587890625 685.560546875 c 0,14,15
 771.594726562 685.3046875 771.594726562 685.3046875 746.258789062 674.887695312 c 128,-1,16
 720.922851562 664.470703125 720.922851562 664.470703125 700.400390625 643.94921875 c 0,17,0
 659.290039062 602.83984375 659.290039062 602.83984375 659.290039062 543.262695312 c 128,-1,1
573.629882812 767.463867188 m 0,18,19
 596.936523438 790.76953125 596.936523438 790.76953125 622.502929688 808.217773438 c 128,-1,20
 648.0703125 825.666992188 648.0703125 825.666992188 675.919921875 837.284179688 c 0,21,22
 731.620117188 860.51953125 731.620117188 860.51953125 796.678710938 860.51953125 c 0,23,24
 840.053710938 860.51953125 840.053710938 860.51953125 879.258789062 850.193359375 c 128,-1,25
 918.46484375 839.8671875 918.46484375 839.8671875 953.568359375 819.192382812 c 128,-1,26
 988.672851562 798.518554688 988.672851562 798.518554688 1019.72753906 767.463867188 c 0,27,28
 1066.30371094 720.887695312 1066.30371094 720.887695312 1089.54394531 665.178710938 c 128,-1,29
 1112.78417969 609.469726562 1112.78417969 609.469726562 1112.78417969 544.4140625 c 0,30,31
 1112.78417969 414.420898438 1112.78417969 414.420898438 1019.72753906 321.364257812 c 0,32,33
 996.422851562 298.059570312 996.422851562 298.059570312 970.858398438 280.65234375 c 128,-1,34
 945.29296875 263.244140625 945.29296875 263.244140625 917.446289062 251.705078125 c 128,-1,35
 889.586914062 240.16015625 889.586914062 240.16015625 859.411132812 234.466796875 c 128,-1,36
 829.235351562 228.774414062 829.235351562 228.774414062 796.625 228.923828125 c 0,37,38
 731.583007812 228.625 731.583007812 228.625 675.895507812 251.70703125 c 0,39,40
 657.336914062 259.399414062 657.336914062 259.399414062 639.796875 269.6953125 c 128,-1,41
 622.256835938 279.991210938 622.256835938 279.991210938 605.711914062 292.909179688 c 128,-1,42
 589.166992188 305.827148438 589.166992188 305.827148438 573.629882812 321.364257812 c 0,43,44
 527.055664062 367.939453125 527.055664062 367.939453125 503.81640625 423.6484375 c 128,-1,45
 480.577148438 479.357421875 480.577148438 479.357421875 480.577148438 544.415039062 c 128,-1,46
 480.577148438 609.475585938 480.577148438 609.475585938 503.811523438 665.17578125 c 128,-1,47
 527.049804688 720.883789062 527.049804688 720.883789062 573.629882812 767.463867188 c 0,18,19
EndSplineSet
Validated: 33
EndChar

StartChar: afii57393
Encoding: 1633 1633 60
GlifName: afii57393
Width: 1600
VWidth: 2952
GlyphClass: 2
Flags: W
LayerCount: 2
Fore
SplineSet
719.71875 1366.01269531 m 1,0,1
 924.115234375 917.747070312 924.115234375 917.747070312 924.115234375 278.771484375 c 2,2,-1
 924.115234375 11.5537109375 l 1,3,-1
 744.796875 11.5537109375 l 1,4,-1
 744.791992188 281.91796875 l 2,5,6
 745 923 745 923 554.876953125 1307.90820312 c 1,7,-1
 719.71875 1366.01269531 l 1,0,1
EndSplineSet
Validated: 33
EndChar

StartChar: afii57394
Encoding: 1634 1634 61
GlifName: afii57394
Width: 1600
VWidth: 2952
GlyphClass: 2
Flags: W
LayerCount: 2
Fore
SplineSet
700.4296875 771.508789062 m 1,0,1
 734.115234375 514.995117188 734.115234375 514.995117188 734.115234375 278.771484375 c 2,2,-1
 734.115234375 11.5537109375 l 1,3,-1
 554.796875 11.5537109375 l 1,4,-1
 554.791992188 281.91796875 l 2,5,6
 555 923 555 923 364.876953125 1307.90820312 c 1,7,-1
 529.497070312 1365.9375 l 1,8,-1
 631.250976562 1084.26855469 l 1,9,10
 692 912 692 912 905.032226562 911.76953125 c 0,11,12
 1013 912 1013 912 1064 1012 c 128,-1,13
 1115 1112 1115 1112 1115.94824219 1354.54394531 c 1,14,-1
 1295.69335938 1353.99023438 l 1,15,16
 1292.26660156 983.411132812 1292.26660156 983.411132812 1188.63378906 853.705078125 c 128,-1,17
 1085 724 1085 724 909.243164062 724.568359375 c 0,18,19
 774 725 774 725 700.4296875 771.508789062 c 1,0,1
EndSplineSet
Validated: 33
EndChar

StartChar: afii57395
Encoding: 1635 1635 62
GlifName: afii57395
Width: 1600
VWidth: 2952
GlyphClass: 2
Flags: W
LayerCount: 2
Fore
SplineSet
510.080078125 774.03515625 m 1,0,1
 544.115234375 517.284179688 544.115234375 517.284179688 544.115234375 278.771484375 c 2,2,-1
 544.115234375 11.5537109375 l 1,3,-1
 364.796875 11.5537109375 l 1,4,-1
 364.791992188 281.916992188 l 2,5,6
 365 923 365 923 174.876953125 1307.90820312 c 1,7,-1
 339.466796875 1365.92675781 l 1,8,-1
 449.159179688 1051.63671875 l 2,9,10
 492 929 492 929 640.522460938 927.631835938 c 0,11,12
 800.313476562 926.999023438 800.313476562 926.999023438 794.365234375 1184.56054688 c 2,13,-1
 791.662109375 1301.60253906 l 1,14,-1
 950.317382812 1306.65332031 l 1,15,-1
 954.010742188 1162.3984375 l 2,16,17
 960 922 960 922 1110.54199219 920.891601562 c 0,18,19
 1180 920 1180 920 1209.5390625 985.587890625 c 128,-1,20
 1239.078125 1051.17480469 1239.078125 1051.17480469 1239.51855469 1238.29785156 c 2,21,-1
 1239.83105469 1371.13085938 l 1,22,-1
 1416.63378906 1371.29394531 l 1,23,-1
 1416.0546875 1240.61523438 l 2,24,25
 1416 1182 1416 1182 1408.70898438 1093.52148438 c 0,26,27
 1380 736 1380 736 1116.67382812 737.768554688 c 0,28,29
 966.561523438 739.00390625 966.561523438 739.00390625 867.467773438 853.89453125 c 1,30,31
 772.014648438 737 772.014648438 737 663.388671875 737 c 128,-1,32
 554.763671875 737 554.763671875 737 510.080078125 774.03515625 c 1,0,1
EndSplineSet
Validated: 33
EndChar

StartChar: afii57396
Encoding: 1636 1636 63
GlifName: afii57396
Width: 1600
VWidth: 2952
GlyphClass: 2
Flags: W
LayerCount: 2
Fore
SplineSet
419.309570312 298.82421875 m 0,0,1
 411 532 411 532 811.677734375 709.083007812 c 1,2,3
 501 772 501 772 501.663085938 1016.95703125 c 0,4,5
 502 1108 502 1108 549.499023438 1176.296875 c 0,6,7
 662 1340 662 1340 946 1343.328125 c 0,8,9
 1013 1344 1013 1344 1090.08203125 1334.38085938 c 1,10,-1
 1077.46191406 1152.27636719 l 1,11,12
 1027 1158 1027 1158 984 1158.45898438 c 0,13,14
 702 1159 702 1159 700.830078125 999.084960938 c 0,15,16
 700 858 700 858 1057.76855469 828.708984375 c 1,17,-1
 1060.04882812 645.10546875 l 1,18,19
 596 459 596 459 605.516601562 307.264648438 c 0,20,21
 613.021484375 180.643554688 613.021484375 180.643554688 993.831054688 183.053710938 c 2,22,-1
 1187.76757812 184.28125 l 1,23,-1
 1189.984375 0.01953125 l 1,24,-1
 987.081054688 0.46875 l 2,25,26
 430 2 430 2 419.309570312 298.82421875 c 0,0,1
EndSplineSet
Validated: 33
EndChar

StartChar: afii57397
Encoding: 1637 1637 64
GlifName: afii57397
Width: 1600
VWidth: 2952
GlyphClass: 2
Flags: W
LayerCount: 2
Fore
SplineSet
745.591796875 1015.64550781 m 1,0,1
 475 727 475 727 474.721679688 488.224609375 c 0,2,3
 475 335 475 335 578.696289062 255.071289062 c 0,4,5
 663 190 663 190 799.083984375 190.291015625 c 0,6,7
 929 190 929 190 1010.265625 286.330078125 c 0,8,9
 1072 359 1072 359 1071.25976562 495.30859375 c 0,10,11
 1071 769 1071 769 745.591796875 1015.64550781 c 1,0,1
542.208984375 1175.90136719 m 1,12,-1
 651.911132812 1334.72949219 l 1,13,14
 1246 956 1246 956 1246.70605469 472.263671875 c 0,15,16
 1247 196 1247 196 1066.15820312 83.97265625 c 0,17,18
 943 8 943 8 795.247070312 8.388671875 c 0,19,20
 629 9 629 9 498.077148438 80.3515625 c 0,21,22
 296 190 296 190 298.62890625 470.9453125 c 0,23,24
 302 806 302 806 596.9921875 1133.9296875 c 1,25,-1
 542.208984375 1175.90136719 l 1,12,-1
EndSplineSet
Validated: 33
EndChar

StartChar: afii57398
Encoding: 1638 1638 65
GlifName: afii57398
Width: 1600
VWidth: 2952
GlyphClass: 2
Flags: W
LayerCount: 2
Fore
SplineSet
1104.34765625 11.5537109375 m 1,0,1
 983 509 983 509 971.403320312 1117.33789062 c 1,2,3
 802 1071 802 1071 634.151367188 1070.50097656 c 0,4,5
 436 1070 436 1070 251.41796875 1153.32128906 c 1,6,-1
 251.41796875 1363.89746094 l 1,7,8
 449 1272 449 1272 680.328125 1272.2421875 c 0,9,10
 902 1272 902 1272 1135.52734375 1365.73535156 c 1,11,12
 1147 498 1147 498 1293.07519531 11.5537109375 c 1,13,-1
 1104.34765625 11.5537109375 l 1,0,1
EndSplineSet
Validated: 33
EndChar

StartChar: afii57399
Encoding: 1639 1639 66
GlifName: afii57399
Width: 1600
VWidth: 2952
GlyphClass: 2
Flags: W
LayerCount: 2
Fore
SplineSet
1352.60644531 1280.14648438 m 1,0,1
 1030 633 1030 633 894.271484375 11.5537109375 c 1,2,-1
 726.603515625 11.5537109375 l 1,3,4
 590 634 590 634 268.264648438 1280.1328125 c 1,5,-1
 436.727539062 1365.70214844 l 1,6,7
 708 783 708 783 810.446289062 327.130859375 c 1,8,9
 913 784 913 784 1184.1640625 1365.703125 c 1,10,-1
 1352.60644531 1280.14648438 l 1,0,1
EndSplineSet
Validated: 1
EndChar

StartChar: afii57400
Encoding: 1640 1640 67
GlifName: afii57400
Width: 1600
VWidth: 2952
GlyphClass: 2
Flags: W
LayerCount: 2
Fore
SplineSet
1322.60644531 77.1103515625 m 1,0,1
 1322.60644531 77.1103515625 1322.60644531 77.1103515625 1154.1640625 -8.4462890625 c 1,2,3
 883 573 883 573 780.446289062 1030.12597656 c 1,4,5
 678 575 678 575 406.727539062 -8.4453125 c 1,6,7
 406.727539062 -8.4453125 406.727539062 -8.4453125 238.264648438 77.1240234375 c 1,8,9
 560 723 560 723 696.603515625 1345.703125 c 1,10,-1
 864.271484375 1345.703125 l 1,11,12
 1000 724 1000 724 1322.60644531 77.1103515625 c 1,0,1
EndSplineSet
Validated: 1
EndChar

StartChar: afii57401
Encoding: 1641 1641 68
GlifName: afii57401
Width: 1600
VWidth: 2952
GlyphClass: 2
Flags: W
LayerCount: 2
Fore
SplineSet
739.53125 573.165039062 m 2,0,1
 352 573.165039062 352 573.165039062 351.946289062 915.935546875 c 0,2,3
 352 1061 352 1061 422.5 1174.5 c 0,4,5
 544 1370 544 1370 755.064453125 1370.31542969 c 0,6,7
 1124 1370 1124 1370 1148.94726562 871.424804688 c 0,8,9
 1172 419 1172 419 1181.78222656 11.5537109375 c 1,10,-1
 1009.74804688 11.5537109375 l 1,11,-1
 996.065429688 632.900390625 l 1,12,13
 876.331054688 573.165039062 876.331054688 573.165039062 740.260742188 573.165039062 c 2,14,-1
 739.53125 573.165039062 l 2,0,1
742.727539062 754.890625 m 0,15,16
 849 755 849 755 978.341796875 819.395507812 c 1,17,-1
 976.405273438 842.450195312 l 2,18,19
 948 1179 948 1179 763.736328125 1178.7265625 c 0,20,21
 651 1179 651 1179 585.901367188 1090.36914062 c 0,22,23
 527 1010 527 1010 527.008789062 925.302734375 c 0,24,25
 527 755 527 755 742.727539062 754.890625 c 0,15,16
EndSplineSet
Validated: 33
EndChar

StartChar: afii57381
Encoding: 1642 1642 69
GlifName: afii57381
Width: 1600
VWidth: 4038
GlyphClass: 2
Flags: W
LayerCount: 2
Fore
SplineSet
749.512695312 345.344726562 m 128,-1,1
 749.512695312 415.227539062 749.512695312 415.227539062 799.518554688 464.306640625 c 0,2,3
 848.588867188 513.376953125 848.588867188 513.376953125 918.5 513.83984375 c 0,4,5
 953.512695312 514.071289062 953.512695312 514.071289062 983.178710938 501.719726562 c 128,-1,6
 1012.84472656 489.368164062 1012.84472656 489.368164062 1037.44238281 464.306640625 c 0,7,8
 1062.01660156 439.731445312 1062.01660156 439.731445312 1074.25976562 410.045898438 c 128,-1,9
 1086.50390625 380.360351562 1086.50390625 380.360351562 1086.50390625 345.344726562 c 0,10,11
 1086.50390625 275.443359375 1086.50390625 275.443359375 1037.44238281 226.380859375 c 128,-1,12
 988.379882812 177.318359375 988.379882812 177.318359375 918.48046875 177.318359375 c 128,-1,13
 848.580078125 177.318359375 848.580078125 177.318359375 799.499023438 226.400390625 c 0,14,0
 749.512695312 275.459960938 749.512695312 275.459960938 749.512695312 345.344726562 c 128,-1,1
200.96875 1199.37011719 m 0,15,16
 201 1269 201 1269 250.965820312 1318.32324219 c 0,17,18
 300 1367 300 1367 369.958007812 1367.86523438 c 0,19,20
 440 1368 440 1368 488.895507812 1318.33496094 c 0,21,22
 538 1269 538 1269 537.959960938 1199.37011719 c 0,23,24
 538 1129 538 1129 488.888671875 1080.3984375 c 0,25,26
 464 1056 464 1056 434.78125 1043.51464844 c 0,27,28
 405 1031 405 1031 369.9296875 1031.34472656 c 0,29,30
 300 1031 300 1031 250.963867188 1080.41894531 c 0,31,32
 201 1129 201 1129 200.96875 1199.37011719 c 0,15,16
872.728515625 1406.96582031 m 1,33,-1
 1026 1328 l 1,34,-1
 354.951171875 33.673828125 l 1,35,-1
 202.111328125 117.6640625 l 1,36,-1
 872.728515625 1406.96582031 l 1,33,-1
EndSplineSet
Validated: 33
EndChar

StartChar: uni066B
Encoding: 1643 1643 70
GlifName: uni066B_
Width: 1600
VWidth: 2952
GlyphClass: 2
Flags: W
LayerCount: 2
Fore
SplineSet
532.755859375 818.005859375 m 1,0,-1
 664.05859375 762.266601562 l 1,1,-1
 199.7890625 -309.061523438 l 1,2,-1
 66.3642578125 -250.9921875 l 1,3,-1
 532.755859375 818.005859375 l 1,0,-1
EndSplineSet
Validated: 1
EndChar

StartChar: uni066C
Encoding: 1644 1644 71
GlifName: uni066C_
Width: 1600
VWidth: 2842
GlyphClass: 2
Flags: W
LayerCount: 2
Fore
SplineSet
147.02734375 140.623046875 m 0,0,1
 148 189 148 189 165.67578125 221.4453125 c 0,2,3
 202 286 202 286 290.584960938 286.182617188 c 0,4,5
 437 287 437 287 463.669921875 157.809570312 c 0,6,7
 478 90 478 90 451.774414062 -9.224609375 c 0,8,9
 393 -233 393 -233 188.64453125 -401.0546875 c 1,10,-1
 117.49609375 -368.359375 l 1,11,12
 312 -192 312 -192 324.28125 0.2177734375 c 1,13,-1
 320.977539062 0.138671875 l 1,14,-1
 313.798828125 -0.0322265625 l 2,15,16
 286 -1 286 -1 266.815429688 3.404296875 c 0,17,18
 145 28 145 28 147.02734375 140.623046875 c 0,0,1
EndSplineSet
Validated: 33
EndChar

StartChar: afii63167
Encoding: 1645 1645 72
GlifName: afii63167
Width: 1600
VWidth: 2950
GlyphClass: 2
Flags: W
LayerCount: 2
Fore
SplineSet
238.715820312 1034.65136719 m 1,0,-1
 662.741210938 1034.65136719 l 1,1,-1
 664.913085938 1034.65136719 l 1,2,-1
 666.360351562 1034.65136719 l 1,3,-1
 666.8125 1036.02636719 l 1,4,-1
 667.4921875 1038.09082031 l 1,5,-1
 799.995117188 1441.51953125 l 1,6,-1
 932.500976562 1038.08984375 l 1,7,-1
 933.1796875 1036.02636719 l 1,8,-1
 933.631835938 1034.65136719 l 1,9,-1
 935.079101562 1034.65136719 l 1,10,-1
 937.250976562 1034.65136719 l 1,11,-1
 1361.27636719 1034.65136719 l 1,12,-1
 1018.68066406 784.201171875 l 1,13,-1
 1016.92578125 782.91796875 l 1,14,-1
 1015.75585938 782.0625 l 1,15,-1
 1016.20507812 780.684570312 l 1,16,-1
 1016.87792969 778.6171875 l 1,17,-1
 1147.90039062 376.108398438 l 1,18,-1
 802.923828125 625.388671875 l 1,19,-1
 801.166992188 626.658203125 l 1,20,-1
 799.995117188 627.504882812 l 1,21,-1
 798.823242188 626.658203125 l 1,22,-1
 797.06640625 625.388671875 l 1,23,-1
 452.092773438 376.108398438 l 1,24,-1
 583.11328125 778.6171875 l 1,25,-1
 583.786132812 780.684570312 l 1,26,-1
 584.235351562 782.0625 l 1,27,-1
 583.065429688 782.91796875 l 1,28,-1
 581.310546875 784.201171875 l 1,29,-1
 238.715820312 1034.65136719 l 1,0,-1
EndSplineSet
Validated: 1
EndChar

StartChar: uni066E
Encoding: 1646 1646 73
GlifName: uni066E_
Width: 1600
VWidth: 2950
GlyphClass: 2
Flags: W
AnchorPoint: "Anchor-10" 967.36 1413.35 basechar 0
AnchorPoint: "Anchor-7" 897.36 -259.261 basechar 0
LayerCount: 2
Fore
SplineSet
271.424804688 352.515625 m 0,0,1
 273 180 273 180 865.999023438 180.168945312 c 24,2,3
 1379 181 1379 181 1376.37988281 353.419921875 c 0,4,5
 1374 570 1374 570 1345.46386719 666.631835938 c 1,6,-1
 1503.45019531 696.629882812 l 1,7,8
 1543 577 1543 577 1542.90625 357.712890625 c 0,9,10
 1542 0 1542 0 864.356445312 0 c 2,11,-1
 860.911132812 0 l 2,12,13
 107 0 107 0 106.16015625 333.875 c 0,14,15
 106 563 106 563 133.489257812 685 c 1,16,-1
 289.356445312 655 l 1,17,18
 270 564 270 564 271.424804688 352.515625 c 0,0,1
EndSplineSet
Validated: 545
Substitution2: "'init' Initial Forms in Arabic lookup 13 subtable" uni066E.init
Substitution2: "'medi' Medial Forms in Arabic lookup 11 subtable" uni066E.medi
Substitution2: "'fina' Terminal Forms in Arabic lookup 9 subtable" uni066E.fina
EndChar

StartChar: uni066F
Encoding: 1647 1647 74
GlifName: uni066F_
Width: 1600
VWidth: 2950
GlyphClass: 2
Flags: W
AnchorPoint: "Anchor-10" 121.809 1350.22 basechar 0
AnchorPoint: "Anchor-7" 335.219 -723.353 basechar 0
LayerCount: 2
Fore
SplineSet
874.3984375 -229.201171875 m 0,0,1
 1265 -228 1265 -228 1302.99121094 77.1328125 c 1,2,-1
 1222.24707031 77.6884765625 l 2,3,4
 822 80 822 80 822.765625 377.403320312 c 0,5,6
 823 492 823 492 870.645507812 581.565429688 c 0,7,8
 961 751 961 751 1132.9765625 750.970703125 c 0,9,10
 1351 751 1351 751 1425.45214844 539.38671875 c 0,11,12
 1474 401 1474 401 1474.20507812 161 c 0,13,14
 1474 -3 1474 -3 1415 -128.631835938 c 0,15,16
 1286 -401 1286 -401 860.99609375 -400.998046875 c 0,17,18
 500 -401 500 -401 360.99609375 -329.170898438 c 0,19,20
 104 -196 104 -196 104.752929688 166.041015625 c 0,21,22
 105 324 105 324 170.45703125 513.122070312 c 1,23,-1
 328.90234375 467.791992188 l 1,24,25
 275 300 275 300 275.268554688 167.861328125 c 0,26,27
 275 -231 275 -231 874.3984375 -229.201171875 c 0,0,1
1305.38769531 252.623046875 m 2,28,29
 1284.83313672 571.000039559 1284.83313672 571.000039559 1132.58984375 571.036132812 c 0,30,31
 1049 571 1049 571 1007.61425781 486.565429688 c 0,32,33
 986 443 986 443 985.920898438 390.450195312 c 0,34,35
 986 253 986 253 1221.68261719 251.254882812 c 0,36,37
 1263 251 1263 251 1303.38769531 250.494140625 c 2,38,-1
 1305.52539062 250.490234375 l 1,39,-1
 1305.38769531 252.623046875 l 2,28,29
EndSplineSet
Validated: 545
Substitution2: "'init' Initial Forms in Arabic lookup 13 subtable" uni066F.init
Substitution2: "'medi' Medial Forms in Arabic lookup 11 subtable" uni066F.medi
Substitution2: "'fina' Terminal Forms in Arabic lookup 9 subtable" uni066F.fina
EndChar

StartChar: uni0670
Encoding: 1648 1648 75
GlifName: uni0670
Width: 1600
VWidth: 2572
GlyphClass: 4
Flags: W
AnchorPoint: "Anchor-10" 636.984 1498.61 mark 0
AnchorPoint: "Anchor-9" 636.984 1498.61 mark 0
AnchorPoint: "Anchor-1" 636.984 2005.18 basemark 0
AnchorPoint: "Anchor-1" 636.984 1498.61 mark 0
LayerCount: 2
Fore
SplineSet
595.435546875 1568.26757812 m 1,0,-1
 595.435546875 1935.51660156 l 1,1,-1
 678.533203125 1935.51660156 l 1,2,-1
 678.533203125 1568.26757812 l 1,3,-1
 595.435546875 1568.26757812 l 1,0,-1
EndSplineSet
Validated: 1
EndChar

StartChar: uni0674
Encoding: 1652 1652 76
GlifName: uni0674
Width: 1600
VWidth: 2535
GlyphClass: 2
Flags: W
LayerCount: 2
Fore
SplineSet
725.850585938 1990.08105469 m 2,0,1
 632.998046875 2061.98242188 632.998046875 2061.98242188 632.783203125 2168.51367188 c 0,2,3
 632.998046875 2256.20117188 632.998046875 2256.20117188 691.145507812 2317.62304688 c 0,4,5
 759.859375 2390 759.859375 2390 867.013671875 2390.015625 c 0,6,7
 913.786132812 2390.0078125 913.786132812 2390.0078125 956.26953125 2379.4609375 c 128,-1,8
 998.751953125 2368.91308594 998.751953125 2368.91308594 1035.86914062 2348.30175781 c 1,9,-1
 1036.54882812 2221.02929688 l 1,10,11
 945.375 2261.00292969 945.375 2261.00292969 880.991210938 2261.26171875 c 0,12,13
 849.16015625 2261.12988281 849.16015625 2261.12988281 824.530273438 2252.41210938 c 128,-1,14
 799.900390625 2243.69433594 799.900390625 2243.69433594 782.573242188 2226.33203125 c 0,15,16
 753.990234375 2196.79882812 753.990234375 2196.79882812 754.4921875 2155.95996094 c 0,17,18
 755.262695312 2117.66992188 755.262695312 2117.66992188 784.331054688 2088.66210938 c 128,-1,19
 813.400390625 2059.65429688 813.400390625 2059.65429688 870.265625 2039.91796875 c 0,20,21
 881.763671875 2035.96679688 881.763671875 2035.96679688 895.21484375 2037.30566406 c 0,22,23
 943.719726562 2042.95410156 943.719726562 2042.95410156 1062.74707031 2064.15625 c 1,24,-1
 1062.74707031 1932.61621094 l 1,25,-1
 630.286132812 1835.52636719 l 1,26,-1
 630.286132812 1964.6796875 l 1,27,-1
 725.075195312 1986.55078125 l 1,28,-1
 729.184570312 1987.49902344 l 1,29,-1
 725.850585938 1990.08105469 l 2,0,1
EndSplineSet
Validated: 33
EndChar

StartChar: uni06A1
Encoding: 1697 1697 80
GlifName: uni06A_1
Width: 1600
VWidth: 2950
GlyphClass: 2
Flags: W
AnchorPoint: "Anchor-10" 670.853 1628.62 basechar 0
AnchorPoint: "Anchor-7" 633.182 -354.248 basechar 0
LayerCount: 2
Fore
SplineSet
1310.18457031 530.057617188 m 2,0,1
 1289.59365981 848.997677713 1289.59365981 848.997677713 1197.38671875 848.470703125 c 0,2,3
 1130 848 1130 848 1089.93261719 793.025390625 c 0,4,5
 1051 739 1051 739 1050.71777344 667.884765625 c 0,6,7
 1051 532 1051 532 1226.47949219 528.689453125 c 0,8,9
 1267.85512444 528.002405676 1267.85512444 528.002405676 1308.18457031 527.928710938 c 2,10,-1
 1310.32226562 527.924804688 l 1,11,-1
 1310.18457031 530.057617188 l 2,0,1
923.868164062 0 m 2,12,-1
 850.911132812 0 l 2,13,14
 107 0 107 0 106.16015625 463.875 c 0,15,16
 106 563 106 563 133.489257812 685 c 1,17,-1
 289.356445312 655 l 1,18,19
 271 569 271 569 271.424804688 482.515625 c 0,20,21
 273.000116555 180.977689617 273.000116555 180.977689617 841.866210938 180.13671875 c 2,22,-1
 935.008789062 179.999023438 l 2,23,24
 1297 179 1297 179 1307.78808594 354.567382812 c 1,25,-1
 1227.04394531 355.123046875 l 2,26,27
 887 357 887 357 887.5625 654.837890625 c 0,28,29
 888 808 888 808 974.129882812 918.97265625 c 0,30,31
 1059 1028 1059 1028 1217.7734375 1028.40527344 c 0,32,33
 1356 1028 1356 1028 1430.24902344 816.821289062 c 0,34,35
 1480 676 1480 676 1479.82519531 482 c 0,36,37
 1480 293 1480 293 1419 196.8359375 c 0,38,39
 1295 0 1295 0 923.868164062 0 c 2,12,-1
EndSplineSet
Validated: 33
Substitution2: "'init' Initial Forms in Arabic lookup 13 subtable" uni06A1.init
Substitution2: "'medi' Medial Forms in Arabic lookup 11 subtable" uni06A1.medi
Substitution2: "'fina' Terminal Forms in Arabic lookup 9 subtable" uni06A1.fina
EndChar

StartChar: uni06A9
Encoding: 1705 1705 81
GlifName: uni06A_9
Width: 1600
VWidth: 2950
GlyphClass: 2
Flags: W
AnchorPoint: "Anchor-7" 750.268 -238.468 basechar 0
AnchorPoint: "Anchor-10" 873.878 1360.89 basechar 0
LayerCount: 2
Fore
SplineSet
271.424804688 482.515625 m 0,0,1
 273.000026998 179.99481495 273.000026998 179.99481495 783.061523438 179.993164062 c 2,2,-1
 1084.78222656 179.9921875 l 2,3,4
 1368 180 1368 180 1370.72460938 383.111328125 c 0,5,6
 1372 479 1372 479 1289.71972656 561.404296875 c 0,7,8
 1241 610 1241 610 990.224609375 804.581054688 c 0,9,10
 880 890 880 890 879.918945312 982.454101562 c 0,11,12
 880 1044 880 1044 917.129882812 1092.66699219 c 0,13,14
 947.315576134 1132.41555105 947.315576134 1132.41555105 1018.85253906 1161.98632812 c 2,15,-1
 1689.37109375 1439.15429688 l 1,16,-1
 1689.37109375 1258.82714844 l 1,17,-1
 1034.65429688 987.172851562 l 1,18,-1
 1379.50292969 706.112304688 l 2,19,20
 1539 576 1539 576 1536.21777344 378.377929688 c 0,21,22
 1531 0 1531 0 1025.61230469 0 c 2,23,-1
 783.061523438 0 l 2,24,25
 106 0 106 0 106.16015625 463.875 c 0,26,27
 106 563 106 563 133.489257812 685 c 1,28,-1
 289.356445312 655 l 1,29,30
 271 569 271 569 271.424804688 482.515625 c 0,0,1
EndSplineSet
Validated: 33
Substitution2: "'init' Initial Forms in Arabic lookup 13 subtable" uniFB90
Substitution2: "'medi' Medial Forms in Arabic lookup 11 subtable" uniFB91
Substitution2: "'fina' Terminal Forms in Arabic lookup 9 subtable" uniFB8F
EndChar

StartChar: afii57514
Encoding: 1722 1722 83
GlifName: afii57514
Width: 1600
VWidth: 2950
GlyphClass: 2
Flags: W
AnchorPoint: "Anchor-10" 807.479 1235.75 basechar 0
AnchorPoint: "Anchor-7" 838.023 -685.042 basechar 0
LayerCount: 2
Fore
SplineSet
1354.97265625 573.43359375 m 1,0,1
 1411 404 1411 404 1410.625 213 c 0,2,3
 1410 -33 1410 -33 1309 -180.47265625 c 0,4,5
 1158 -401 1158 -401 791 -401 c 0,6,7
 610 -401 610 -401 471 -329.172851562 c 0,8,9
 214 -196 214 -196 214.756835938 166.0390625 c 0,10,11
 215 324 215 324 280.4609375 513.120117188 c 1,12,-1
 437.90625 467.790039062 l 1,13,14
 384 300 384 300 384.272460938 167.859375 c 0,15,16
 385 -228 385 -228 803.40234375 -229.203125 c 0,17,18
 1068 -230 1068 -230 1173.68066406 -68.43359375 c 0,19,20
 1246 42 1246 42 1246.609375 231.943359375 c 0,21,22
 1247 362 1247 362 1188.203125 532.823242188 c 1,23,-1
 1354.97265625 573.43359375 l 1,0,1
EndSplineSet
Validated: 545
Substitution2: "'init' Initial Forms in Arabic lookup 13 subtable" uni06BA.init
Substitution2: "'medi' Medial Forms in Arabic lookup 11 subtable" uni06BA.medi
Substitution2: "'fina' Terminal Forms in Arabic lookup 9 subtable" uniFB9F
EndChar

StartChar: uni06F4
Encoding: 1780 1780 90
GlifName: uni06F_4
Width: 1600
VWidth: 2952
GlyphClass: 2
Flags: W
LayerCount: 2
Fore
SplineSet
1283.33496094 1330.42285156 m 1,0,-1
 1240.33984375 1158.03417969 l 1,1,2
 1163 1189 1163 1189 1080.23535156 1188.92675781 c 0,3,4
 977 1189 977 1189 907.057617188 1137.72753906 c 0,5,6
 791 1051 791 1051 776.663085938 917.193359375 c 0,7,8
 772 872 772 872 857.494140625 827.66796875 c 0,9,10
 928 791 928 791 1052.94238281 790.590820312 c 0,11,12
 1193 791 1193 791 1315.12207031 840.52734375 c 1,13,-1
 1338.44921875 665.890625 l 1,14,15
 1214 611 1214 611 1074.0078125 611.180664062 c 0,16,-1
 1073.21777344 611.181640625 l 2,17,18
 797 612 797 612 677.182617188 756.000976562 c 1,19,-1
 678.708984375 745.439453125 l 2,20,21
 714.115234375 499.198242188 714.115234375 499.198242188 714.115234375 278.771484375 c 2,22,-1
 714.115234375 11.5537109375 l 1,23,-1
 534.796875 11.5537109375 l 1,24,-1
 534.791992188 281.91796875 l 2,25,26
 535 923 535 923 344.876953125 1307.90820312 c 1,27,-1
 509.573242188 1365.96386719 l 1,28,29
 565 1206 565 1206 631.536132812 1006.83789062 c 1,30,-1
 646.734375 1057 l 2,31,32
 691 1203 691 1203 796 1290 c 0,33,34
 904 1380 904 1380 1055.04785156 1379.43164062 c 0,35,36
 1176 1379 1176 1379 1283.33496094 1330.42285156 c 1,0,-1
EndSplineSet
Validated: 33
PairPos2: "'kern' Horizontal Kerning lookup 15-4" uni06F6 dx=-43 dy=0 dh=-43 dv=0 dx=0 dy=0 dh=0 dv=0
PairPos2: "'kern' Horizontal Kerning lookup 15-4" uni06F8 dx=-100 dy=0 dh=-100 dv=0 dx=0 dy=0 dh=0 dv=0
PairPos2: "'kern' Horizontal Kerning lookup 15-4" uni06F7 dx=-43 dy=0 dh=-43 dv=0 dx=0 dy=0 dh=0 dv=0
PairPos2: "'kern' Horizontal Kerning lookup 15-4" uni06F5 dx=-64 dy=0 dh=-64 dv=0 dx=0 dy=0 dh=0 dv=0
EndChar

StartChar: uni06F5
Encoding: 1781 1781 91
GlifName: uni06F_5
Width: 1600
VWidth: 2952
GlyphClass: 2
Flags: W
LayerCount: 2
Fore
SplineSet
443.965820312 339.41015625 m 0,0,1
 444 198 444 198 538.05078125 197.844726562 c 0,2,3
 687 198 687 198 749.71484375 492.583007812 c 1,4,-1
 874.022460938 492.477539062 l 1,5,6
 924 194 924 194 1059.25683594 194.079101562 c 0,7,8
 1164 194 1164 194 1163.97851562 339.67578125 c 0,9,10
 1164 664 1164 664 789 1040.5703125 c 1,11,12
 444 586 444 586 443.965820312 339.41015625 c 0,0,1
523.447265625 11.9833984375 m 0,13,14
 269 12 269 12 269.2421875 339.344726562 c 0,15,16
 269 652.80078125 269 652.80078125 653.814453125 1169.56445312 c 2,17,-1
 655.415039062 1171.71386719 l 1,18,-1
 653.458007812 1173.54589844 l 1,19,-1
 599.18359375 1224.34960938 l 1,20,-1
 723.442382812 1376.19042969 l 1,21,-1
 848.700195312 1257.3671875 l 1,22,23
 1340 775 1340 775 1339.44238281 349.259765625 c 0,24,25
 1339 12 1339 12 1074.30957031 11.943359375 c 0,26,27
 888 12 888 12 812.232421875 223.266601562 c 1,28,29
 741 12 741 12 523.447265625 11.9833984375 c 0,13,14
EndSplineSet
Validated: 33
PairPos2: "'kern' Horizontal Kerning lookup 15-4" uni06F9 dx=-35 dy=0 dh=-35 dv=0 dx=0 dy=0 dh=0 dv=0
PairPos2: "'kern' Horizontal Kerning lookup 15-4" uni06F8 dx=-38 dy=0 dh=-38 dv=0 dx=0 dy=0 dh=0 dv=0
PairPos2: "'kern' Horizontal Kerning lookup 15-4" uni06F7 dx=-100 dy=0 dh=-100 dv=0 dx=0 dy=0 dh=0 dv=0
PairPos2: "'kern' Horizontal Kerning lookup 15-4" uni06F6 dx=-42 dy=0 dh=-42 dv=0 dx=0 dy=0 dh=0 dv=0
PairPos2: "'kern' Horizontal Kerning lookup 15-4" uni06F4 dx=-42 dy=0 dh=-42 dv=0 dx=0 dy=0 dh=0 dv=0
PairPos2: "'kern' Horizontal Kerning lookup 15-4" uni06F3 dx=-100 dy=0 dh=-100 dv=0 dx=0 dy=0 dh=0 dv=0
PairPos2: "'kern' Horizontal Kerning lookup 15-4" uni06F2 dx=-100 dy=0 dh=-100 dv=0 dx=0 dy=0 dh=0 dv=0
EndChar

StartChar: uni06F6
Encoding: 1782 1782 92
GlifName: uni06F_6
Width: 1600
VWidth: 2952
GlyphClass: 2
Flags: W
LayerCount: 2
Fore
SplineSet
1032.49902344 1174.92382812 m 1,0,1
 980 1180 980 1180 917.673828125 1180.46582031 c 0,2,3
 726 1180 726 1180 649 1093.24804688 c 0,4,5
 592 1029 592 1029 591.594726562 953.765625 c 0,6,7
 592 743 592 743 965.764648438 742.364257812 c 1,8,-1
 967.079101562 742.666992188 l 1,9,10
 1168 852 1168 852 1250.87988281 885.765625 c 1,11,-1
 1261.55664062 695.63671875 l 1,12,13
 813 494 813 494 598.25390625 -28.4091796875 c 1,14,-1
 429.010742188 28.2734375 l 1,15,16
 552 336 552 336 804.650390625 585.670898438 c 1,17,18
 406 624 406 624 407.64453125 958.891601562 c 0,19,20
 408 1053 408 1053 446.403320312 1132.42578125 c 0,21,22
 563 1368 563 1368 886.01171875 1366.40820312 c 0,23,24
 966 1366 966 1366 1058.36523438 1352.23242188 c 1,25,-1
 1032.49902344 1174.92382812 l 1,0,1
EndSplineSet
Validated: 33
PairPos2: "'kern' Horizontal Kerning lookup 15-4" uni06F8 dx=-43 dy=0 dh=-43 dv=0 dx=0 dy=0 dh=0 dv=0
PairPos2: "'kern' Horizontal Kerning lookup 15-4" uni06F7 dx=-43 dy=0 dh=-43 dv=0 dx=0 dy=0 dh=0 dv=0
PairPos2: "'kern' Horizontal Kerning lookup 15-4" uni06F5 dx=-43 dy=0 dh=-43 dv=0 dx=0 dy=0 dh=0 dv=0
EndChar

StartChar: uniFB8F
Encoding: 64399 64399 107
GlifName: uniF_B_8F_
Width: 1600
VWidth: 2950
GlyphClass: 2
Flags: W
AnchorPoint: "Anchor-10" 673.878 1360.89 basechar 0
AnchorPoint: "Anchor-7" 750.268 -238.468 basechar 0
LayerCount: 2
Fore
SplineSet
583.061523438 179.993164062 m 2,0,1
 583.061523438 179.993164062 583.061523438 179.993164062 824.782226562 179.9921875 c 2,2,3
 1168 180 1168 180 1170.72460938 383.111328125 c 0,4,5
 1172 479 1172 479 1089.71972656 561.404296875 c 0,6,7
 1041 610 1041 610 790.224609375 804.581054688 c 0,8,9
 680 890 680 890 679.918945312 982.454101562 c 0,10,11
 680 1044 680 1044 716.365234375 1092.49023438 c 0,12,13
 747.325334212 1132.41958468 747.325334212 1132.41958468 818.852539062 1161.98632812 c 2,14,-1
 1489.37109375 1439.15429688 l 1,15,-1
 1489.37109375 1258.82714844 l 1,16,-1
 837.845703125 988.420898438 l 1,17,-1
 834.654296875 987.172851562 l 1,18,-1
 837.310546875 985.0078125 l 1,19,-1
 1179.50097656 706.114257812 l 2,20,21
 1329 584 1329 584 1336.21875 378.2890625 c 0,22,23
 1344.00026826 179.993164062 1344.00026826 179.993164062 1607.9140625 179.993164062 c 2,24,-1
 1624.24804688 179.993164062 l 2,25,26
 1642.32421875 180.00012485 1642.32421875 180.00012485 1642.32421875 105.174804688 c 2,27,-1
 1642.32421875 86.3125 l 2,28,29
 1642 0 1642 0 1624.24609375 0 c 2,30,-1
 1607.80761719 0 l 2,31,32
 1330 0 1330 0 1257.34472656 145.899414062 c 1,33,34
 1154 0 1154 0 825.612304688 0 c 2,35,-1
 583.061523438 0 l 2,36,37
 106 0 106 0 106.16015625 463.875 c 0,38,39
 106 563 106 563 133.489257812 685 c 1,40,-1
 289.356445312 655 l 1,41,42
 271 569 271 569 271.424804688 482.515625 c 0,43,44
 273 180 273 180 583.061523438 179.993164062 c 2,0,1
EndSplineSet
Validated: 33
EndChar

StartChar: uniFB9F
Encoding: 64415 64415 115
GlifName: uniF_B_9F_
Width: 1600
VWidth: 2950
GlyphClass: 2
Flags: W
AnchorPoint: "Anchor-10" 713.458 1364.61 basechar 0
AnchorPoint: "Anchor-7" 605.902 -802.086 basechar 0
LayerCount: 2
Fore
SplineSet
1316.84863281 375.262695312 m 2,0,1
 1340.30285654 275.632867506 1340.30285654 275.632867506 1367.95800781 242.108398438 c 0,2,3
 1420.00081828 179.999023438 1420.00081828 179.999023438 1499.02050781 179.999023438 c 2,4,-1
 1598.13476562 179.999023438 l 2,5,6
 1616.21875 180.000011957 1616.21875 180.000011957 1616.21875 109.889648438 c 2,7,-1
 1616.21875 86.31640625 l 2,8,9
 1616 0 1616 0 1598.13671875 0 c 2,10,-1
 1503.41894531 0 l 2,11,12
 1400 0 1400 0 1338.26464844 58.376953125 c 1,13,14
 1323 -124 1323 -124 1234 -251.666992188 c 0,15,16
 1081 -468 1081 -468 720.99609375 -467.998046875 c 0,17,18
 540 -468 540 -468 400.99609375 -396.170898438 c 0,19,20
 144 -263 144 -263 144.752929688 99.041015625 c 0,21,22
 145 257 145 257 210.45703125 446.122070312 c 1,23,-1
 368.90234375 400.791992188 l 1,24,25
 315 233 315 233 315.268554688 100.861328125 c 0,26,27
 316 -295 316 -295 734.3984375 -296.201171875 c 0,28,29
 999 -297 999 -297 1104.67675781 -135.431640625 c 0,30,31
 1177 -25 1177 -25 1177.60546875 164.9453125 c 0,32,33
 1178 295 1178 295 1119.19921875 465.825195312 c 1,34,-1
 1285.96875 506.435546875 l 1,35,-1
 1316.84863281 375.262695312 l 2,0,1
EndSplineSet
Validated: 33
EndChar

StartChar: uniFBE8
Encoding: 64488 64488 118
GlifName: uniF_B_E_8
Width: 1600
VWidth: 2950
GlyphClass: 2
Flags: W
AnchorPoint: "Anchor-10" 1151.38 1351 basechar 0
AnchorPoint: "Anchor-7" 1143.42 -225.625 basechar 0
LayerCount: 2
Fore
SplineSet
968.673828125 0 m 2,0,-1
 -6.9384765625 0 l 2,1,2
 -62.7783203125 0 -62.7783203125 0 -62.7783203125 86.3134765625 c 2,3,-1
 -62.7783203125 105.182617188 l 2,4,5
 -62.9999797455 179.993164062 -62.9999797455 179.993164062 -6.9384765625 179.993164062 c 2,6,-1
 978.684570312 179.993164062 l 2,7,8
 1210 180 1210 180 1210.03222656 459.203125 c 0,9,10
 1210 565 1210 565 1182.33984375 685.633789062 c 1,11,-1
 1345.41992188 715.629882812 l 1,12,13
 1372 579 1372 579 1371.64257812 462.950195312 c 0,14,15
 1372 0 1372 0 968.673828125 0 c 2,0,-1
EndSplineSet
Validated: 33
EndChar

StartChar: uniFBE9
Encoding: 64489 64489 119
GlifName: uniF_B_E_9
Width: 1600
VWidth: 2950
GlyphClass: 2
Flags: W
AnchorPoint: "Anchor-10" 675.665 1295.09 basechar 0
AnchorPoint: "Anchor-7" 700.537 -179.742 basechar 0
LayerCount: 2
Fore
SplineSet
792.668945312 132.932617188 m 1,0,1
 699 0 699 0 105.759765625 0 c 2,2,-1
 -8.1171875 0 l 2,3,4
 -62.7783203125 0 -62.7783203125 0 -62.7783203125 86.3134765625 c 2,5,-1
 -62.7783203125 105.192382812 l 2,6,7
 -62.9999797429 179.993164062 -62.9999797429 179.993164062 -8.1171875 179.993164062 c 2,8,-1
 101.012695312 179.993164062 l 2,9,10
 696.93611477 179.999999267 696.93611477 179.999999267 711.506835938 373.569335938 c 2,11,-1
 726.401367188 571.440429688 l 1,12,-1
 847.427734375 571.440429688 l 1,13,-1
 862.323242188 371.49609375 l 2,14,15
 877.000523924 179.993164062 877.000523924 179.993164062 1596.57421875 179.993164062 c 2,16,-1
 1604.65234375 179.993164062 l 2,17,18
 1622.73144531 179.999899942 1622.73144531 179.999899942 1622.73144531 96.322265625 c 2,19,-1
 1622.73144531 86.3408203125 l 2,20,21
 1623 0 1623 0 1604.65039062 0 c 2,22,-1
 1595.00683594 0 l 2,23,24
 863 0 863 0 792.668945312 132.932617188 c 1,0,1
EndSplineSet
Validated: 33
EndChar

StartChar: uniFE73
Encoding: 65139 65139 127
GlifName: uniF_E_73
Width: 1600
VWidth: 2950
GlyphClass: 2
Flags: W
AnchorPoint: "Anchor-10" 314.943 1226.47 basechar 0
AnchorPoint: "Anchor-7" 374.943 -226.304 basechar 0
LayerCount: 2
Fore
SplineSet
288.336914062 444.018554688 m 2,0,1
 288.336914062 304.58984375 288.336914062 304.58984375 415.205078125 230.6796875 c 0,2,3
 487.870117188 188.342773438 487.870117188 188.342773438 608.00390625 188.342773438 c 2,4,-1
 676.674804688 188.342773438 l 1,5,-1
 676.674804688 1.5537109375 l 1,6,-1
 528.006835938 1.5537109375 l 2,7,8
 338.217773438 1.5537109375 338.217773438 1.5537109375 219.880859375 119.890625 c 128,-1,9
 101.544921875 238.2265625 101.544921875 238.2265625 101.544921875 426.563476562 c 2,10,-1
 101.544921875 448.69140625 l 1,11,-1
 288.336914062 448.69140625 l 1,12,-1
 288.336914062 444.018554688 l 2,0,1
EndSplineSet
Validated: 1
EndChar

StartChar: uniFE8E
Encoding: 65166 65166 153
GlifName: uniF_E_8E_
Width: 1600
VWidth: 2950
GlyphClass: 2
Flags: W
AnchorPoint: "Anchor-10" 792.697 1529.11 basechar 0
AnchorPoint: "Anchor-7" 866.078 -221.903 basechar 0
LayerCount: 2
Fore
SplineSet
1616.61816406 86.294921875 m 1,0,1
 1618 0 1618 0 1598.53710938 0 c 2,2,-1
 1067.65820312 0 l 2,3,4
 716.283203125 0 716.283203125 0 716.283203125 436.395507812 c 2,5,-1
 716.283203125 1396.171875 l 1,6,-1
 881.598632812 1396.171875 l 1,7,-1
 881.598632812 438.447265625 l 2,8,9
 882.000010616 179.993164062 882.000010616 179.993164062 1070.71289062 179.993164062 c 2,10,-1
 1598.5390625 179.993164062 l 2,11,12
 1616.61816406 179.999858609 1616.61816406 179.999858609 1616.61816406 105.174804688 c 2,13,-1
 1616.61816406 86.294921875 l 1,0,1
EndSplineSet
Validated: 33
EndChar

StartChar: uniFEA2
Encoding: 65186 65186 173
GlifName: uniF_E_A_2
Width: 1600
VWidth: 2950
GlyphClass: 2
Flags: W
AnchorPoint: "Anchor-10" 741.478 1214.07 basechar 0
AnchorPoint: "Anchor-7" 716.833 -828.619 basechar 0
LayerCount: 2
Fore
SplineSet
1299 601 m 1,0,-1
 1283.06445312 426.817382812 l 1,1,2
 1158 419 1158 419 1087.75976562 408.728515625 c 1,3,-1
 1087.75976562 396.134765625 l 2,4,5
 1088 180 1088 180 1560.63867188 180 c 2,6,-1
 1603.88769531 180 l 2,7,8
 1621.97851562 180 1621.97851562 180 1621.97851562 109.889648438 c 2,9,-1
 1621.97851562 86.3115234375 l 2,10,11
 1622 0 1622 0 1603.8984375 0 c 2,12,-1
 1561.49511719 0 l 2,13,14
 946.666171501 -3.9221959014e-12 946.666171501 -3.9221959014e-12 941.192382812 362.032226562 c 2,15,-1
 940.9609375 377.33984375 l 1,16,17
 383 231 383 231 383.249023438 -121.301757812 c 0,18,19
 383 -472 383 -472 916.381835938 -471.783203125 c 0,20,21
 1107 -472 1107 -472 1286.30664062 -387.446289062 c 1,22,-1
 1286.00195312 -570.739257812 l 1,23,24
 1134 -643 1134 -643 901.529296875 -643.249023438 c 0,25,26
 413 -643 413 -643 269.654296875 -369.0859375 c 0,27,28
 216 -267 216 -267 216.987304688 -136.852539062 c 0,29,30
 217 385 217 385 894 535 c 1,31,32
 605 652 605 652 529 652 c 0,33,34
 434 652 434 652 307.9296875 503.7109375 c 1,35,-1
 182.118164062 610.26171875 l 1,36,37
 334 830 334 830 515 830 c 0,38,39
 605 830 605 830 922 702 c 0,40,41
 1149 610 1149 610 1299 601 c 1,0,-1
EndSplineSet
Validated: 33
EndChar

StartChar: uniFEA3
Encoding: 65187 65187 174
GlifName: uniF_E_A_3
Width: 1600
VWidth: 2186
GlyphClass: 2
Flags: W
AnchorPoint: "Anchor-10" 723.825 1186.07 basechar 0
AnchorPoint: "Anchor-7" 663.524 -236.745 basechar 0
LayerCount: 2
Fore
SplineSet
33.0615234375 179.999023438 m 2,0,-1
 337.599609375 179.98046875 l 2,1,2
 672 180 672 180 1081 460 c 1,3,4
 685 622 685 622 602 622 c 0,5,6
 507 622 507 622 380.9296875 473.7109375 c 1,7,-1
 255.118164062 580.26171875 l 1,8,9
 407 800 407 800 588 800 c 0,10,11
 678 800 678 800 995 672 c 0,12,13
 1222 580 1222 580 1372 571 c 1,14,-1
 1354 405 l 1,15,16
 1313 398 1313 398 1234 352 c 0,17,18
 1077 261 1077 261 902 155 c 0,19,20
 646 0 646 0 331.254882812 0 c 2,21,-1
 33.0615234375 0 l 2,22,23
 -22.7783203125 0 -22.7783203125 0 -22.7783203125 86.3134765625 c 2,24,-1
 -22.7783203125 105.198242188 l 2,25,26
 -23 180 -23 180 33.0615234375 179.999023438 c 2,0,-1
EndSplineSet
Validated: 33
EndChar

StartChar: uniFEA4
Encoding: 65188 65188 175
GlifName: uniF_E_A_4
Width: 1600
VWidth: 2950
GlyphClass: 2
Flags: W
AnchorPoint: "Anchor-10" 673.825 1186.07 basechar 0
AnchorPoint: "Anchor-7" 613.524 -236.745 basechar 0
LayerCount: 2
Fore
SplineSet
287.599609375 179.98046875 m 2,0,1
 620.937165262 179.957088471 620.937165262 179.957088471 1031 460 c 1,2,3
 635 622 635 622 552 622 c 0,4,5
 457 622 457 622 330.9296875 473.7109375 c 1,6,-1
 205.118164062 580.26171875 l 1,7,8
 357 800 357 800 538 800 c 0,9,10
 628 800 628 800 945 672 c 0,11,12
 1172 580 1172 580 1322 571 c 1,13,-1
 1304 405 l 1,14,15
 1263 398 1263 398 1184 352 c 0,16,17
 1151 333 1151 333 1118 313.547851562 c 1,18,19
 1162.90588872 180.279296875 1162.90588872 180.279296875 1416.61132812 180.279296875 c 2,20,-1
 1600.38378906 180.279296875 l 2,21,22
 1618.50585938 180.007413535 1618.50585938 180.007413535 1618.50585938 109.889648438 c 2,23,-1
 1618.50585938 86.31640625 l 2,24,25
 1619 0 1619 0 1600.42773438 0 c 2,26,-1
 1411.09667969 0 l 2,27,28
 1061 0 1061 0 986 235.540039062 c 1,29,30
 920 196 920 196 852 155 c 0,31,32
 596 0 596 0 281.254882812 0 c 2,33,-1
 23.0615234375 0 l 2,34,35
 -32.7783203125 0 -32.7783203125 0 -32.7783203125 86.3134765625 c 2,36,-1
 -32.7783203125 105.198242188 l 2,37,38
 -33.0000087591 180.00295559 -33.0000087591 180.00295559 23.0615234375 179.999023438 c 2,39,-1
 287.599609375 179.98046875 l 2,0,1
EndSplineSet
Validated: 33
EndChar

StartChar: uniFEAA
Encoding: 65194 65194 181
GlifName: uniF_E_A_A_
Width: 1600
VWidth: 2950
GlyphClass: 2
Flags: W
AnchorPoint: "Anchor-7" 661.24 -233.316 basechar 0
AnchorPoint: "Anchor-10" 742.848 1203.53 basechar 0
LayerCount: 2
Fore
SplineSet
527.564453125 0.8193359375 m 0,0,1
 455 1 455 1 304.096679688 29.201171875 c 1,2,-1
 304.096679688 214.793945312 l 1,3,4
 447 185 447 185 532.981445312 185.068359375 c 0,5,6
 855 185 855 185 855.088867188 327.067382812 c 0,7,8
 854.999677 388.221467793 854.999677 388.221467793 763.69921875 607.143554688 c 2,9,-1
 662 851 l 1,10,-1
 829.620117188 915.993164062 l 1,11,-1
 990.69140625 489.153320312 l 2,12,13
 1107.00257179 179.993164062 1107.00257179 179.993164062 1228.87988281 179.993164062 c 2,14,-1
 1598.51953125 179.993164062 l 2,15,16
 1616.59765625 179.999851173 1616.59765625 179.999851173 1616.59765625 105.174804688 c 2,17,-1
 1616.59765625 86.306640625 l 2,18,19
 1617 40 1617 40 1612.20703125 21.494140625 c 0,20,21
 1607 0 1607 0 1598.51757812 0 c 2,22,-1
 1228.53222656 0 l 2,23,24
 1070.79644786 1.13686837722e-13 1070.79644786 1.13686837722e-13 973.689453125 153.071289062 c 2,25,-1
 972.205078125 155.411132812 l 1,26,-1
 970.451171875 153.265625 l 2,27,28
 845 -0 845 -0 527.564453125 0.8193359375 c 0,0,1
EndSplineSet
Validated: 33
EndChar

StartChar: uniFEAE
Encoding: 65198 65198 185
GlifName: uniF_E_A_E_
Width: 1600
VWidth: 2142
GlyphClass: 2
Flags: W
AnchorPoint: "Anchor-7" 682.969 -675.998 basechar 0
AnchorPoint: "Anchor-10" 921.256 944.2 basechar 0
LayerCount: 2
Fore
SplineSet
1132.671875 48 m 1,0,1
 1128 12 1128 12 1118 -26.626953125 c 0,2,3
 1019 -411 1019 -411 460.046875 -465.592773438 c 1,4,-1
 430.650390625 -302.475585938 l 1,5,6
 977 -258 977 -258 975.469726562 159.633789062 c 0,7,8
 975 308 975 308 883.275390625 441.0234375 c 1,9,-1
 1029.99804688 518.564453125 l 1,10,11
 1058 450 1058 450 1127 298 c 8,12,13
 1181.0004469 179.999023438 1181.0004469 179.999023438 1575.31640625 179.999023438 c 2,14,-1
 1602.57421875 179.999023438 l 2,15,16
 1620.63867188 179.99998085 1620.63867188 179.99998085 1620.63867188 110.322265625 c 2,17,-1
 1620.63867188 86.201171875 l 2,18,19
 1621 0 1621 0 1602.57421875 0 c 2,20,-1
 1585.80078125 0 l 2,21,22
 1176 0 1176 0 1132.671875 48 c 1,0,1
EndSplineSet
Validated: 33
PairPos2: "'kern' Horizontal Kerning lookup 15-2" uniFBFE dx=60 dy=0 dh=60 dv=0 dx=0 dy=0 dh=0 dv=0
PairPos2: "'kern' Horizontal Kerning lookup 15-1" uniFEE7 dx=-178 dy=0 dh=-178 dv=0 dx=0 dy=0 dh=0 dv=0
PairPos2: "'kern' Horizontal Kerning lookup 15-2" uniFB90 dx=-226 dy=0 dh=-226 dv=0 dx=0 dy=0 dh=0 dv=0
PairPos2: "'kern' Horizontal Kerning lookup 15-2" uniFB8E dx=-226 dy=0 dh=-226 dv=0 dx=0 dy=0 dh=0 dv=0
PairPos2: "'kern' Horizontal Kerning lookup 15-2" uni06A9 dx=-226 dy=0 dh=-226 dv=0 dx=0 dy=0 dh=0 dv=0
PairPos2: "'kern' Horizontal Kerning lookup 15-2" uni064A dx=-60 dy=0 dh=-60 dv=0 dx=0 dy=0 dh=0 dv=0
PairPos2: "'kern' Horizontal Kerning lookup 15-2" afii57414 dx=-60 dy=0 dh=-60 dv=0 dx=0 dy=0 dh=0 dv=0
PairPos2: "'kern' Horizontal Kerning lookup 15-2" uni0649 dx=-60 dy=0 dh=-60 dv=0 dx=0 dy=0 dh=0 dv=0
PairPos2: "'kern' Horizontal Kerning lookup 15-2" uniFEEB dx=-178 dy=0 dh=-178 dv=0 dx=0 dy=0 dh=0 dv=0
PairPos2: "'kern' Horizontal Kerning lookup 15-2" uni0647 dx=-178 dy=0 dh=-178 dv=0 dx=0 dy=0 dh=0 dv=0
PairPos2: "'kern' Horizontal Kerning lookup 15-2" uni0646 dx=-60 dy=0 dh=-60 dv=0 dx=0 dy=0 dh=0 dv=0
PairPos2: "'kern' Horizontal Kerning lookup 15-2" uniFEE3 dx=-178 dy=0 dh=-178 dv=0 dx=0 dy=0 dh=0 dv=0
PairPos2: "'kern' Horizontal Kerning lookup 15-2" uni0645 dx=-178 dy=0 dh=-178 dv=0 dx=0 dy=0 dh=0 dv=0
PairPos2: "'kern' Horizontal Kerning lookup 15-2" uniFEFB dx=-143 dy=0 dh=-143 dv=0 dx=0 dy=0 dh=0 dv=0
PairPos2: "'kern' Horizontal Kerning lookup 15-2" uniFEDF dx=-143 dy=0 dh=-143 dv=0 dx=0 dy=0 dh=0 dv=0
PairPos2: "'kern' Horizontal Kerning lookup 15-2" uni0644 dx=-60 dy=0 dh=-60 dv=0 dx=0 dy=0 dh=0 dv=0
PairPos2: "'kern' Horizontal Kerning lookup 15-2" uniFEDB dx=-226 dy=0 dh=-226 dv=0 dx=0 dy=0 dh=0 dv=0
PairPos2: "'kern' Horizontal Kerning lookup 15-2" uni0643 dx=-143 dy=0 dh=-143 dv=0 dx=0 dy=0 dh=0 dv=0
PairPos2: "'kern' Horizontal Kerning lookup 15-2" uniFED7 dx=-178 dy=0 dh=-178 dv=0 dx=0 dy=0 dh=0 dv=0
PairPos2: "'kern' Horizontal Kerning lookup 15-2" uni0642 dx=-60 dy=0 dh=-60 dv=0 dx=0 dy=0 dh=0 dv=0
PairPos2: "'kern' Horizontal Kerning lookup 15-2" uniFED3 dx=-178 dy=0 dh=-178 dv=0 dx=0 dy=0 dh=0 dv=0
PairPos2: "'kern' Horizontal Kerning lookup 15-2" uni0641 dx=-178 dy=0 dh=-178 dv=0 dx=0 dy=0 dh=0 dv=0
PairPos2: "'kern' Horizontal Kerning lookup 15-2" uniFECF dx=-178 dy=0 dh=-178 dv=0 dx=0 dy=0 dh=0 dv=0
PairPos2: "'kern' Horizontal Kerning lookup 15-2" uniFECB dx=-178 dy=0 dh=-178 dv=0 dx=0 dy=0 dh=0 dv=0
PairPos2: "'kern' Horizontal Kerning lookup 15-2" uniFEC7 dx=-178 dy=0 dh=-178 dv=0 dx=0 dy=0 dh=0 dv=0
PairPos2: "'kern' Horizontal Kerning lookup 15-2" uni0638 dx=-178 dy=0 dh=-178 dv=0 dx=0 dy=0 dh=0 dv=0
PairPos2: "'kern' Horizontal Kerning lookup 15-2" uniFEC3 dx=-178 dy=0 dh=-178 dv=0 dx=0 dy=0 dh=0 dv=0
PairPos2: "'kern' Horizontal Kerning lookup 15-2" uni0637 dx=-178 dy=0 dh=-178 dv=0 dx=0 dy=0 dh=0 dv=0
PairPos2: "'kern' Horizontal Kerning lookup 15-2" uniFEBF dx=-178 dy=0 dh=-178 dv=0 dx=0 dy=0 dh=0 dv=0
PairPos2: "'kern' Horizontal Kerning lookup 15-2" uni0636 dx=-178 dy=0 dh=-178 dv=0 dx=0 dy=0 dh=0 dv=0
PairPos2: "'kern' Horizontal Kerning lookup 15-2" uniFEBB dx=-178 dy=0 dh=-178 dv=0 dx=0 dy=0 dh=0 dv=0
PairPos2: "'kern' Horizontal Kerning lookup 15-2" uni0635 dx=-178 dy=0 dh=-178 dv=0 dx=0 dy=0 dh=0 dv=0
PairPos2: "'kern' Horizontal Kerning lookup 15-2" uniFEB7 dx=-178 dy=0 dh=-178 dv=0 dx=0 dy=0 dh=0 dv=0
PairPos2: "'kern' Horizontal Kerning lookup 15-2" uni0634 dx=-178 dy=0 dh=-178 dv=0 dx=0 dy=0 dh=0 dv=0
PairPos2: "'kern' Horizontal Kerning lookup 15-2" uniFEB3 dx=-178 dy=0 dh=-178 dv=0 dx=0 dy=0 dh=0 dv=0
PairPos2: "'kern' Horizontal Kerning lookup 15-2" uni0633 dx=-178 dy=0 dh=-178 dv=0 dx=0 dy=0 dh=0 dv=0
PairPos2: "'kern' Horizontal Kerning lookup 15-2" uni0630 dx=-178 dy=0 dh=-178 dv=0 dx=0 dy=0 dh=0 dv=0
PairPos2: "'kern' Horizontal Kerning lookup 15-2" uni062F dx=-178 dy=0 dh=-178 dv=0 dx=0 dy=0 dh=0 dv=0
PairPos2: "'kern' Horizontal Kerning lookup 15-2" uniFEA7 dx=-178 dy=0 dh=-178 dv=0 dx=0 dy=0 dh=0 dv=0
PairPos2: "'kern' Horizontal Kerning lookup 15-2" uniFEA3 dx=-178 dy=0 dh=-178 dv=0 dx=0 dy=0 dh=0 dv=0
PairPos2: "'kern' Horizontal Kerning lookup 15-2" uniFE9F dx=-178 dy=0 dh=-178 dv=0 dx=0 dy=0 dh=0 dv=0
PairPos2: "'kern' Horizontal Kerning lookup 15-2" uniFE9B dx=-178 dy=0 dh=-178 dv=0 dx=0 dy=0 dh=0 dv=0
PairPos2: "'kern' Horizontal Kerning lookup 15-2" uni062B dx=-178 dy=0 dh=-178 dv=0 dx=0 dy=0 dh=0 dv=0
PairPos2: "'kern' Horizontal Kerning lookup 15-2" uniFE97 dx=-178 dy=0 dh=-178 dv=0 dx=0 dy=0 dh=0 dv=0
PairPos2: "'kern' Horizontal Kerning lookup 15-2" uni062A dx=-178 dy=0 dh=-178 dv=0 dx=0 dy=0 dh=0 dv=0
PairPos2: "'kern' Horizontal Kerning lookup 15-2" uni0629 dx=-178 dy=0 dh=-178 dv=0 dx=0 dy=0 dh=0 dv=0
PairPos2: "'kern' Horizontal Kerning lookup 15-2" uni0628 dx=-178 dy=0 dh=-178 dv=0 dx=0 dy=0 dh=0 dv=0
PairPos2: "'kern' Horizontal Kerning lookup 15-2" uni0627 dx=-143 dy=0 dh=-143 dv=0 dx=0 dy=0 dh=0 dv=0
PairPos2: "'kern' Horizontal Kerning lookup 15-2" uni0623 dx=-143 dy=0 dh=-143 dv=0 dx=0 dy=0 dh=0 dv=0
PairPos2: "'kern' Horizontal Kerning lookup 15-2" uni0622 dx=-143 dy=0 dh=-143 dv=0 dx=0 dy=0 dh=0 dv=0
PairPos2: "'kern' Horizontal Kerning lookup 15-2" uni0621 dx=-178 dy=0 dh=-178 dv=0 dx=0 dy=0 dh=0 dv=0
PairPos2: "'kern' Horizontal Kerning lookup 15-2" uniFB94 dx=-226 dy=0 dh=-226 dv=0 dx=0 dy=0 dh=0 dv=0
PairPos2: "'kern' Horizontal Kerning lookup 15-2" uniFB92 dx=-226 dy=0 dh=-226 dv=0 dx=0 dy=0 dh=0 dv=0
PairPos2: "'kern' Horizontal Kerning lookup 15-2" uni06AF dx=-226 dy=0 dh=-226 dv=0 dx=0 dy=0 dh=0 dv=0
PairPos2: "'kern' Horizontal Kerning lookup 15-2" afii57506 dx=-178 dy=0 dh=-178 dv=0 dx=0 dy=0 dh=0 dv=0
PairPos2: "'kern' Horizontal Kerning lookup 15-2" afii57440 dx=-178 dy=0 dh=-178 dv=0 dx=0 dy=0 dh=0 dv=0
PairPos2: "'kern' Horizontal Kerning lookup 15-2" uniFE8B dx=-178 dy=0 dh=-178 dv=0 dx=0 dy=0 dh=0 dv=0
EndChar

StartChar: uniFEB2
Encoding: 65202 65202 189
GlifName: uniF_E_B_2
Width: 1600
VWidth: 2950
GlyphClass: 2
Flags: W
AnchorPoint: "Anchor-7" -8.098 -704.086 basechar 0
AnchorPoint: "Anchor-10" 940.53 1055.1 basechar 0
LayerCount: 2
Fore
SplineSet
20.99609375 -467.998046875 m 0,0,1
 -140 -468 -140 -468 -279.00390625 -396.170898438 c 0,2,3
 -536 -263 -536 -263 -535.247070312 99.041015625 c 0,4,5
 -535 257 -535 257 -469.54296875 446.122070312 c 1,6,-1
 -311.09765625 400.791992188 l 1,7,8
 -365 233 -365 233 -364.731445312 100.861328125 c 0,9,10
 -365 -296 -365 -296 34.3984375 -296.201171875 c 0,11,12
 406 -296 406 -296 407.60546875 165.9453125 c 0,13,14
 408 296 408 296 349.19921875 466.825195312 c 1,15,-1
 515.96875 507.435546875 l 1,16,-1
 546.848632812 376.262695312 l 2,17,18
 593 180 593 180 783.500976562 179.9921875 c 0,19,20
 877.147241839 180.000012303 877.147241839 180.000012303 895.8125 380.504882812 c 2,21,-1
 910.696289062 540.388671875 l 1,22,-1
 1031.74707031 540.388671875 l 1,23,-1
 1046.63085938 380.442382812 l 2,24,25
 1065 181 1065 181 1226.92675781 180.45703125 c 0,26,27
 1299.18852194 179.998804544 1299.18852194 179.998804544 1309.41699219 377.317382812 c 2,28,-1
 1319.41699219 570.228515625 l 1,29,-1
 1442.36621094 570.228515625 l 1,30,-1
 1457.36621094 378.41796875 l 2,31,32
 1473.00803578 179.898013046 1473.00803578 179.898013046 1648.75488281 179.916992188 c 2,33,-1
 1666.84082031 179.918945312 l 2,34,35
 1684.92285156 179.999655643 1684.92285156 179.999655643 1684.92285156 105.092773438 c 2,36,-1
 1684.92285156 86.2783203125 l 2,37,38
 1685.00007248 -0.0810546875 1685.00007248 -0.0810546875 1666.84179688 -0.0810546875 c 2,39,-1
 1650.51757812 -0.0810546875 l 2,40,41
 1445 -0 1445 -0 1390.24511719 131.383789062 c 1,42,43
 1295 -41 1295 -41 1083 85 c 0,44,45
 1007 130 1007 130 995.64453125 116.200195312 c 0,46,47
 916 32 916 32 911 31 c 0,48,49
 704 17 704 17 600.264648438 100.376953125 c 1,50,51
 464 -252 464 -252 464 -251.666992188 c 0,52,53
 315 -468 315 -468 20.99609375 -467.998046875 c 0,0,1
EndSplineSet
Validated: 33
EndChar

StartChar: uniFEB3
Encoding: 65203 65203 190
GlifName: uniF_E_B_3
Width: 1600
VWidth: 2950
GlyphClass: 2
Flags: W
AnchorPoint: "Anchor-10" 909.961 1098.67 basechar 0
AnchorPoint: "Anchor-7" 769.534 -238.974 basechar 0
LayerCount: 2
Fore
SplineSet
1179.48339844 180.5 m 8,0,1
 1336 179 1336 179 1336.08398438 420.196289062 c 0,2,3
 1336 526 1336 526 1308.39160156 646.626953125 c 1,4,-1
 1471.47167969 676.623046875 l 1,5,6
 1498 540 1498 540 1497.69433594 423.943359375 c 0,7,8
 1496 1 1496 1 1184.72558594 0.9931640625 c 16,9,10
 1017 1 1017 1 951.16796875 133.11328125 c 1,11,12
 856 0 856 0 688.033203125 0.5 c 0,13,14
 477 1 477 1 392.020507812 132.940429688 c 1,15,16
 317 0 317 0 78.849609375 0 c 2,17,-1
 -6.9384765625 0 l 2,18,19
 -62.7783203125 0 -62.7783203125 0 -62.7783203125 86.3134765625 c 2,20,-1
 -62.7783203125 105.192382812 l 2,21,22
 -62.9999971061 179.999023438 -62.9999971061 179.999023438 -6.9384765625 179.999023438 c 2,23,-1
 81.00390625 179.999023438 l 2,24,25
 301.240763426 180.000001069 301.240763426 180.000001069 320.135742188 381.643554688 c 2,26,-1
 335.01953125 540.48046875 l 1,27,-1
 455.990234375 540.469726562 l 1,28,-1
 470.874023438 380.5234375 l 2,29,30
 490 180 490 180 688.063476562 180.073242188 c 0,31,32
 851.703184114 180.000132609 851.703184114 180.000132609 870.375976562 380.5859375 c 2,33,-1
 885.259765625 540.469726562 l 1,34,-1
 1006.31054688 540.469726562 l 1,35,-1
 1021.19433594 380.5234375 l 2,36,37
 1040 182 1040 182 1179.48339844 180.5 c 8,0,1
EndSplineSet
Validated: 33
EndChar

StartChar: uniFEB4
Encoding: 65204 65204 191
GlifName: uniF_E_B_4
Width: 1600
VWidth: 2943
GlyphClass: 2
Flags: W
AnchorPoint: "Anchor-10" 909.961 1098.67 basechar 0
AnchorPoint: "Anchor-7" 639.534 -238.974 basechar 0
LayerCount: 2
Fore
SplineSet
1324.796875 131.466796875 m 1,0,1
 1249 1 1249 1 1104.72558594 0.9931640625 c 0,2,3
 907 1 907 1 851.16796875 133.11328125 c 1,4,5
 756 0 756 0 576.033203125 0.5 c 0,6,7
 477 1 477 1 392.020507812 132.940429688 c 1,8,9
 317 0 317 0 78.849609375 0 c 2,10,-1
 -6.9384765625 0 l 2,11,12
 -62.7783203125 0 -62.7783203125 0 -62.7783203125 86.3134765625 c 2,13,-1
 -62.7783203125 105.192382812 l 2,14,15
 -62.9999971061 179.999023438 -62.9999971061 179.999023438 -6.9384765625 179.999023438 c 2,16,-1
 81.00390625 179.999023438 l 2,17,18
 301.240763426 180.000001069 301.240763426 180.000001069 320.135742188 381.643554688 c 2,19,-1
 335.01953125 540.48046875 l 1,20,-1
 455.990234375 540.469726562 l 1,21,-1
 470.874023438 380.5234375 l 2,22,23
 490 180 490 180 588.063476562 180.073242188 c 0,24,25
 751.703184115 180.000132609 751.703184115 180.000132609 770.375976562 380.5859375 c 2,26,-1
 785.259765625 540.469726562 l 1,27,-1
 906.310546875 540.469726562 l 1,28,-1
 921.194335938 380.5234375 l 2,29,30
 940 182 940 182 1101.48925781 180.538085938 c 0,31,32
 1233.74791187 180.001023653 1233.74791187 180.001023653 1243.98046875 377.3984375 c 2,33,-1
 1253.98046875 570.309570312 l 1,34,-1
 1376.9296875 570.309570312 l 1,35,-1
 1391.9296875 378.499023438 l 2,36,37
 1407.0015945 179.978997959 1407.0015945 179.978997959 1583.31835938 179.998046875 c 2,38,-1
 1601.39648438 180 l 2,39,40
 1619.48632812 180 1619.48632812 180 1619.48632812 105.173828125 c 2,41,-1
 1619.48632812 86.3720703125 l 2,42,43
 1619 0 1619 0 1601.40527344 0 c 2,44,-1
 1585.08007812 0 l 2,45,46
 1380 0 1380 0 1324.796875 131.466796875 c 1,0,1
EndSplineSet
Validated: 33
EndChar

StartChar: uniFEBA
Encoding: 65210 65210 197
GlifName: uniF_E_B_A_
Width: 1600
VWidth: 2950
GlyphClass: 2
Flags: W
AnchorPoint: "Anchor-7" -48.098 -704.086 basechar 0
AnchorPoint: "Anchor-10" 1742.53 1210.1 basechar 0
LayerCount: 2
Fore
SplineSet
-20.00390625 -467.998046875 m 0,0,1
 -89 -468 -89 -468 -229.00390625 -396.170898438 c 0,2,3
 -486 -264 -486 -264 -485.247070312 99.041015625 c 0,4,5
 -485 257 -485 257 -419.54296875 446.122070312 c 1,6,-1
 -261.09765625 400.791992188 l 1,7,8
 -315 233 -315 233 -314.731445312 100.861328125 c 0,9,10
 -314 -294 -314 -294 -5.6015625 -296.201171875 c 24,11,12
 436 -298 436 -298 437.60546875 164.9453125 c 0,13,14
 438 295 438 295 379.19921875 465.825195312 c 1,15,-1
 545.96875 506.435546875 l 1,16,-1
 576.848632812 375.262695312 l 2,17,18
 615 214 615 214 665.083007812 209.373046875 c 1,19,20
 909 630 909 630 1122.83691406 662.423828125 c 0,21,22
 1380.68126593 704.18621872 1380.68126593 704.18621872 1438.62695312 619.911132812 c 0,23,24
 1501 529 1501 529 1500.87402344 402.149414062 c 0,25,26
 1501 289 1501 289 1422.24023438 180.739257812 c 1,27,-1
 1635.73828125 180 l 2,28,-1
 1654.37109375 180 l 2,29,30
 1672.49316406 180 1672.49316406 180 1672.49316406 105.174804688 c 2,31,-1
 1672.49316406 86.31640625 l 2,32,33
 1672 0 1672 0 1654.41210938 0 c 2,34,-1
 1630.2265625 0 l 2,35,36
 1357 0 1357 0 1267.1796875 72.1123046875 c 1,37,38
 1141 0 1141 0 1003.15136719 0 c 2,39,-1
 952.340820312 0 l 2,40,41
 714 0 714 0 597.264648438 58.376953125 c 1,42,43
 582 -124 582 -124 493 -251.666992188 c 0,44,45
 342 -468 342 -468 -20.00390625 -467.998046875 c 0,0,1
854.65625 180.416992188 m 1,46,-1
 1008.75195312 180.416992188 l 2,47,48
 1327 180 1327 180 1324.66894531 399.1640625 c 0,49,50
 1324 489 1324 489 1269.54394531 500.215820312 c 0,51,52
 1177 519 1177 519 1052.11328125 438.573242188 c 0,53,54
 990.288034432 398.188148018 990.288034432 398.188148018 852.971679688 183.495117188 c 2,55,-1
 851.002929688 180.416992188 l 1,56,-1
 854.65625 180.416992188 l 1,46,-1
EndSplineSet
Validated: 33
EndChar

StartChar: uniFEBB
Encoding: 65211 65211 198
GlifName: uniF_E_B_B_
Width: 1600
VWidth: 2950
GlyphClass: 2
Flags: W
AnchorPoint: "Anchor-10" 1134.91 1212.52 basechar 0
AnchorPoint: "Anchor-7" 699.209 -242.348 basechar 0
LayerCount: 2
Fore
SplineSet
271.079101562 376.12890625 m 2,0,1
 271.079101562 376.12890625 271.079101562 376.12890625 285.973632812 574 c 1,2,-1
 407 574 l 1,3,-1
 421.895507812 374.055664062 l 2,4,5
 433 227 433 227 517.75390625 208.848632812 c 1,6,7
 851 772 851 772 1105.75195312 771.423828125 c 0,8,9
 1320 771 1320 771 1425.78125 617.892578125 c 0,10,11
 1486 531 1486 531 1485.57910156 415.791015625 c 0,12,13
 1485 0 1485 0 856.133789062 0 c 2,14,15
 839.856921264 -11.0975509282 839.856921264 -11.0975509282 805.323242188 0 c 2,16,17
 436 0 436 0 348.51953125 146.795898438 c 1,18,19
 241 0 241 0 9.984375 0 c 2,20,-1
 -6.9384765625 0 l 2,21,22
 -62.7783203125 0 -62.7783203125 0 -62.7783203125 86.3134765625 c 2,23,-1
 -62.7783203125 105.192382812 l 2,24,25
 -63 180 -63 180 -5.9384765625 180 c 2,26,-1
 10.1103515625 180 l 2,27,28
 256 180 256 180 271.079101562 376.12890625 c 2,0,1
1105.3046875 588.573242188 m 0,29,30
 966 588 966 588 703.985351562 180.416992188 c 1,31,-1
 861.73828125 180.534179688 l 2,32,33
 1307 181 1307 181 1307.64355469 397.368164062 c 0,34,35
 1308 483 1308 483 1249.90527344 536 c 128,-1,36
 1192 589 1192 589 1105.3046875 588.573242188 c 0,29,30
EndSplineSet
Validated: 33
EndChar

StartChar: uniFEBC
Encoding: 65212 65212 199
GlifName: uniF_E_B_C_
Width: 1600
VWidth: 2950
GlyphClass: 2
Flags: W
AnchorPoint: "Anchor-10" 1134.91 1212.52 basechar 0
AnchorPoint: "Anchor-7" 699.209 -242.348 basechar 0
LayerCount: 2
Fore
SplineSet
271.079101562 376.12890625 m 2,0,1
 271.079101562 376.12890625 271.079101562 376.12890625 285.973632812 574 c 1,2,-1
 407 574 l 1,3,-1
 421.895507812 374.055664062 l 2,4,5
 434 211 434 211 518.065429688 210.373046875 c 1,6,7
 849 770 849 770 1085.81933594 771.423828125 c 0,8,9
 1297 772 1297 772 1401.609375 618.911132812 c 0,10,11
 1464 528 1464 528 1463.85644531 402.149414062 c 0,12,13
 1464 289 1464 289 1385.22265625 180.739257812 c 1,14,-1
 1598.72070312 180 l 2,15,-1
 1617.35351562 180 l 2,16,17
 1635.47558594 180 1635.47558594 180 1635.47558594 105.174804688 c 2,18,-1
 1635.47558594 86.31640625 l 2,19,20
 1635 0 1635 0 1617.39453125 0 c 2,21,22
 1616.12499825 -4.55182701812 1616.12499825 -4.55182701812 1593.20898438 0 c 2,23,24
 1320 0 1320 0 1230.16210938 72.1123046875 c 1,25,26
 1104 0 1104 0 856.133789062 0 c 2,27,-1
 805.323242188 0 l 2,28,29
 440.131561891 0 440.131561891 0 350.045898438 144.23828125 c 2,30,-1
 348.481445312 146.743164062 l 1,31,-1
 346.736328125 144.360351562 l 2,32,33
 241 0 241 0 9.984375 0 c 2,34,-1
 -6.9384765625 0 l 2,35,36
 -62.7783203125 0 -62.7783203125 0 -62.7783203125 86.3134765625 c 2,37,-1
 -62.7783203125 105.192382812 l 2,38,39
 -63 180 -63 180 -6.9384765625 180 c 2,40,-1
 10.1103515625 180 l 2,41,42
 256 180 256 180 271.079101562 376.12890625 c 2,0,1
707.638671875 180.416992188 m 1,43,-1
 861.734375 180.416992188 l 2,44,45
 1290 180 1290 180 1287.65136719 399.1640625 c 0,46,47
 1287 465 1287 465 1252.52636719 510.215820312 c 0,48,49
 1192 589 1192 589 1085.09570312 588.573242188 c 0,50,51
 964.671959138 587.998434192 964.671959138 587.998434192 705.954101562 183.495117188 c 2,52,-1
 703.985351562 180.416992188 l 1,53,-1
 707.638671875 180.416992188 l 1,43,-1
EndSplineSet
Validated: 33
EndChar

StartChar: uniFEC2
Encoding: 65218 65218 205
GlifName: uniF_E_C_2
Width: 1600
VWidth: 2950
GlyphClass: 2
Flags: W
AnchorPoint: "Anchor-7" 641.602 -238.453 basechar 0
AnchorPoint: "Anchor-10" 481.36 1544.58 basechar 0
LayerCount: 2
Fore
SplineSet
506.15234375 180.533203125 m 1,0,-1
 663.838867188 180.533203125 l 2,1,2
 1189 181 1189 181 1189.7421875 397.361328125 c 0,3,4
 1190 483 1190 483 1131.51367188 535.765625 c 0,5,6
 1073 589 1073 589 984.478515625 588.557617188 c 0,7,8
 761 586 761 586 506.15234375 180.533203125 c 1,0,-1
1116.1796875 72.0791015625 m 1,9,10
 979.99708517 -0.00154280235178 979.99708517 -0.00154280235178 658.232421875 -0.0009765625 c 2,11,-1
 103.302734375 -0 l 1,12,-1
 103.302734375 180.22265625 l 1,13,-1
 321.827148438 180.376953125 l 1,14,-1
 323.5546875 180.377929688 l 1,15,-1
 324.70703125 180.37890625 l 1,16,-1
 400.934570312 298.131835938 l 1,17,-1
 401.638671875 299.314453125 l 1,18,-1
 401.638671875 1396.87304688 l 1,19,-1
 566.950195312 1396.87304688 l 1,20,-1
 566.950195312 520.508789062 l 1,21,22
 766 771 766 771 986.319335938 771.420898438 c 0,23,24
 1200 772 1200 772 1307.89648438 617.868164062 c 0,25,26
 1369 531 1369 531 1368.62792969 405.821289062 c 0,27,28
 1368 290 1368 290 1281.51074219 180.946289062 c 1,29,-1
 1504.70800781 180.458007812 l 2,30,-1
 1523.31738281 180.458007812 l 2,31,32
 1541.46289062 179.988010399 1541.46289062 179.988010399 1541.46289062 105.173828125 c 2,33,-1
 1541.46289062 86.32421875 l 1,34,35
 1539.99998345 -0.0009765625 1539.99998345 -0.0009765625 1523.38183594 -0.0009765625 c 2,36,-1
 1499.19628906 -0.0009765625 l 2,37,38
 1205 -0 1205 -0 1116.1796875 72.0791015625 c 1,9,10
326.108398438 182.797851562 m 1,39,-1
 326.108398438 182.797851562 l 1,39,-1
EndSplineSet
Validated: 33
EndChar

StartChar: uniFEC3
Encoding: 65219 65219 206
GlifName: uniF_E_C_3
Width: 1600
VWidth: 2950
GlyphClass: 2
Flags: W
AnchorPoint: "Anchor-7" 501.602 -238.453 basechar 0
AnchorPoint: "Anchor-10" 319.36 1534.58 basechar 0
LayerCount: 2
Fore
SplineSet
495.5703125 0 m 2,0,-1
 -6.9384765625 0 l 2,1,2
 -62.7783203125 0 -62.7783203125 0 -62.7783203125 86.3134765625 c 2,3,-1
 -62.7783203125 105.192382812 l 2,4,5
 -62.999594989 179.863325745 -62.999594989 179.863325745 -6.9384765625 179.993164062 c 2,6,-1
 160.880859375 180.381835938 l 1,7,-1
 162.018554688 180.384765625 l 1,8,9
 194 234 194 234 238.9765625 299.141601562 c 1,10,-1
 238.9765625 1396.87402344 l 1,11,-1
 404.288085938 1396.87402344 l 1,12,-1
 404.288085938 520.490234375 l 1,13,14
 603 771 603 771 823.65625 771.421875 c 0,15,16
 1039 772 1039 772 1145.22265625 617.885742188 c 0,17,18
 1205 532 1205 532 1205.01464844 417.4296875 c 0,19,20
 1205 0 1205 0 495.5703125 0 c 2,0,-1
343.479492188 180.534179688 m 1,21,-1
 501.176757812 180.534179688 l 2,22,23
 1027 181 1027 181 1027.08007812 397.390625 c 0,24,25
 1027 483 1027 483 967.997070312 536.231445312 c 0,26,27
 910 589 910 589 821.81640625 588.55859375 c 0,28,29
 599 586 599 586 343.479492188 180.534179688 c 1,21,-1
EndSplineSet
Validated: 33
EndChar

StartChar: uniFEC4
Encoding: 65220 65220 207
GlifName: uniF_E_C_4
Width: 1600
VWidth: 2950
GlyphClass: 2
Flags: W
AnchorPoint: "Anchor-10" 409.36 1534.58 basechar 0
AnchorPoint: "Anchor-7" 591.602 -238.453 basechar 0
LayerCount: 2
Fore
SplineSet
433.479492188 180.534179688 m 1,0,-1
 591.176757812 180.534179688 l 2,1,2
 1117 181 1117 181 1117.08007812 397.390625 c 0,3,4
 1117 483 1117 483 1057.99707031 536.231445312 c 0,5,6
 1000 589 1000 589 911.81640625 588.55859375 c 0,7,8
 689 586 689 586 433.479492188 180.534179688 c 1,0,-1
1043.55078125 72.060546875 m 1,9,10
 899 0 899 0 585.5703125 0 c 2,11,-1
 -6.9384765625 0 l 2,12,13
 -62.7783203125 0 -62.7783203125 0 -62.7783203125 86.3134765625 c 2,14,-1
 -62.7783203125 105.192382812 l 2,15,16
 -62.9997292989 179.908649717 -62.9997292989 179.908649717 -6.9384765625 179.993164062 c 2,17,-1
 250.880859375 180.381835938 l 1,18,-1
 251.9375 180.384765625 l 1,19,20
 307 261 307 261 328.9765625 299.338867188 c 1,21,-1
 328.9765625 1396.87402344 l 1,22,-1
 494.288085938 1396.87402344 l 1,23,-1
 494.288085938 520.490234375 l 1,24,25
 693 770 693 770 913.655273438 771.421875 c 0,26,27
 1133 772 1133 772 1235.203125 617.9140625 c 0,28,29
 1295 529 1295 529 1295 403.161132812 c 0,30,31
 1295 285 1295 285 1208.76269531 180.838867188 c 1,32,-1
 1592.04589844 180.458984375 l 2,33,-1
 1610.65625 180.458984375 l 2,34,35
 1628.80078125 180.004984711 1628.80078125 180.004984711 1628.80078125 105.174804688 c 2,36,-1
 1628.80078125 86.322265625 l 2,37,38
 1629 0 1629 0 1610.71972656 0 c 2,39,-1
 1586.53417969 0 l 2,40,41
 1132 0 1132 0 1043.55078125 72.060546875 c 1,9,10
EndSplineSet
Validated: 33
EndChar

StartChar: uniFECA
Encoding: 65226 65226 213
GlifName: uniF_E_C_A_
Width: 1600
VWidth: 2950
GlyphClass: 2
Flags: W
AnchorPoint: "Anchor-7" 711.833 -854.619 basechar 0
AnchorPoint: "Anchor-10" 718.833 1114.24 basechar 0
LayerCount: 2
Fore
SplineSet
607.192382812 335.60546875 m 2,0,1
 367.000077352 513.967100159 367.000077352 513.967100159 366.880859375 564.673828125 c 0,2,3
 367 645 367 645 507.456054688 702.862304688 c 0,4,5
 615 748 615 748 745.974609375 747.208007812 c 0,6,7
 897 747 897 747 999.807617188 696.909179688 c 0,8,9
 1119 639 1119 639 1118.89550781 569.672851562 c 0,10,11
 1118.99960361 520.188435685 1118.99960361 520.188435685 858.806640625 316.865234375 c 2,12,-1
 856.965820312 315.426757812 l 1,13,14
 1003.50167609 180.458984375 1003.50167609 180.458984375 1568.421875 180.458984375 c 2,15,-1
 1616.27734375 180.458984375 l 2,16,17
 1634.42285156 179.989048918 1634.42285156 179.989048918 1634.42285156 105.174804688 c 2,18,-1
 1634.42285156 86.3193359375 l 2,19,20
 1634 0 1634 0 1616.34179688 0 c 2,21,-1
 1568.11914062 0 l 2,22,23
 965.318414448 -5.68434188608e-14 965.318414448 -5.68434188608e-14 728.349609375 216.4765625 c 2,24,-1
 727.288085938 217.446289062 l 1,25,-1
 726.03125 216.749023438 l 2,26,27
 582 137 582 137 512.75 36.3125 c 0,28,29
 443 -63 443 -63 442.666015625 -184.046875 c 0,30,31
 444 -467 444 -467 848.581054688 -467.788085938 c 0,32,33
 1015 -468 1015 -468 1190.96386719 -395.998046875 c 1,34,-1
 1193.97851562 -578.717773438 l 1,35,36
 1057 -640 1057 -640 847.81640625 -639.228515625 c 0,37,38
 277 -636 277 -636 276.403320312 -184.174804688 c 0,39,40
 276.000066385 115.950592546 276.000066385 115.950592546 607.09375 332.326171875 c 2,41,-1
 609.495117188 333.895507812 l 1,42,-1
 607.192382812 335.60546875 l 2,0,1
858.422851562 534.646484375 m 0,43,44
 849.473632812 548.77734375 849.473632812 548.77734375 834.12890625 558.200195312 c 128,-1,45
 818.78515625 567.622070312 818.78515625 567.622070312 797.350585938 572.331054688 c 128,-1,46
 775.916015625 577.0390625 775.916015625 577.0390625 748.197265625 577.20703125 c 0,47,48
 706.52734375 577.465820312 706.52734375 577.465820312 677.514648438 566.44921875 c 128,-1,49
 648.502929688 555.432617188 648.502929688 555.432617188 632.356445312 533.0078125 c 0,50,51
 627.483398438 526.239257812 627.483398438 526.239257812 655.760742188 500.892578125 c 128,-1,52
 684.037109375 475.546875 684.037109375 475.546875 749.169921875 425.978515625 c 2,53,-1
 750.486328125 424.9765625 l 1,54,-1
 751.717773438 426.083007812 l 2,55,56
 811.641601562 479.939453125 811.641601562 479.939453125 836.505859375 504.731445312 c 128,-1,57
 861.37109375 529.5234375 861.37109375 529.5234375 858.422851562 534.646484375 c 0,43,44
EndSplineSet
Validated: 33
EndChar

StartChar: uniFECB
Encoding: 65227 65227 214
GlifName: uniF_E_C_B_
Width: 1600
VWidth: 2950
GlyphClass: 2
Flags: W
AnchorPoint: "Anchor-10" 964.493 1187.05 basechar 0
AnchorPoint: "Anchor-7" 884.511 -237.021 basechar 0
LayerCount: 2
Fore
SplineSet
1282.09765625 585.458984375 m 1,0,1
 1161 685 1161 685 1036.56542969 687.30078125 c 0,2,3
 1005 688 1005 688 975.791015625 683.163085938 c 0,4,5
 947 679 947 679 921.224609375 669.3359375 c 0,6,7
 870 651 870 651 832.662109375 614.439453125 c 0,8,9
 829 611 829 611 825.760742188 607.30078125 c 0,10,11
 822 604 822 604 819.197265625 600.004882812 c 0,12,13
 816 596 816 596 812.971679688 592.549804688 c 128,-1,14
 810 589 810 589 807.083984375 584.936523438 c 128,-1,15
 804 581 804 581 801.532226562 577.163085938 c 0,16,17
 799 573 799 573 796.318359375 569.229492188 c 0,18,19
 794 565 794 565 791.440429688 561.134765625 c 0,20,21
 789 557 789 557 786.899414062 552.879882812 c 0,22,23
 785 549 785 549 782.694335938 544.461914062 c 0,24,25
 781 540 781 540 778.82421875 535.880859375 c 0,26,27
 761 492 761 492 760.602539062 440.444335938 c 0,28,29
 761 311 761 311 918.02734375 232.001953125 c 0,30,31
 940.097765115 220.951047921 940.097765115 220.951047921 945.858398438 222.349609375 c 2,32,-1
 1379.0703125 327.524414062 l 1,33,-1
 1379.0703125 147.799804688 l 1,34,35
 890.875683924 -0.0376459932924 890.875683924 -0.0376459932924 505.439453125 -0.021484375 c 2,36,-1
 -6.9384765625 0 l 2,37,38
 -62.7783203125 0 -62.7783203125 0 -62.7783203125 86.3134765625 c 2,39,-1
 -62.7783203125 105.192382812 l 2,40,41
 -63.0013591864 180.458668521 -63.0013591864 180.458668521 -6.9453125 180.458984375 c 2,42,-1
 686.314453125 180.462890625 l 1,43,-1
 693.065429688 180.462890625 l 1,44,-1
 697.62890625 180.462890625 l 1,45,-1
 694.536132812 183.818359375 l 2,46,47
 675 205 675 205 667.809570312 215.178710938 c 0,48,49
 656 231 656 231 645.538085938 246.427734375 c 0,50,51
 590 331 590 331 590.720703125 449.952148438 c 0,52,53
 592 610 592 610 679.700195312 720.661132812 c 0,54,55
 695 740 695 740 713.403320312 757.5234375 c 128,-1,56
 732 775 732 775 752.381835938 789.756835938 c 0,57,58
 773 805 773 805 796.651367188 817.37109375 c 0,59,60
 888 867 888 867 1011.56640625 866.232421875 c 0,61,62
 1215 865 1215 865 1347.49804688 728.912109375 c 1,63,-1
 1282.09765625 585.458984375 l 1,0,1
EndSplineSet
Validated: 33
EndChar

StartChar: uniFECC
Encoding: 65228 65228 215
GlifName: uniF_E_C_C_
Width: 1600
VWidth: 2950
GlyphClass: 2
Flags: W
AnchorPoint: "Anchor-7" 904.511 -237.021 basechar 0
AnchorPoint: "Anchor-10" 911.107 1110.89 basechar 0
LayerCount: 2
Fore
SplineSet
1584.80175781 179.993164062 m 2,0,-1
 1608.37890625 179.993164062 l 2,1,2
 1626.45703125 180.000177301 1626.45703125 180.000177301 1626.45703125 105.174804688 c 2,3,-1
 1626.45703125 86.3203125 l 2,4,5
 1626 0 1626 0 1608.37695312 0 c 2,6,-1
 1585.1875 0 l 2,7,8
 1123 0 1123 0 936.994140625 143.728515625 c 1,9,10
 769 0 769 0 17.048828125 0 c 2,11,-1
 -6.9384765625 0 l 2,12,13
 -62.7783203125 0 -62.7783203125 0 -62.7783203125 86.3134765625 c 2,14,-1
 -62.7783203125 105.192382812 l 2,15,16
 -62.9999797429 179.993164062 -62.9999797429 179.993164062 -6.9384765625 179.993164062 c 2,17,-1
 20.412109375 179.993164062 l 2,18,19
 711 180 711 180 825.822265625 255.071289062 c 1,20,21
 550 446 550 446 550.196289062 508.974609375 c 0,22,23
 550 589 550 589 690.76953125 647.154296875 c 0,24,25
 798 692 798 692 929.286132812 691.500976562 c 0,26,27
 1006 691 1006 691 1069.3984375 678.669921875 c 0,28,29
 1133 666 1133 666 1183.1171875 641.205078125 c 0,30,31
 1243 612 1243 612 1272.43066406 580.026367188 c 128,-1,32
 1302 548 1302 548 1302.2109375 513.977539062 c 0,33,34
 1302 459 1302 459 1038.8046875 254.34765625 c 1,35,36
 1165 180 1165 180 1584.80175781 179.993164062 c 2,0,-1
1041.73828125 478.939453125 m 0,37,38
 1015 521 1015 521 931.512695312 521.5 c 0,39,40
 890 522 890 522 860.830078125 510.7421875 c 0,41,42
 826 498 826 498 815.671875 477.30078125 c 0,43,44
 815 476 815 476 814.943359375 475 c 0,45,46
 815 472 815 472 819.341796875 465.48828125 c 0,47,48
 826 457 826 457 841.3828125 443.142578125 c 0,49,50
 857 429 857 429 878.756835938 411.940429688 c 0,51,52
 900.083083786 394.933744567 900.083083786 394.933744567 932.485351562 370.271484375 c 2,53,-1
 933.801757812 369.26953125 l 1,54,-1
 935.033203125 370.375976562 l 2,55,56
 997 426 997 426 1019.82128906 449.024414062 c 0,57,58
 1045 474 1045 474 1041.73828125 478.939453125 c 0,37,38
EndSplineSet
Validated: 33
EndChar

StartChar: uniFEDA
Encoding: 65242 65242 229
GlifName: uniF_E_D_A_
Width: 1600
VWidth: 2950
GlyphClass: 2
Flags: W
AnchorPoint: "Anchor-10" 895.11 1462.05 basechar 0
AnchorPoint: "Anchor-7" 750.268 -238.468 basechar 0
LayerCount: 2
Fore
SplineSet
649.720703125 611.796875 m 1,0,1
 742 602 742 602 810.09765625 601.272460938 c 0,2,3
 922 601 922 601 970.83203125 623.0625 c 0,4,5
 984 629 984 629 994.674804688 635.883789062 c 0,6,7
 1005 643 1005 643 1011.92578125 651.921875 c 128,-1,8
 1019 661 1019 661 1022.50683594 671.1875 c 0,9,10
 1026 682 1026 682 1026.30761719 693.626953125 c 0,11,12
 1026 716 1026 716 1018.61523438 733.365234375 c 0,13,14
 1011 751 1011 751 995.103515625 764.049804688 c 0,15,16
 980 778 980 778 956.668945312 786.34375 c 0,17,18
 934 795 934 795 902.94140625 799.435546875 c 0,19,20
 691 832 691 832 694.490234375 1010.44921875 c 0,21,22
 699 1214 699 1214 1083.17089844 1243.40429688 c 1,23,-1
 1083.17089844 1118.81738281 l 1,24,25
 954 1107 954 1107 888.60546875 1077.80566406 c 0,26,27
 824 1049 824 1049 823.700195312 1002.45507812 c 0,28,29
 824 926 824 926 964.171875 904.786132812 c 0,30,31
 1060 890 1060 890 1107.68066406 838.440429688 c 0,32,33
 1155 787 1155 787 1154.92480469 698.138671875 c 0,34,35
 1155 578 1155 578 1037 514 c 0,36,37
 962 473 962 473 827.55859375 473.094726562 c 0,38,39
 749 473 749 473 649.720703125 488.088867188 c 1,40,-1
 649.720703125 611.796875 l 1,0,1
1707.70996094 452.336914062 m 2,41,42
 1708 180 1708 180 1895.68261719 180.279296875 c 2,43,-1
 1918.83203125 180.279296875 l 2,44,45
 1937.00017117 180.279296875 1937.00017117 180.279296875 1936.95703125 109.889648438 c 2,46,-1
 1936.95703125 86.3193359375 l 2,47,48
 1936.95703125 0 1936.95703125 0 1918.875 0 c 2,49,-1
 1887.96875 0 l 2,50,51
 1692 0 1692 0 1621 189.310546875 c 1,52,53
 1462 0 1462 0 1012.13378906 0 c 2,54,-1
 843.061523438 0 l 2,55,56
 106 0 106 0 106.16015625 463.875 c 0,57,58
 106 563 106 563 133.489257812 685 c 1,59,-1
 289.356445312 655 l 1,60,61
 271 569 271 569 271.424804688 482.515625 c 0,62,63
 273 181 273 181 843.061523438 179.993164062 c 18,64,-1
 1025 179.779296875 l 2,65,66
 1545.99558418 179.166870839 1545.99558418 179.166870839 1538.82910156 449.983398438 c 1,67,-1
 1538.82910156 1396.56640625 l 1,68,-1
 1707.70996094 1396.56640625 l 1,69,-1
 1707.70996094 452.336914062 l 2,41,42
EndSplineSet
Validated: 33
EndChar

StartChar: uniFEDB
Encoding: 65243 65243 230
GlifName: uniF_E_D_B_
Width: 1600
VWidth: 2950
GlyphClass: 2
Flags: W
AnchorPoint: "Anchor-10" 627.533 1448.15 basechar 0
AnchorPoint: "Anchor-7" 680.991 -233.935 basechar 0
LayerCount: 2
Fore
SplineSet
565.612304688 0 m 2,0,-1
 -6.9384765625 0 l 2,1,2
 -62.7783203125 0 -62.7783203125 0 -62.7783203125 86.3134765625 c 2,3,-1
 -62.7783203125 105.192382812 l 2,4,5
 -62.9999800266 179.993259821 -62.9999800266 179.993259821 -6.9384765625 179.993164062 c 2,6,-1
 564.782226562 179.9921875 l 2,7,8
 908 180 908 180 910.724609375 383.111328125 c 0,9,10
 912.020673855 502.910954426 912.020673855 502.910954426 829.719726562 561.404296875 c 0,11,12
 798.527158935 581.013488271 798.527158935 581.013488271 480.224609375 804.581054688 c 0,13,14
 370 882 370 882 369.918945312 982.454101562 c 0,15,16
 370 1042 370 1042 406.365234375 1092.49023438 c 0,17,18
 439.454359371 1136.60576717 439.454359371 1136.60576717 508.852539062 1161.98632812 c 2,19,-1
 1239.37109375 1429.15429688 l 1,20,-1
 1239.37109375 1248.82714844 l 1,21,-1
 527.845703125 988.420898438 l 1,22,-1
 524.654296875 987.172851562 l 1,23,-1
 527.310546875 985.0078125 l 1,24,-1
 919.502929688 706.112304688 l 2,25,26
 1079 593 1079 593 1076.21777344 378.377929688 c 0,27,28
 1071 0 1071 0 565.612304688 0 c 2,0,-1
EndSplineSet
Validated: 33
EndChar

StartChar: uniFEDC
Encoding: 65244 65244 231
GlifName: uniF_E_D_C_
Width: 1600
VWidth: 2950
GlyphClass: 2
Flags: W
AnchorPoint: "Anchor-10" 527.533 1448.15 basechar 0
AnchorPoint: "Anchor-7" 580.991 -233.935 basechar 0
LayerCount: 2
Fore
SplineSet
465.612304688 0 m 2,0,-1
 -6.9384765625 0 l 2,1,2
 -62.7783203125 0 -62.7783203125 0 -62.7783203125 86.3134765625 c 2,3,-1
 -62.7783203125 105.192382812 l 2,4,5
 -62.9999800868 179.993280121 -62.9999800868 179.993280121 -6.9384765625 179.993164062 c 2,6,-1
 464.782226562 179.9921875 l 2,7,8
 808 180 808 180 810.724609375 383.111328125 c 0,9,10
 812.05745403 506.310670408 812.05745403 506.310670408 729.719726562 561.404296875 c 0,11,12
 615.676490424 637.706029739 615.676490424 637.706029739 340.224609375 804.581054688 c 0,13,14
 230 871 230 871 229.918945312 982.454101562 c 0,15,16
 230 1044 230 1044 266.365234375 1092.49023438 c 0,17,18
 301.279947191 1137.35976521 301.279947191 1137.35976521 368.852539062 1161.98632812 c 2,19,-1
 1129.37109375 1439.15429688 l 1,20,-1
 1129.37109375 1258.82714844 l 1,21,-1
 387.845703125 988.420898438 l 1,22,-1
 384.654296875 987.172851562 l 1,23,-1
 387.310546875 985.0078125 l 1,24,-1
 819.500976562 706.114257812 l 2,25,26
 968 610 968 610 976.21875 378.2890625 c 0,27,28
 984.000268256 179.993164062 984.000268256 179.993164062 1577.9140625 179.993164062 c 2,29,-1
 1594.24804688 179.993164062 l 2,30,31
 1612.32421875 180.00012485 1612.32421875 180.00012485 1612.32421875 105.174804688 c 2,32,-1
 1612.32421875 86.3125 l 2,33,34
 1612 0 1612 0 1594.24609375 0 c 2,35,-1
 1577.80761719 0 l 2,36,37
 970 0 970 0 897.344726562 145.899414062 c 1,38,39
 794 0 794 0 465.612304688 0 c 2,0,-1
EndSplineSet
Validated: 33
EndChar

StartChar: uniFEDE
Encoding: 65246 65246 233
GlifName: uniF_E_D_E_
Width: 1600
VWidth: 2950
GlyphClass: 2
Flags: W
AnchorPoint: "Anchor-10" 605.908 1003.66 basechar 0
AnchorPoint: "Anchor-7" 637.902 -658.086 basechar 0
LayerCount: 2
Fore
SplineSet
275.268554688 99.861328125 m 0,0,1
 275 -247 275 -247 668.229492188 -247.216796875 c 0,2,3
 1216.92163778 -247.000030958 1216.92163778 -247.000030958 1217.60449219 127.799804688 c 2,4,-1
 1219.91308594 1394.92285156 l 1,5,-1
 1385.88476562 1394.92285156 l 1,6,-1
 1385.30175781 397.188476562 l 2,7,8
 1385.00038805 180.279296875 1385.00038805 180.279296875 1574.70410156 180.279296875 c 2,9,-1
 1594.78417969 180.279296875 l 2,10,11
 1612.90722656 180.001422463 1612.90722656 180.001422463 1612.90722656 109.889648438 c 2,12,-1
 1612.90722656 86.3017578125 l 2,13,14
 1613 0 1613 0 1594.82714844 0 c 2,15,-1
 1570.3515625 0 l 2,16,17
 1447 0 1447 0 1376.17578125 70.9541015625 c 1,18,19
 1335 -417 1335 -417 667.329101562 -417.724609375 c 0,20,21
 447 -418 447 -418 305 -328.9921875 c 0,22,23
 103 -202 103 -202 103.752929688 98.041015625 c 0,24,25
 104 256 104 256 169.45703125 445.122070312 c 1,26,-1
 328.90234375 399.791992188 l 1,27,28
 275 232 275 232 275.268554688 99.861328125 c 0,0,1
EndSplineSet
Validated: 33
EndChar

StartChar: uniFEDF
Encoding: 65247 65247 234
GlifName: uniF_E_D_F_
Width: 1600
VWidth: 2950
GlyphClass: 2
Flags: W
AnchorPoint: "Anchor-10" 867.751 1533.45 basechar 0
AnchorPoint: "Anchor-7" 779.812 -238.234 basechar 0
LayerCount: 2
Fore
SplineSet
-6.9384765625 0 m 2,0,1
 -62.7783203125 0 -62.7783203125 0 -62.7783203125 86.3134765625 c 2,2,-1
 -62.7783203125 105.192382812 l 2,3,4
 -62.9999797429 179.993164062 -62.9999797429 179.993164062 -6.9384765625 179.993164062 c 2,5,-1
 561.482421875 179.993164062 l 2,6,7
 784.313476562 180.00000963 784.313476562 180.00000963 784.313476562 436.663085938 c 2,8,-1
 784.313476562 1396.171875 l 1,9,-1
 949.627929688 1396.171875 l 1,10,-1
 949.627929688 430.963867188 l 2,11,12
 950 0 950 0 556.286132812 0 c 2,13,-1
 -6.9384765625 0 l 2,0,1
EndSplineSet
Validated: 33
EndChar

StartChar: uniFEE0
Encoding: 65248 65248 235
GlifName: uniF_E_E_0
Width: 1600
VWidth: 2950
GlyphClass: 2
Flags: W
AnchorPoint: "Anchor-7" 279.812 -238.234 basechar 0
AnchorPoint: "Anchor-10" 356.751 1527.45 basechar 0
LayerCount: 2
Fore
SplineSet
352.224609375 133.05078125 m 1,0,1
 261 0 261 0 62.5927734375 0 c 2,2,-1
 -6.9384765625 0 l 2,3,4
 -62.7783203125 0 -62.7783203125 0 -62.7783203125 86.3134765625 c 2,5,-1
 -62.7783203125 105.192382812 l 2,6,7
 -62.9999797429 179.993164062 -62.9999797429 179.993164062 -6.9384765625 179.993164062 c 2,8,-1
 65.109375 179.993164062 l 2,9,10
 283.081054688 179.968454011 283.081054688 179.968454011 283.081054688 393.180664062 c 2,11,-1
 283.081054688 1396.07617188 l 1,12,-1
 447.739257812 1396.07617188 l 1,13,-1
 447.739257812 393.192382812 l 2,14,15
 448.000008361 179.993164062 448.000008361 179.993164062 655.545898438 179.993164062 c 2,16,-1
 672.995117188 179.993164062 l 2,17,18
 694.80078125 179.999938112 694.80078125 179.999938112 694.80078125 105.174804688 c 2,19,-1
 694.80078125 86.2939453125 l 2,20,21
 695 0 695 0 672.993164062 0 c 2,22,-1
 658.065429688 0 l 2,23,24
 447 0 447 0 352.224609375 133.05078125 c 1,0,1
EndSplineSet
Validated: 33
EndChar

StartChar: uniFEE2
Encoding: 65250 65250 237
GlifName: uniF_E_E_2
Width: 1600
VWidth: 2620
GlyphClass: 2
Flags: W
AnchorPoint: "Anchor-10" 861.239 1132.48 basechar 0
AnchorPoint: "Anchor-7" 888.983 -292.909 basechar 0
LayerCount: 2
Fore
SplineSet
1247.30664062 381.696289062 m 24,0,1
 1269.00010503 179.999023438 1269.00010503 179.999023438 1415.79492188 179.999023438 c 2,2,-1
 1601.18261719 179.999023438 l 2,3,4
 1619.26757812 180.000014666 1619.26757812 180.000014666 1619.26757812 105.174804688 c 2,5,-1
 1619.26757812 86.333984375 l 2,6,7
 1619 0 1619 0 1601.18652344 0 c 2,8,-1
 1415.49414062 0 l 2,9,10
 1253 0 1253 0 1185.97851562 102 c 1,11,12
 1169 80 1169 80 1151 63.5146484375 c 0,13,14
 1073 -7 1073 -7 946.20703125 -7.2431640625 c 0,15,16
 791 -7 791 -7 685.3515625 82.3974609375 c 0,17,18
 608 148 608 148 569.346679688 147.747070312 c 0,19,20
 417 146 417 146 417.751953125 -290.002929688 c 0,21,22
 418 -485 418 -485 431.634765625 -644.813476562 c 1,23,-1
 262.107421875 -644.813476562 l 1,24,25
 251 -473 251 -473 250.9765625 -316 c 0,26,27
 251 10 251 10 329.782226562 166.091796875 c 0,28,29
 410.039315984 324.077393278 410.039315984 324.077393278 538.060546875 346.029296875 c 2,30,-1
 539.381835938 346.255859375 l 1,31,-1
 539.673828125 347.564453125 l 2,32,33
 573 496 573 496 636.586914062 579.44921875 c 0,34,35
 736 709 736 709 897.333007812 709.532226562 c 0,36,37
 1065 710 1065 710 1170.86230469 576.84765625 c 0,38,39
 1234 498 1234 498 1247.30664062 381.696289062 c 24,0,1
930.724609375 166.75 m 0,40,41
 1032 167 1032 167 1071.7421875 238.0625 c 0,42,43
 1089 269 1089 269 1089.86425781 306.965820312 c 0,44,45
 1091 356 1091 356 1071.57421875 405.76171875 c 0,46,47
 1045 474 1045 474 992.02734375 505.3359375 c 0,48,49
 952 529 952 529 900.611328125 529.158203125 c 0,50,51
 735.862304688 529 735.862304688 529 707.557617188 310.28515625 c 2,52,-1
 707.4609375 309.538085938 l 1,53,-1
 707.880859375 308.913085938 l 2,54,55
 803 167 803 167 930.724609375 166.75 c 0,40,41
EndSplineSet
Validated: 33
EndChar

StartChar: uniFEE3
Encoding: 65251 65251 238
GlifName: uniF_E_E_3
Width: 1600
VWidth: 2950
GlyphClass: 2
Flags: W
AnchorPoint: "Anchor-10" 789.952 1114.2 basechar 0
AnchorPoint: "Anchor-7" 774.594 -237.063 basechar 0
LayerCount: 2
Fore
SplineSet
850.724609375 166.75 m 0,0,1
 952 167 952 167 991.7421875 238.0625 c 0,2,3
 1009 269 1009 269 1009.86425781 306.965820312 c 0,4,5
 1010.9296875 355.756835938 1010.9296875 355.756835938 991.57421875 405.76171875 c 0,6,7
 965 474 965 474 912.02734375 505.3359375 c 0,8,9
 872 529 872 529 820.611328125 529.158203125 c 0,10,11
 655.862304688 529 655.862304688 529 627.557617188 310.28515625 c 2,12,-1
 627.4609375 309.538085938 l 1,13,-1
 627.880859375 308.913085938 l 2,14,15
 723 167 723 167 850.724609375 166.75 c 0,0,1
282.720703125 0 m 2,16,-1
 21.8828125 0 l 2,17,18
 -32.7783203125 0 -32.7783203125 0 -32.7783203125 86.3134765625 c 2,19,-1
 -32.7783203125 105.198242188 l 2,20,21
 -32.9999797413 179.993164062 -32.9999797413 179.993164062 21.8828125 179.993164062 c 2,22,-1
 278.325195312 179.993164062 l 2,23,24
 423 180 423 180 459.673828125 347.564453125 c 0,25,26
 493 496 493 496 556.598632812 579.46484375 c 0,27,28
 654 709 654 709 817.333007812 709.532226562 c 0,29,30
 985 710 985 710 1090.86230469 576.84765625 c 0,31,32
 1173 474 1173 474 1172.47460938 309.612304688 c 0,33,34
 1172 159 1172 159 1073 65.96484375 c 0,35,36
 996 -7 996 -7 855.20703125 -7.2431640625 c 0,37,38
 669 -7 669 -7 542.944335938 133.993164062 c 1,39,40
 455 0 455 0 282.720703125 0 c 2,16,-1
EndSplineSet
Validated: 33
EndChar

StartChar: uniFEE4
Encoding: 65252 65252 239
GlifName: uniF_E_E_4
Width: 1600
VWidth: 2950
GlyphClass: 2
Flags: W
AnchorPoint: "Anchor-7" 874.594 -237.063 basechar 0
AnchorPoint: "Anchor-10" 893.952 1116.2 basechar 0
LayerCount: 2
Fore
SplineSet
950.724609375 166.75 m 0,0,1
 1052 167 1052 167 1091.7421875 238.0625 c 0,2,3
 1109 269 1109 269 1109.86425781 306.965820312 c 0,4,5
 1110.9296875 355.756835938 1110.9296875 355.756835938 1091.57421875 405.76171875 c 0,6,7
 1065 474 1065 474 1012.02734375 505.3359375 c 0,8,9
 972 529 972 529 920.611328125 529.158203125 c 0,10,11
 755.862304688 529 755.862304688 529 727.557617188 310.28515625 c 2,12,-1
 727.4609375 309.538085938 l 1,13,-1
 727.880859375 308.913085938 l 2,14,15
 823 167 823 167 950.724609375 166.75 c 0,0,1
1205.97851562 102 m 1,16,17
 1191 83 1191 83 1173 65.96484375 c 0,18,19
 1096 -7 1096 -7 955.20703125 -7.2431640625 c 0,20,21
 769 -7 769 -7 642.944335938 133.993164062 c 1,22,23
 555 0 555 0 382.720703125 0 c 2,24,-1
 -8.1171875 0 l 2,25,26
 -62.7783203125 0 -62.7783203125 0 -62.7783203125 86.3134765625 c 2,27,-1
 -62.7783203125 105.198242188 l 2,28,29
 -62.9999797413 179.993164062 -62.9999797413 179.993164062 -8.1171875 179.993164062 c 2,30,-1
 378.325195312 179.993164062 l 2,31,32
 523 180 523 180 559.673828125 347.564453125 c 0,33,34
 593 496 593 496 656.598632812 579.46484375 c 0,35,36
 754 709 754 709 917.333007812 709.532226562 c 0,37,38
 1085 710 1085 710 1190.86230469 576.84765625 c 0,39,40
 1255 497 1255 497 1267.30664062 381.696289062 c 24,41,42
 1289.00010503 179.999023438 1289.00010503 179.999023438 1435.79492188 179.999023438 c 2,43,-1
 1601.18261719 179.999023438 l 2,44,45
 1619.26757812 180.000014666 1619.26757812 180.000014666 1619.26757812 105.174804688 c 2,46,-1
 1619.26757812 86.333984375 l 2,47,48
 1619 0 1619 0 1601.18652344 0 c 2,49,-1
 1435.49414062 0 l 2,50,51
 1273 0 1273 0 1205.97851562 102 c 1,16,17
EndSplineSet
Validated: 33
EndChar

StartChar: uniFEEA
Encoding: 65258 65258 245
GlifName: uniF_E_E_A_
Width: 1600
VWidth: 2950
GlyphClass: 2
Flags: W
AnchorPoint: "Anchor-10" 813.464 1117.36 basechar 0
AnchorPoint: "Anchor-7" 759.642 -236.09 basechar 0
LayerCount: 2
Fore
SplineSet
1599.9375 180.030273438 m 2,0,1
 1617.80859375 180.031733637 1617.80859375 180.031733637 1617.80859375 109.889648438 c 2,2,-1
 1617.80859375 86.2958984375 l 2,3,4
 1618 41 1618 41 1613.00976562 21.525390625 c 0,5,6
 1608 0 1608 0 1599.72753906 0 c 2,7,-1
 1220.4609375 0 l 2,8,9
 960.308694364 1.70530256582e-13 960.308694364 1.70530256582e-13 910.677734375 346.255859375 c 2,10,-1
 890.344726562 488.111328125 l 2,11,12
 881 551 881 551 857.760742188 580.836914062 c 0,13,14
 834 612 834 612 794.935546875 612.033203125 c 0,15,16
 757 612 757 612 702.255859375 578.708984375 c 0,17,18
 631 537 631 537 589.530273438 472.174804688 c 0,19,20
 552 414 552 414 551.614257812 355.600585938 c 0,21,22
 551 217 551 217 714.806640625 200.728515625 c 0,23,24
 783 194 783 194 872.973632812 192.998046875 c 1,25,-1
 867.067382812 21.0009765625 l 1,26,27
 695 21 695 21 579.637695312 66.8544921875 c 0,28,29
 388 144 388 144 388.338867188 355.903320312 c 0,30,31
 388 549 388 549 578.362304688 704.431640625 c 0,32,33
 689 795 689 795 811.974609375 795.126953125 c 0,34,35
 943 795 943 795 993.365234375 722.453125 c 0,36,37
 1015 692 1015 692 1029.54882812 645.245117188 c 0,38,39
 1044 599 1044 599 1050.79003906 535.768554688 c 0,40,41
 1080 288 1080 288 1116.86621094 238 c 0,42,43
 1159.00417999 179.99424596 1159.00417999 179.99424596 1229.42675781 180 c 2,44,-1
 1599.9375 180.030273438 l 2,0,1
EndSplineSet
Validated: 33
EndChar

StartChar: uniFEEB
Encoding: 65259 65259 246
GlifName: uniF_E_E_B_
Width: 1600
VWidth: 2950
GlyphClass: 2
Flags: W
AnchorPoint: "Anchor-10" 787.134 1290.79 basechar 0
AnchorPoint: "Anchor-7" 530.852 -239.953 basechar 0
LayerCount: 2
Fore
SplineSet
685.922851562 72.09375 m 1,0,1
 442 0 442 0 265.4453125 0 c 2,2,-1
 -6.9384765625 0 l 2,3,4
 -62.7783203125 0 -62.7783203125 0 -62.7783203125 86.3134765625 c 2,5,-1
 -62.7783203125 105.192382812 l 2,6,7
 -62.9999797429 179.993164062 -62.9999797429 179.993164062 -6.9384765625 179.993164062 c 2,8,-1
 483.90625 179.993164062 l 1,9,10
 336 282 336 282 336.629882812 457.633789062 c 0,11,12
 337 586 337 586 420.5625 682.829101562 c 0,13,14
 524 803 524 803 688 801.705078125 c 0,15,16
 839 801 839 801 949.767578125 695.25390625 c 0,17,18
 1036 613 1036 613 1036.99316406 492.8203125 c 0,19,20
 1037 334 1037 334 904.522460938 232 c 0,21,22
 885 217 885 217 863.260742188 203.561523438 c 1,23,24
 884 200 884 200 904 196.133789062 c 0,25,26
 1006 179 1006 179 1098 179.171875 c 0,27,28
 1285 179 1285 179 1285.69726562 353.631835938 c 0,29,30
 1286 451 1286 451 1184.46679688 568.061523438 c 0,31,32
 1010 771 1010 771 787.604492188 859.120117188 c 1,33,-1
 853.017578125 1022.16601562 l 1,34,35
 1461 689 1461 689 1463.16015625 357 c 0,36,37
 1464 233 1464 233 1395.30761719 138 c 0,38,39
 1297 2 1297 2 1068.58007812 0.529296875 c 0,40,41
 913 0 913 0 685.922851562 72.09375 c 1,0,1
792.104492188 328.8984375 m 0,42,43
 873 402 873 402 871.611328125 490.133789062 c 0,44,45
 871 540 871 540 834.215820312 580.374023438 c 0,46,47
 780 640 780 640 693.650390625 640.331054688 c 0,48,49
 593 640 593 640 537.893554688 552.125976562 c 0,50,51
 511 510 511 510 510.1875 453.861328125 c 0,52,53
 510 373 510 373 575.079101562 315.24609375 c 0,54,55
 602 291 602 291 636.145507812 274.81640625 c 0,56,57
 660 264 660 264 687.6640625 256.393554688 c 1,58,59
 737 279 737 279 792.104492188 328.8984375 c 0,42,43
EndSplineSet
Validated: 33
EndChar

StartChar: uniFEEC
Encoding: 65260 65260 247
GlifName: uniF_E_E_C_
Width: 1600
VWidth: 2950
GlyphClass: 2
Flags: W
AnchorPoint: "Anchor-7" 833.16 -681.603 basechar 0
AnchorPoint: "Anchor-10" 812.648 1139.04 basechar 0
LayerCount: 2
Fore
SplineSet
886.796875 -291.251953125 m 1,0,1
 916.999937411 179.999023438 916.999937411 179.999023438 1277.90429688 179.999023438 c 2,2,-1
 1599.85253906 179.999023438 l 2,3,4
 1617.93457031 179.999996479 1617.93457031 179.999996479 1617.93457031 105.174804688 c 2,5,-1
 1617.93457031 86.3330078125 l 2,6,7
 1618 0 1618 0 1599.85546875 0 c 2,8,-1
 1275.52539062 0 l 2,9,10
 1016 0 1016 0 1022.50878906 -356 c 0,11,12
 1023 -382 1023 -382 1026.81152344 -471.997070312 c 1,13,14
 619 -461 619 -461 506.314453125 0 c 1,15,-1
 -6.9384765625 0 l 2,16,17
 -62.7783203125 0 -62.7783203125 0 -62.7783203125 86.3134765625 c 2,18,-1
 -62.7783203125 105.192382812 l 2,19,20
 -62.9999971061 179.999023438 -62.9999971061 179.999023438 -6.919921875 179.999023438 c 2,21,-1
 476 179.999023438 l 25,22,-1
 493.962890625 179.999023438 l 1,23,-1
 493.975585938 181.986328125 l 2,24,25
 498 808 498 808 820.5 808 c 0,26,27
 941 808 941 808 1006.96191406 728.721679688 c 0,28,29
 1078 642 1078 642 1078.58984375 494.979492188 c 0,30,31
 1079 284 1079 284 932.56640625 135.39453125 c 0,32,33
 823 24 823 24 665.5 -1.6337890625 c 1,34,35
 720 -208 720 -208 886.796875 -291.251953125 c 1,0,1
656.872070312 178.556640625 m 1,36,37
 921 215 921 215 921.1796875 501.802734375 c 0,38,39
 921 637 921 637 809.5546875 637.194335938 c 0,40,41
 658.038592981 637.000049487 658.038592981 637.000049487 656.877929688 180.859375 c 2,42,-1
 656.872070312 178.556640625 l 1,36,37
EndSplineSet
Validated: 33
EndChar

StartChar: uniFEEE
Encoding: 65262 65262 249
GlifName: uniF_E_E_E_
Width: 1600
VWidth: 2142
GlyphClass: 2
Flags: W
AnchorPoint: "Anchor-10" 709.256 1142.2 basechar 0
AnchorPoint: "Anchor-7" 622.969 -675.998 basechar 0
LayerCount: 2
Fore
SplineSet
1067.59277344 0 m 1,0,1
 1050 -82 1050 -82 1029 -125.006835938 c 0,2,3
 888 -418 888 -418 407.046875 -465.592773438 c 1,4,-1
 377.650390625 -302.475585938 l 1,5,6
 818 -268 818 -268 898.123046875 0 c 1,7,-1
 840.192382812 0.8115234375 l 2,8,9
 410 7 410 7 410.004882812 332.353515625 c 0,10,11
 410 486 410 486 496.5625 595.634765625 c 0,12,13
 584 705 584 705 728.104492188 705.077148438 c 0,14,15
 922 705 922 705 1007.07617188 531.661132812 c 0,16,17
 1071 401 1071 401 1079 180 c 1,18,19
 1079 180 1079 180 1600.96191406 179.999023438 c 2,20,21
 1619.02539062 180.000001375 1619.02539062 180.000001375 1619.02539062 95.64453125 c 2,22,-1
 1619.02539062 86.2099609375 l 2,23,24
 1619 0 1619 0 1600.98828125 0 c 2,25,-1
 1067.59277344 0 l 1,0,1
912.625976562 182.731445312 m 2,26,27
 890.534179688 525 890.534179688 525 727.401367188 525.124023438 c 0,28,29
 654 525 654 525 612.392578125 469.725585938 c 0,30,31
 573 416 573 416 573.159179688 344.564453125 c 0,32,33
 573 184.185546875 573 184.185546875 838.935546875 181.36328125 c 2,34,-1
 910.611328125 180.602539062 l 1,35,-1
 912.764648438 180.583007812 l 1,36,-1
 912.625976562 182.731445312 l 2,26,27
EndSplineSet
Validated: 33
EndChar

StartChar: uniFEF0
Encoding: 65264 65264 251
GlifName: uniF_E_F_0
Width: 1600
VWidth: 2950
GlyphClass: 2
Flags: W
AnchorPoint: "Anchor-7" 689.902 -674.086 basechar 0
AnchorPoint: "Anchor-10" 651.6 742.22 basechar 0
LayerCount: 2
Fore
SplineSet
935.678710938 26.80859375 m 0,0,1
 916 50 916 50 901.776367188 111.14453125 c 0,2,3
 887 173 887 173 905.205078125 179.999023438 c 1,4,-1
 1599.43554688 179.999023438 l 2,5,6
 1617.51953125 179.999974725 1617.51953125 179.999974725 1617.51953125 105.174804688 c 2,7,-1
 1617.51953125 86.3193359375 l 2,8,9
 1618 0 1618 0 1599.45605469 0 c 2,10,-1
 1427 0 l 0,11,-1
 1336.64746094 0 l 1,12,13
 1372 -45 1372 -45 1371.92578125 -106 c 0,14,15
 1372 -139 1372 -139 1361.26953125 -178 c 0,16,17
 1325 -307 1325 -307 1174.05957031 -385.234375 c 0,18,19
 1016 -467 1016 -467 755.326171875 -467.724609375 c 0,20,21
 565 -468 565 -468 415 -402.080078125 c 0,22,23
 151 -286 151 -286 151.752929688 49.0400390625 c 0,24,25
 152 178 152 178 207.458007812 341.122070312 c 1,26,-1
 365.903320312 295.791992188 l 1,27,28
 323 147 323 147 323.268554688 50.861328125 c 0,29,30
 323 -298 323 -298 762.40625 -297.203125 c 0,31,32
 1093 -296 1093 -296 1186.58984375 -155.126953125 c 0,33,34
 1210 -120 1210 -120 1209.83691406 -86.658203125 c 0,35,36
 1207.99087548 0.430458307573 1207.99087548 0.430458307573 1076.37304688 0.7275390625 c 2,37,-1
 983.352539062 0.9375 l 1,38,39
 955 4 955 4 935.678710938 26.80859375 c 0,0,1
EndSplineSet
Validated: 33
EndChar

StartChar: uniFEFB
Encoding: 65275 65275 262
GlifName: uniF_E_F_B_
Width: 1600
VWidth: 2950
GlyphClass: 3
Flags: W
AnchorPoint: "Anchor-9" 208.642 1507.64 baselig 1
AnchorPoint: "Anchor-6" 248.021 -244.333 baselig 1
AnchorPoint: "Anchor-6" 885.078 -240.55 baselig 0
AnchorPoint: "Anchor-9" 938.01 1563.61 baselig 0
LayerCount: 2
Fore
SplineSet
249.2421875 1343.10351562 m 1,0,1
 449.9765625 856.057617188 449.9765625 856.057617188 620.994140625 220.54296875 c 2,2,-1
 621.541015625 218.510742188 l 1,3,-1
 623.54296875 219.16015625 l 2,4,5
 859.057617188 296.018554688 859.057617188 296.018554688 859.17578125 637.975585938 c 2,6,-1
 859.4375 1396.28222656 l 1,7,-1
 1024.47070312 1396.28222656 l 1,8,-1
 1024.47070312 636.665039062 l 2,9,10
 1024 3 1024 3 356.337890625 3.1279296875 c 0,11,12
 220 3 220 3 135.040039062 18.34765625 c 1,13,-1
 135.041992188 195.61328125 l 1,14,15
 301.688476562 174.040039062 301.688476562 174.040039062 454.578125 184.28515625 c 2,16,-1
 457.055664062 184.451171875 l 1,17,-1
 456.365234375 186.8359375 l 2,18,19
 259 870 259 870 91.9609375 1250.86914062 c 1,20,-1
 249.2421875 1343.10351562 l 1,0,1
EndSplineSet
Validated: 33
LCarets2: 1 0
Ligature2: "'rlig' Required Ligatures in Arabic lookup 16 subtable" uniFEDF uniFE8E
EndChar

StartChar: uniFEFC
Encoding: 65276 65276 263
GlifName: uniF_E_F_C_
Width: 1600
VWidth: 2950
GlyphClass: 3
Flags: W
AnchorPoint: "Anchor-9" 938.01 1563.61 baselig 0
AnchorPoint: "Anchor-9" 208.642 1507.64 baselig 1
AnchorPoint: "Anchor-6" 885.078 -240.55 baselig 0
AnchorPoint: "Anchor-6" 248.021 -244.333 baselig 1
LayerCount: 2
Fore
SplineSet
249.2421875 1343.10351562 m 1,0,1
 449 858 449 858 621.541015625 218.510742188 c 1,2,3
 859.057617188 296.018554688 859.057617188 296.018554688 859.17578125 637.975585938 c 2,4,-1
 859.4375 1396.28222656 l 1,5,-1
 1024.47070312 1396.28222656 l 1,6,-1
 1024.47070312 546.666015625 l 1,7,8
 1023 179.999023438 1023 179.999023438 1216.61425781 179.999023438 c 2,9,-1
 1242.09667969 179.999023438 l 2,10,11
 1260.1796875 180 1260.1796875 180 1260.1796875 105.174804688 c 2,12,-1
 1260.1796875 86.3271484375 l 2,13,14
 1260 0 1260 0 1242.09960938 0 c 2,15,-1
 1213.0859375 0 l 2,16,17
 981 0 981 0 915.790039062 228.717773438 c 1,18,19
 752 3 752 3 356.337890625 3.1279296875 c 0,20,21
 220 3 220 3 135.040039062 18.34765625 c 1,22,-1
 135.041992188 195.61328125 l 1,23,24
 302 174 302 174 457.055664062 184.451171875 c 1,25,26
 260 865 260 865 91.9609375 1250.86914062 c 1,27,-1
 249.2421875 1343.10351562 l 1,0,1
EndSplineSet
Validated: 33
LCarets2: 1 0
Ligature2: "'rlig' Required Ligatures in Arabic lookup 16 subtable" uniFEE0 uniFE8E
EndChar

StartChar: arabic_dot
Encoding: 65536 -1 264
GlifName: arabic_dot
Width: 1600
VWidth: 2646
GlyphClass: 2
Flags: W
LayerCount: 2
Fore
SplineSet
-29.9342735455 102.962895983 m 1,0,-1
 96.1210991078 229.019223767 l 1,1,-1
 222.934273545 102.20604933 l 1,2,-1
 96.8789008922 -23.850278455 l 1,3,-1
 -29.9342735455 102.962895983 l 1,0,-1
EndSplineSet
Validated: 1
EndChar

StartChar: arabic_2dots
Encoding: 65537 -1 265
GlifName: arabic_2dots
Width: 1600
VWidth: 2646
GlyphClass: 2
Flags: W
LayerCount: 2
Fore
SplineSet
262.474900816 102.962890656 m 1,0,-1
 388.530278796 229.019223767 l 1,1,-1
 515.343447875 102.206054688 l 1,2,-1
 389.287114702 -23.8502784862 l 1,3,-1
 262.474900816 102.962890656 l 1,0,-1
-21.343453233 102.962895983 m 1,4,-1
 104.71191942 229.019223767 l 1,5,-1
 231.525093858 102.20604933 l 1,6,-1
 105.469721204 -23.850278455 l 1,7,-1
 -21.343453233 102.962895983 l 1,4,-1
EndSplineSet
Validated: 1
EndChar

StartChar: arabic_3dots
Encoding: 65538 -1 266
GlifName: arabic_3dots
Width: 1600
VWidth: 2646
GlyphClass: 2
Flags: W
LayerCount: 2
Fore
SplineSet
123.746390349 314.940446135 m 1,0,-1
 246.621093816 437.81705878 l 1,1,-1
 370.253609553 314.182633602 l 1,2,-1
 247.378906283 191.308884921 l 1,3,-1
 123.746390349 314.940446135 l 1,0,-1
265.655575563 83.8486328125 m 1,4,-1
 388.530284359 206.723341608 l 1,5,-1
 512.163738467 83.0917969408 l 1,6,-1
 389.287120362 -39.7829119869 l 1,7,-1
 265.655575563 83.8486328125 l 1,4,-1
-18.1637439609 83.8486382401 m 1,8,-1
 104.71191949 206.723347101 l 1,9,-1
 228.345384586 83.0917914474 l 1,10,-1
 105.469721134 -39.7829174144 l 1,11,-1
 -18.1637439609 83.8486382401 l 1,8,-1
EndSplineSet
Validated: 1
EndChar

StartChar: arabic_3dots_a
Encoding: 65539 -1 267
GlifName: arabic_3dots_a
Width: 1600
VWidth: 2646
GlyphClass: 2
Flags: W
LayerCount: 2
Fore
SplineSet
123.746390349 -114.268571135 m 1,0,-1
 247.37890079 9.36298458571 l 1,1,-1
 370.253609586 -113.51172421 l 1,2,-1
 246.621099276 -237.14518924 l 1,3,-1
 123.746390349 -114.268571135 l 1,0,-1
265.655564609 116.822265592 m 1,4,-1
 389.287125822 240.454781526 l 1,5,-1
 512.163749389 117.580067138 l 1,6,-1
 388.530278931 -6.05340331939 l 1,7,-1
 265.655564609 116.822265592 l 1,4,-1
-18.1637549148 116.822260165 m 1,8,-1
 105.469726595 240.454786954 l 1,9,-1
 228.345395507 117.580072632 l 1,10,-1
 104.711914062 -6.05340881275 l 1,11,-1
 -18.1637549148 116.822260165 l 1,8,-1
EndSplineSet
Validated: 1
EndChar

StartChar: uni066E.fina
Encoding: 65540 -1 268
GlifName: uni066E_.fina
Width: 1600
VWidth: 2950
GlyphClass: 2
Flags: W
AnchorPoint: "Anchor-10" 925.51 1425.59 basechar 0
AnchorPoint: "Anchor-7" 808.357 -259.261 basechar 0
LayerCount: 2
Fore
SplineSet
1311.40234375 152.469726562 m 1,0,1
 1177 0 1177 0 694.356445312 0 c 2,2,-1
 690.911132812 0 l 2,3,4
 107 0 107 0 106.16015625 463.875 c 0,5,6
 106 563 106 563 133.489257812 685 c 1,7,-1
 289.356445312 655 l 1,8,9
 271 569 271 569 271.424804688 482.515625 c 0,10,11
 272 180 272 180 681.866210938 180.13671875 c 0,12,13
 1090 180 1090 180 1218.22558594 284.419921875 c 0,14,15
 1258.28163066 317.230689729 1258.28163066 317.230689729 1262.52246094 373.569335938 c 2,16,-1
 1277.41699219 571.440429688 l 1,17,-1
 1398.44335938 571.440429688 l 1,18,-1
 1413.33886719 371.49609375 l 2,19,20
 1428.00052337 179.993164062 1428.00052337 179.993164062 1597.58984375 179.993164062 c 2,21,-1
 1605.66796875 179.993164062 l 2,22,23
 1623.74707031 179.999905684 1623.74707031 179.999905684 1623.74707031 96.322265625 c 2,24,-1
 1623.74707031 86.3349609375 l 2,25,26
 1624 0 1624 0 1605.66601562 0 c 2,27,-1
 1596.02246094 0 l 2,28,29
 1391 0 1391 0 1311.40234375 152.469726562 c 1,0,1
EndSplineSet
Validated: 33
EndChar

StartChar: uni06A1.fina
Encoding: 65543 -1 269
GlifName: uni06A_1.fina
Width: 1600
VWidth: 2950
GlyphClass: 2
Flags: W
AnchorPoint: "Anchor-10" 746.816 1571.03 basechar 0
AnchorPoint: "Anchor-7" 623.121 -311.592 basechar 0
LayerCount: 2
Fore
SplineSet
1296.47460938 582.794921875 m 0,0,1
 1188.98144531 670 1188.98144531 670 1083.78027344 584.29296875 c 0,2,3
 1020.98144531 534 1020.98144531 534 1021.3984375 459 c 0,4,5
 1021.98144531 394 1021.98144531 394 1076.92480469 331.327148438 c 0,6,7
 1137.98144531 260 1137.98144531 260 1187.13964844 255.895507812 c 0,8,9
 1238.98144531 252 1238.98144531 252 1301.98144531 330 c 0,10,11
 1354.98144531 396 1354.98144531 396 1354.86425781 457.1640625 c 0,12,13
 1354.98144531 536 1354.98144531 536 1296.47460938 582.794921875 c 0,0,1
1377.14648438 189.430664062 m 1,14,15
 1404.01946511 179.993164062 1404.01946511 179.993164062 1580.82714844 179.993164062 c 2,16,-1
 1613.37207031 179.993164062 l 2,17,18
 1631.44824219 180.000173824 1631.44824219 180.000173824 1631.44824219 105.174804688 c 2,19,-1
 1631.44824219 86.318359375 l 2,20,21
 1631 0 1631 0 1613.37011719 0 c 2,22,-1
 1583.02246094 0 l 2,23,24
 1308 0 1308 0 1185.68066406 90.880859375 c 1,25,26
 1054 0 1054 0 864.356445312 0 c 2,27,-1
 860.911132812 0 l 2,28,29
 107 0 107 0 106.16015625 463.875 c 0,30,31
 106 563 106 563 133.489257812 685 c 1,32,-1
 289.356445312 655 l 1,33,34
 271 569 271 569 271.424804688 482.515625 c 0,35,36
 272 180 272 180 854 180.134632162 c 0,37,38
 984 180 984 180 1002.97753906 188.821289062 c 1,39,40
 852 315 852 315 851.481445312 456.116210938 c 0,41,42
 851 590 851 590 924.50390625 676.706054688 c 0,43,44
 1030 801 1030 801 1189.21679688 800.41796875 c 0,45,46
 1345 800 1345 800 1442.52929688 689.624023438 c 0,47,48
 1525 595 1525 595 1524.97949219 458.610351562 c 0,49,50
 1525 310 1525 310 1377.14648438 189.430664062 c 1,14,15
EndSplineSet
Validated: 33
EndChar

StartChar: uni06A1.init
Encoding: 65544 -1 270
GlifName: uni06A_1.init
Width: 1600
VWidth: 2950
GlyphClass: 2
Flags: W
AnchorPoint: "Anchor-10" 907.443 1604.02 basechar 0
AnchorPoint: "Anchor-7" 827.886 -247.023 basechar 0
LayerCount: 2
Fore
SplineSet
1111.18457031 530.057617188 m 2,0,1
 1090.62792969 848.470703125 1090.62792969 848.470703125 938.38671875 848.470703125 c 0,2,3
 855.268554688 848.470703125 855.268554688 848.470703125 813.411132812 764 c 0,4,5
 791.926757812 720.645507812 791.926757812 720.645507812 791.717773438 667.884765625 c 0,6,7
 792 533 792 533 1027.47949219 528.689453125 c 0,8,9
 1068.85546875 528.001953125 1068.85546875 528.001953125 1109.18457031 527.928710938 c 2,10,-1
 1111.32226562 527.924804688 l 1,11,-1
 1111.18457031 530.057617188 l 2,0,1
1280.82519531 482 m 0,12,13
 1281 293 1281 293 1220 196.8359375 c 0,14,15
 1096 0 1096 0 724.868164062 0 c 2,16,-1
 -6.9384765625 0 l 2,17,18
 -62.7783203125 0 -62.7783203125 0 -62.7783203125 86.3134765625 c 2,19,-1
 -62.7783203125 105.192382812 l 2,20,21
 -62.9999971061 179.999023438 -62.9999971061 179.999023438 -6.9384765625 179.999023438 c 2,22,-1
 736.008789062 179.999023438 l 2,23,24
 1098 180 1098 180 1108.78808594 354.567382812 c 1,25,-1
 1028.04394531 355.123046875 l 2,26,27
 628 358 628 358 628.5625 654.837890625 c 0,28,29
 629 769 629 769 676.442382812 859 c 0,30,31
 765 1028 765 1028 938.7734375 1028.40527344 c 0,32,33
 1157 1028 1157 1028 1231.24902344 816.821289062 c 0,34,35
 1281 676 1281 676 1280.82519531 482 c 0,12,13
EndSplineSet
Validated: 33
EndChar

StartChar: uni06A1.medi
Encoding: 65545 -1 271
GlifName: uni06A_1.medi
Width: 1600
VWidth: 2950
GlyphClass: 2
Flags: W
AnchorPoint: "Anchor-10" 822.544 1386.06 basechar 0
AnchorPoint: "Anchor-7" 787.517 -247.023 basechar 0
LayerCount: 2
Fore
SplineSet
933.493164062 582.794921875 m 0,0,1
 826 670 826 670 720.798828125 584.29296875 c 0,2,3
 658 534 658 534 658.416992188 459 c 0,4,5
 659 394 659 394 713.943359375 331.327148438 c 0,6,7
 775 260 775 260 824.158203125 255.895507812 c 0,8,9
 876 252 876 252 939 330 c 0,10,11
 992 396 992 396 991.8828125 457.1640625 c 0,12,13
 992 536 992 536 933.493164062 582.794921875 c 0,0,1
822.69921875 90.880859375 m 1,14,15
 700 0 700 0 34.2099609375 0 c 2,16,-1
 -6.9384765625 0 l 2,17,18
 -62.7783203125 0 -62.7783203125 0 -62.7783203125 86.3134765625 c 2,19,-1
 -62.7783203125 105.192382812 l 2,20,21
 -62.999254269 179.748347012 -62.999254269 179.748347012 -6.9013671875 179.993164062 c 2,22,-1
 34.048828125 180.171875 l 2,23,24
 570 183 570 183 639.99609375 188.821289062 c 1,25,26
 489 315 489 315 488.5 456.116210938 c 0,27,28
 488 590 488 590 561.522460938 676.706054688 c 0,29,30
 667 801 667 801 826.235351562 800.41796875 c 0,31,32
 982 800 982 800 1079.54785156 689.624023438 c 0,33,34
 1162 595 1162 595 1161.99804688 458.610351562 c 0,35,36
 1162 310 1162 310 1014.16503906 189.430664062 c 1,37,38
 1043.02090139 179.993164062 1043.02090139 179.993164062 1577.84570312 179.993164062 c 2,39,-1
 1610.390625 179.993164062 l 2,40,41
 1628.46679688 180.00018121 1628.46679688 180.00018121 1628.46679688 105.174804688 c 2,42,-1
 1628.46679688 86.318359375 l 2,43,44
 1628 0 1628 0 1610.38867188 0 c 2,45,-1
 1580.04101562 0 l 2,46,47
 945 0 945 0 822.69921875 90.880859375 c 1,14,15
EndSplineSet
Validated: 33
EndChar

StartChar: uni066F.fina
Encoding: 65546 -1 272
GlifName: uni066F_.fina
Width: 1600
VWidth: 2950
GlyphClass: 2
Flags: W
AnchorPoint: "Anchor-10" 404.297 1207.41 basechar 0
AnchorPoint: "Anchor-7" 479.744 -854.409 basechar 0
LayerCount: 2
Fore
SplineSet
680.99609375 -467.998046875 m 0,0,1
 499 -467 499 -467 360.99609375 -396.170898438 c 0,2,3
 104 -263 104 -263 104.752929688 99.041015625 c 0,4,5
 105 257 105 257 170.45703125 446.122070312 c 1,6,-1
 328.90234375 400.791992188 l 1,7,8
 275 233 275 233 275.268554688 100.861328125 c 0,9,10
 276 -294 276 -294 694.3984375 -296.201171875 c 24,11,12
 1080 -298 1080 -298 1119.28320312 0.39453125 c 1,13,-1
 1061.35253906 1.2060546875 l 2,14,15
 631 7 631 7 631.165039062 332.748046875 c 0,16,17
 631 486 631 486 717.72265625 596.029296875 c 0,18,19
 805 705 805 705 949.264648438 705.471679688 c 0,20,21
 1142 706 1142 706 1228.23632812 532.055664062 c 0,22,23
 1286 416 1286 416 1294.0703125 180.155273438 c 1,24,-1
 1604.03417969 179.999023438 l 2,25,26
 1610 180 1610 180 1613.47460938 172.217773438 c 0,27,28
 1619 158 1619 158 1619.78515625 147.147460938 c 0,29,30
 1622 105 1622 105 1622.12207031 104.174804688 c 2,31,-1
 1622.12207031 85.3212890625 l 2,32,33
 1622 61 1622 61 1619.71484375 36.9951171875 c 0,34,35
 1618 20 1618 20 1613.40039062 8.7275390625 c 0,36,37
 1608.99435463 -0.0111967720024 1608.99435463 -0.0111967720024 1604.1015625 0 c 2,38,-1
 1289.16699219 0.720703125 l 1,39,-1
 1287.36425781 0.732421875 l 1,40,-1
 1287.16601562 -1.0595703125 l 2,41,42
 1235 -471 1235 -471 680.99609375 -467.998046875 c 0,0,1
1133.78613281 183.125976562 m 2,43,44
 1111.71966116 525.000889454 1111.71966116 525.000889454 948.561523438 525.518554688 c 0,45,46
 875 525 875 525 833.552734375 470.120117188 c 0,47,48
 794 416 794 416 794.319335938 344.958984375 c 0,49,50
 793.999165661 184.582069989 793.999165661 184.582069989 1060.09570312 181.7578125 c 2,51,-1
 1131.77148438 180.997070312 l 1,52,-1
 1133.92480469 180.977539062 l 1,53,-1
 1133.78613281 183.125976562 l 2,43,44
EndSplineSet
Validated: 33
EndChar

StartChar: arabic_gaf_bar
Encoding: 65550 -1 273
GlifName: arabic_gaf_bar
Width: 1600
VWidth: 2765
GlyphClass: 2
Flags: W
LayerCount: 2
Fore
SplineSet
755.040039062 1872.6015625 m 1,0,-1
 48.15625 1567.45996094 l 1,1,-1
 48.15625 1682.86816406 l 1,2,-1
 755.040039062 1988.00683594 l 1,3,-1
 755.040039062 1872.6015625 l 1,0,-1
EndSplineSet
Validated: 1
EndChar

StartChar: guillemotleft
Encoding: 171 171 283
GlifName: guillemotleft
Width: 1600
VWidth: 2316
Flags: W
LayerCount: 2
Fore
SplineSet
608.681640625 0.5234375 m 1,0,1
 297 463 297 463 297.05078125 526.83203125 c 0,2,3
 296 591 296 591 609.278320312 1014.22167969 c 1,4,-1
 804.555664062 1014.22167969 l 1,5,6
 495 591 495 591 495.157226562 525.7109375 c 0,7,8
 495 460 495 460 802.340820312 0.5234375 c 1,9,-1
 608.681640625 0.5234375 l 1,0,1
1037.046875 0.5234375 m 1,10,11
 725 463 725 463 724.805664062 526.833007812 c 0,12,13
 724 591 724 591 1037.64453125 1014.22167969 c 1,14,-1
 1232.92285156 1014.22167969 l 1,15,16
 923 590 923 590 923.603515625 522.912109375 c 0,17,18
 924 459 924 459 1230.70800781 0.5234375 c 1,19,-1
 1037.046875 0.5234375 l 1,10,11
EndSplineSet
Validated: 33
EndChar

StartChar: guillemotright
Encoding: 187 187 284
GlifName: guillemotright
Width: 1600
VWidth: 2316
Flags: W
LayerCount: 2
Fore
SplineSet
971.291992188 0.5234375 m 1,0,1
 971.291992188 0.5234375 971.291992188 0.5234375 777.6328125 0.5234375 c 1,2,3
 1084.97363281 460 1084.97363281 460 1084.81640625 525.7109375 c 0,4,5
 1084.97363281 591 1084.97363281 591 775.41796875 1014.22167969 c 1,6,-1
 970.6953125 1014.22167969 l 1,7,8
 1283.97363281 591 1283.97363281 591 1282.92285156 526.83203125 c 0,9,10
 1282.97363281 463 1282.97363281 463 971.291992188 0.5234375 c 1,0,1
542.926757812 0.5234375 m 1,11,-1
 349.265625 0.5234375 l 1,12,13
 655.973632812 459 655.973632812 459 656.370117188 522.912109375 c 0,14,15
 656.973632812 590 656.973632812 590 347.05078125 1014.22167969 c 1,16,-1
 542.329101562 1014.22167969 l 1,17,18
 855.973632812 591 855.973632812 591 855.16796875 526.833007812 c 0,19,20
 854.973632812 463 854.973632812 463 542.926757812 0.5234375 c 1,11,-1
EndSplineSet
Validated: 33
EndChar

StartChar: NameMe.302
Encoding: 65562 -1 293
GlifName: N_ameM_e.302
Width: 1600
VWidth: 2950
Flags: W
LayerCount: 2
Fore
SplineSet
721.258789062 134.25 m 1,0,1
 629 0 629 0 21.625 0 c 2,2,-1
 -6.9384765625 0 l 2,3,4
 -62.7783203125 0 -62.7783203125 0 -62.7783203125 86.3134765625 c 2,5,-1
 -62.7783203125 105.192382812 l 2,6,7
 -62.9999797429 179.993164062 -62.9999797429 179.993164062 -6.9384765625 179.993164062 c 2,8,-1
 24.140625 179.993164062 l 2,9,10
 647.919921875 179.999999123 647.919921875 179.999999123 647.919921875 433.180664062 c 2,11,-1
 647.919921875 1141.66699219 l 1,12,-1
 816.772460938 1141.66699219 l 1,13,-1
 816.772460938 433.193359375 l 2,14,15
 817.000006143 179.993164062 817.000006143 179.993164062 1592.40039062 179.993164062 c 2,16,-1
 1602.50976562 179.993164062 l 2,17,18
 1631.65625 179.999920318 1631.65625 179.999920318 1631.65625 105.174804688 c 2,19,-1
 1631.65625 86.2763671875 l 2,20,21
 1632 0 1632 0 1602.50878906 0 c 2,22,-1
 1594.92089844 0 l 2,23,24
 816 0 816 0 721.258789062 134.25 c 1,0,1
EndSplineSet
Validated: 33
EndChar

StartChar: NameMe.303
Encoding: 65563 -1 294
GlifName: N_ameM_e.303
Width: 1600
VWidth: 2950
Flags: W
LayerCount: 2
Fore
SplineSet
-6.9384765625 0 m 2,0,1
 -62.7783203125 0 -62.7783203125 0 -62.7783203125 86.3134765625 c 2,2,-1
 -62.7783203125 105.192382812 l 2,3,4
 -62.9999797429 179.993164062 -62.9999797429 179.993164062 -6.9384765625 179.993164062 c 2,5,-1
 50.515625 179.993164062 l 2,6,7
 1043.34570312 180.000002381 1043.34570312 180.000002381 1043.34570312 396.663085938 c 2,8,-1
 1043.34570312 1304.52832031 l 1,9,-1
 1208.66015625 1304.52832031 l 1,10,-1
 1208.66015625 390.963867188 l 2,11,12
 1209 0 1209 0 45.318359375 0 c 2,13,-1
 -6.9384765625 0 l 2,0,1
EndSplineSet
Validated: 33
EndChar

StartChar: NameMe.65564
Encoding: 65564 -1 297
GlifName: N_ameM_e.65564
Width: 1600
VWidth: 2950
Flags: W
AnchorPoint: "Anchor-10" 656.697 1423.11 basechar 0
AnchorPoint: "Anchor-7" 716.078 -241.903 basechar 0
LayerCount: 2
Fore
SplineSet
1636.61816406 86.294921875 m 1,0,1
 1638 0 1638 0 1618.53710938 0 c 2,2,-1
 1077.65820312 0 l 2,3,4
 566.283203125 0 566.283203125 0 566.283203125 436.395507812 c 2,5,-1
 566.283203125 1256.171875 l 1,6,-1
 731.598632812 1256.171875 l 1,7,-1
 731.598632812 438.447265625 l 2,8,9
 732.000010616 179.993164063 732.000010616 179.993164063 1080.71289062 179.993164062 c 2,10,-1
 1618.5390625 179.993164062 l 2,11,12
 1636.61816406 179.999858609 1636.61816406 179.999858609 1636.61816406 105.174804688 c 2,13,-1
 1636.61816406 86.294921875 l 1,0,1
EndSplineSet
Validated: 33
EndChar

StartChar: NameMe.65565
Encoding: 65565 -1 298
GlifName: N_ameM_e.65565
Width: 1600
VWidth: 2953
Flags: W
LayerCount: 2
Fore
SplineSet
119.142578125 -285.494140625 m 1,0,1
 179 -298 179 -298 232.546875 -298.479492188 c 0,2,3
 366 -298 366 -298 419.99609375 -251.783203125 c 0,4,5
 474 -205 474 -205 473.924804688 -159.516601562 c 0,6,7
 474 -146 474 -146 463.859375 -139.69921875 c 0,8,9
 453.915547275 -132.942616314 453.915547275 -132.942616314 434.653320312 -132.456054688 c 2,10,-1
 334.79296875 -129.93359375 l 2,11,12
 230 -127 230 -127 229.629882812 -11.2490234375 c 0,13,14
 230 126 230 126 344.076171875 198.979492188 c 0,15,16
 432 255 432 255 587.9609375 255.979492188 c 1,17,-1
 578.760742188 133.991210938 l 1,18,19
 352.562591781 127.988392114 352.562591781 127.988392114 336.499023438 1.380859375 c 2,20,-1
 335.178710938 -9.025390625 l 1,21,-1
 334.901367188 -11.2099609375 l 1,22,-1
 337.103515625 -11.2763671875 l 1,23,-1
 448.302734375 -14.599609375 l 2,24,25
 562 -18 562 -18 583.831054688 -114.668945312 c 0,26,27
 589 -138 589 -138 588.856445312 -160.2109375 c 0,28,29
 589 -260 589 -260 487 -344 c 0,30,31
 395 -420 395 -420 225.575195312 -418.185546875 c 0,32,33
 206 -418 206 -418 185.5 -417 c 128,-1,34
 165 -416 165 -416 143.540039062 -413.220703125 c 0,35,36
 122 -411 122 -411 100.736328125 -407.182617188 c 1,37,-1
 119.142578125 -285.494140625 l 1,0,1
EndSplineSet
Validated: 33
EndChar

StartChar: uni060D
Encoding: 1549 1549 299
Width: 1600
VWidth: 4038
Flags: W
LayerCount: 2
Fore
SplineSet
1029.72851562 1461.15039062 m 1,0,-1
 1177 1417.18457031 l 1,1,-1
 619 -211 l 1,2,-1
 472.16015625 -167.009765625 l 1,3,-1
 1029.72851562 1461.15039062 l 1,0,-1
EndSplineSet
Validated: 1
EndChar

StartChar: NameMe.65541
Encoding: 65541 -1 300
Width: 1600
VWidth: 2950
Flags: W
AnchorPoint: "Anchor-10" 791.384 1351 basechar 0
AnchorPoint: "Anchor-7" 743.422 -225.625 basechar 0
LayerCount: 2
Fore
SplineSet
518.673828125 0 m 2,0,-1
 -6.9384765625 0 l 2,1,2
 -62.7783203125 0 -62.7783203125 0 -62.7783203125 86.3134765625 c 2,3,-1
 -62.7783203125 105.182617188 l 2,4,5
 -62.9999797455 179.993164062 -62.9999797455 179.993164062 -6.9384765625 179.993164062 c 2,6,-1
 528.684570312 179.993164062 l 2,7,8
 800 180 800 180 800.032226562 459.203125 c 0,9,10
 800 565 800 565 772.33984375 685.633789062 c 1,11,-1
 935.419921875 715.629882812 l 1,12,13
 962 579 962 579 961.642578125 462.950195312 c 0,14,15
 962 0 962 0 518.673828125 0 c 2,0,-1
EndSplineSet
Validated: 33
EndChar

StartChar: NameMe.65542
Encoding: 65542 -1 301
Width: 1600
VWidth: 2950
Flags: W
AnchorPoint: "Anchor-10" 715.665 1295.09 basechar 0
AnchorPoint: "Anchor-7" 730.537 -179.742 basechar 0
LayerCount: 2
Fore
SplineSet
742.668945312 132.932617188 m 1,0,1
 649 0 649 0 305.759765625 0 c 2,2,-1
 -8.1171875 0 l 2,3,4
 -62.7783203125 0 -62.7783203125 0 -62.7783203125 86.3134765625 c 2,5,-1
 -62.7783203125 105.192382812 l 2,6,7
 -62.9999797429 179.993164062 -62.9999797429 179.993164062 -8.1171875 179.993164062 c 2,8,-1
 301.012695312 179.993164062 l 2,9,10
 646.936114731 179.999998738 646.936114731 179.999998738 661.506835938 373.569335938 c 2,11,-1
 676.401367188 571.440429688 l 1,12,-1
 797.427734375 571.440429688 l 1,13,-1
 812.323242188 371.49609375 l 2,14,15
 827.000523924 179.993164063 827.000523924 179.993164063 1226.57421875 179.993164062 c 2,16,-1
 1584.65234375 179.993164062 l 2,17,18
 1602.73144531 179.999899942 1602.73144531 179.999899942 1602.73144531 96.322265625 c 2,19,-1
 1602.73144531 86.3408203125 l 2,20,21
 1603 0 1603 0 1584.65039062 0 c 2,22,-1
 1225.00683594 0 l 2,23,24
 813 0 813 0 742.668945312 132.932617188 c 1,0,1
EndSplineSet
Validated: 33
EndChar
